{"glyphs":{"0":{"ha":690,"x_min":61,"x_max":629,"o":"m 346 -17 q 136 103 211 -17 q 61 446 61 222 q 136 786 61 669 q 346 903 211 903 q 554 786 479 903 q 629 446 629 669 q 554 103 629 222 q 346 -17 479 -17 m 346 75 q 416 97 385 75 q 470 163 447 118 q 506 278 493 208 q 518 446 518 349 q 506 613 518 543 q 470 726 493 682 q 416 790 447 770 q 346 811 385 811 q 275 790 307 811 q 220 726 243 770 q 185 613 197 682 q 172 446 172 543 q 220 163 172 252 q 346 75 268 75 z "},"1":{"ha":676,"x_min":109,"x_max":609,"o":"m 109 94 l 312 94 l 312 747 l 151 747 l 151 821 q 257 848 212 832 q 338 886 302 864 l 426 886 l 426 94 l 609 94 l 609 0 l 109 0 l 109 94 z "},"2":{"ha":690,"x_min":50,"x_max":627,"o":"m 55 68 q 233 249 155 168 q 363 398 311 329 q 444 524 416 467 q 472 636 472 582 q 430 761 472 713 q 304 810 389 810 q 201 779 248 810 q 115 703 154 747 l 50 768 q 168 866 105 829 q 317 903 230 903 q 512 831 441 903 q 583 642 583 760 q 556 516 583 579 q 481 386 529 453 q 367 245 433 318 q 222 90 301 172 q 297 96 258 93 q 370 98 336 98 l 627 98 l 627 0 l 55 0 l 55 68 z "},"3":{"ha":690,"x_min":36,"x_max":619,"o":"m 94 183 q 188 110 134 142 q 321 78 241 78 q 453 122 401 78 q 504 240 504 165 q 489 312 504 279 q 441 368 475 345 q 354 404 408 392 q 220 416 300 416 l 220 504 q 339 516 292 504 q 417 551 387 529 q 459 604 447 574 q 472 669 472 635 q 431 772 472 734 q 319 810 390 810 q 217 785 264 810 q 130 720 171 760 l 69 791 q 182 871 121 840 q 323 903 244 903 q 430 887 382 903 q 514 844 479 872 q 569 773 550 815 q 589 677 589 732 q 544 546 589 597 q 428 467 500 494 l 428 461 q 503 433 468 452 q 564 385 537 414 q 605 319 590 357 q 619 236 619 282 q 596 131 619 178 q 534 51 574 83 q 441 1 494 18 q 328 -17 389 -17 q 231 -6 275 -17 q 151 21 187 4 q 87 61 115 39 q 36 109 58 83 l 94 183 z "},"4":{"ha":690,"x_min":23,"x_max":651,"o":"m 422 336 l 422 593 q 424 679 422 629 q 429 764 426 728 l 423 764 q 388 701 406 732 q 351 639 370 671 l 144 336 l 422 336 m 651 244 l 530 244 l 530 0 l 422 0 l 422 244 l 23 244 l 23 319 l 402 886 l 530 886 l 530 336 l 651 336 l 651 244 z "},"5":{"ha":690,"x_min":35,"x_max":623,"o":"m 90 179 q 182 109 129 139 q 314 78 236 78 q 389 93 354 78 q 451 134 425 107 q 493 197 477 160 q 508 281 508 235 q 457 424 508 372 q 319 475 406 475 q 241 461 273 475 q 168 421 208 447 l 106 460 l 136 886 l 579 886 l 579 787 l 236 787 l 212 525 q 276 551 244 542 q 349 561 308 561 q 455 544 406 561 q 543 494 505 528 q 602 408 581 460 q 623 283 623 355 q 598 155 623 211 q 532 62 574 100 q 437 3 490 24 q 325 -17 383 -17 q 228 -6 272 -17 q 149 21 184 4 q 85 59 114 37 q 35 104 57 81 l 90 179 z "},"6":{"ha":690,"x_min":66,"x_max":635,"o":"m 372 74 q 433 88 406 74 q 482 127 461 102 q 514 188 503 153 q 526 268 526 224 q 486 406 526 355 q 362 456 446 456 q 271 429 321 456 q 178 339 222 401 q 238 141 189 208 q 372 74 288 74 m 554 737 q 488 788 526 770 q 408 807 450 807 q 320 788 362 807 q 247 724 279 768 q 196 608 215 679 q 175 431 176 536 q 272 512 216 482 q 382 542 328 542 q 566 474 497 542 q 635 268 635 406 q 614 152 635 204 q 557 62 593 100 q 473 4 521 25 q 372 -17 426 -17 q 251 9 307 -17 q 155 90 195 36 q 90 223 114 143 q 66 410 66 302 q 94 637 66 543 q 169 789 122 730 q 277 876 216 848 q 404 903 337 903 q 528 876 476 903 q 618 808 581 848 l 554 737 z "},"7":{"ha":690,"x_min":61,"x_max":632,"o":"m 245 0 q 268 229 252 125 q 315 427 285 334 q 391 608 345 521 q 503 787 437 696 l 61 787 l 61 886 l 632 886 l 632 815 q 504 624 553 715 q 425 437 454 532 q 383 235 396 342 q 363 0 370 129 l 245 0 z "},"8":{"ha":690,"x_min":56,"x_max":633,"o":"m 159 237 q 174 170 159 200 q 214 116 189 139 q 274 80 239 93 q 349 68 309 68 q 475 111 427 68 q 523 224 523 154 q 504 297 523 267 q 451 351 484 328 q 373 392 417 374 q 283 431 330 411 q 195 347 230 395 q 159 237 159 298 m 409 484 q 478 568 454 524 q 502 661 502 612 q 462 773 502 728 q 348 818 422 818 q 245 779 286 818 q 205 675 205 741 q 221 606 205 635 q 267 555 238 578 q 332 516 295 533 q 409 484 369 498 m 56 227 q 71 306 56 269 q 109 373 85 343 q 161 426 132 403 q 223 465 191 449 l 223 471 q 137 555 174 505 q 99 675 99 604 q 119 768 99 726 q 172 840 138 810 q 251 886 205 869 q 351 903 296 903 q 455 885 409 903 q 533 837 500 868 q 584 762 566 806 q 601 667 601 718 q 589 600 601 632 q 560 541 577 568 q 521 490 543 513 q 479 453 499 468 l 479 447 q 536 409 508 431 q 585 360 564 387 q 620 299 606 334 q 633 220 633 264 q 612 126 633 170 q 553 52 591 83 q 463 1 516 20 q 347 -17 410 -17 q 231 1 284 -17 q 139 52 177 20 q 79 129 101 85 q 56 227 56 174 z "},"9":{"ha":690,"x_min":55,"x_max":622,"o":"m 326 431 q 418 458 369 431 q 512 549 467 485 q 451 746 500 679 q 316 812 401 812 q 256 799 284 812 q 207 759 227 785 q 174 697 186 733 q 162 618 162 661 q 202 480 162 530 q 326 431 242 431 m 134 149 q 200 97 162 117 q 280 78 238 78 q 369 97 327 78 q 442 162 410 117 q 494 279 474 207 q 515 458 513 351 q 417 375 473 406 q 307 345 362 345 q 123 413 191 345 q 55 618 55 481 q 76 734 55 682 q 132 824 96 786 q 215 882 168 861 q 316 903 263 903 q 437 876 381 903 q 535 797 494 850 q 599 663 576 743 q 622 476 622 583 q 594 249 622 343 q 519 96 566 155 q 411 10 471 37 q 284 -17 351 -17 q 160 9 213 -17 q 71 77 106 36 l 134 149 z "},"\u001d":{"ha":0,"x_min":0,"x_max":0,"o":""}," ":{"ha":380,"x_min":0,"x_max":0,"o":""},"!":{"ha":401,"x_min":118,"x_max":283,"o":"m 146 800 l 143 930 l 258 930 l 256 800 l 240 275 l 161 275 l 146 800 m 118 69 q 142 134 118 110 q 201 158 167 158 q 259 134 235 158 q 283 69 283 110 q 259 7 283 32 q 201 -17 235 -17 q 142 7 167 -17 q 118 69 118 32 z "},"\"":{"ha":591,"x_min":111,"x_max":477,"o":"m 115 831 l 111 958 l 233 958 l 229 831 l 206 599 l 137 599 l 115 831 m 359 831 l 356 958 l 477 958 l 475 831 l 452 599 l 381 599 l 359 831 z "},"#":{"ha":690,"x_min":48,"x_max":648,"o":"m 159 283 l 48 283 l 48 363 l 169 363 l 194 568 l 76 568 l 76 648 l 203 648 l 235 903 l 309 903 l 277 648 l 462 648 l 495 903 l 569 903 l 536 648 l 648 648 l 648 568 l 528 568 l 503 363 l 621 363 l 621 283 l 492 283 l 458 0 l 385 0 l 418 283 l 234 283 l 199 0 l 125 0 l 159 283 m 427 363 l 452 568 l 269 568 l 244 363 l 427 363 z "},"$":{"ha":690,"x_min":72,"x_max":606,"o":"m 528 728 q 452 786 488 765 q 358 807 415 807 q 257 771 294 807 q 219 673 219 734 q 248 592 219 624 q 319 535 276 559 q 413 488 362 511 q 507 433 464 465 q 578 352 550 400 q 606 229 606 304 q 549 65 606 129 q 391 -12 491 1 l 391 -153 l 308 -153 l 308 -16 q 179 22 241 -8 q 72 92 117 52 l 125 171 q 222 105 169 132 q 340 78 276 78 q 456 117 418 78 q 494 221 494 155 q 466 313 494 277 q 394 377 437 350 q 300 428 351 404 q 207 482 250 452 q 135 556 163 513 q 106 668 106 600 q 161 823 106 761 q 308 900 216 885 l 308 1039 l 391 1039 l 391 901 q 505 865 458 895 q 589 796 551 836 l 528 728 z "},"%":{"ha":1144,"x_min":48,"x_max":1097,"o":"m 255 353 q 104 428 161 353 q 48 642 48 503 q 104 854 48 781 q 255 928 161 928 q 405 854 348 928 q 462 642 462 781 q 405 428 462 503 q 255 353 348 353 m 255 424 q 341 478 308 424 q 374 642 374 533 q 341 804 374 751 q 255 857 308 857 q 168 804 201 857 q 134 642 134 751 q 168 478 134 533 q 255 424 201 424 m 281 -17 l 784 928 l 861 928 l 358 -17 l 281 -17 m 890 -17 q 739 58 795 -17 q 683 272 683 134 q 739 484 683 410 q 890 558 795 558 q 1040 484 983 558 q 1097 272 1097 410 q 1040 58 1097 134 q 890 -17 983 -17 m 890 54 q 976 109 943 54 q 1009 272 1009 164 q 976 434 1009 380 q 890 488 943 488 q 803 434 837 488 q 769 272 769 380 q 803 109 769 164 q 890 54 837 54 z "},"&":{"ha":846,"x_min":44,"x_max":825,"o":"m 155 243 q 169 174 155 205 q 207 121 183 143 q 264 87 231 98 q 334 75 297 75 q 425 95 382 75 q 508 149 468 114 q 379 276 441 207 q 269 419 317 346 q 188 338 220 380 q 155 243 155 296 m 262 714 q 274 636 262 676 q 305 554 286 596 q 364 596 336 575 q 414 641 393 618 q 448 690 436 664 q 460 746 460 715 q 440 816 460 786 q 374 846 420 846 q 293 808 323 846 q 262 714 262 771 m 794 -17 q 693 23 745 -3 q 585 87 640 49 q 467 12 532 40 q 322 -17 402 -17 q 209 2 259 -17 q 121 54 158 21 q 64 134 84 87 q 44 236 44 180 q 59 319 44 282 q 98 389 73 357 q 156 448 123 421 q 223 498 189 475 q 179 609 195 555 q 163 713 163 663 q 179 797 163 758 q 222 865 194 836 q 289 911 250 895 q 374 928 328 928 q 507 878 459 928 q 554 747 554 828 q 536 665 554 703 q 488 595 517 628 q 422 534 459 562 q 349 478 386 505 q 453 342 393 407 q 578 222 513 277 q 653 346 621 279 q 707 492 686 412 l 814 492 q 747 319 786 401 q 654 165 708 237 q 744 111 701 134 q 825 78 787 89 l 794 -17 z "},"’":{"ha":345,"x_min":87,"x_max":268,"o":"m 87 652 q 166 725 140 686 q 192 825 192 764 q 180 823 187 823 q 129 842 151 823 q 107 893 107 860 q 128 950 107 929 q 180 971 149 971 q 244 938 221 971 q 268 844 268 905 q 230 701 268 761 q 119 599 192 640 l 87 652 z "},"(":{"ha":507,"x_min":113,"x_max":368,"o":"m 296 -244 q 162 48 210 -106 q 113 386 113 203 q 162 723 113 570 q 296 1017 210 876 l 368 983 q 247 698 287 850 q 208 386 208 546 q 247 74 208 227 q 368 -211 287 -78 l 296 -244 z "},")":{"ha":517,"x_min":133,"x_max":387,"o":"m 133 -211 q 253 74 214 -78 q 293 386 293 227 q 253 698 293 546 q 133 983 214 850 l 204 1017 q 339 723 290 876 q 387 386 387 570 q 339 48 387 203 q 204 -244 290 -106 l 133 -211 z "},"*":{"ha":581,"x_min":80,"x_max":499,"o":"m 136 624 l 215 754 l 80 810 l 101 873 l 243 839 l 255 989 l 323 989 l 336 840 l 479 873 l 499 810 l 365 754 l 443 624 l 389 583 l 290 703 l 191 583 l 136 624 z "},"+":{"ha":690,"x_min":47,"x_max":643,"o":"m 300 415 l 47 415 l 47 501 l 300 501 l 300 772 l 390 772 l 390 501 l 643 501 l 643 415 l 390 415 l 390 144 l 300 144 l 300 415 z "},",":{"ha":345,"x_min":65,"x_max":275,"o":"m 65 -170 q 157 -100 123 -143 q 190 0 190 -57 q 176 -1 186 -1 q 119 19 143 -1 q 94 78 94 39 q 119 137 94 115 q 179 158 144 158 q 249 122 223 158 q 275 24 275 86 q 226 -133 275 -66 q 93 -236 178 -200 l 65 -170 z "},"-":{"ha":431,"x_min":56,"x_max":376,"o":"m 56 392 l 376 392 l 376 304 l 56 304 l 56 392 z "},".":{"ha":345,"x_min":90,"x_max":256,"o":"m 90 69 q 115 134 90 110 q 174 158 139 158 q 231 134 207 158 q 256 69 256 110 q 231 7 256 32 q 174 -17 207 -17 q 115 7 139 -17 q 90 69 90 32 z "},"/":{"ha":486,"x_min":14,"x_max":468,"o":"m 385 986 l 468 986 l 97 -222 l 14 -222 l 385 986 z "},":":{"ha":345,"x_min":90,"x_max":256,"o":"m 90 571 q 115 635 90 611 q 174 659 139 659 q 231 635 207 659 q 256 571 256 611 q 231 508 256 532 q 174 485 207 485 q 115 508 139 485 q 90 571 90 532 m 90 69 q 115 134 90 110 q 174 158 139 158 q 231 134 207 158 q 256 69 256 110 q 231 7 256 32 q 174 -17 207 -17 q 115 7 139 -17 q 90 69 90 32 z "},";":{"ha":345,"x_min":65,"x_max":275,"o":"m 174 485 q 115 508 139 485 q 90 571 90 532 q 115 635 90 611 q 174 659 139 659 q 231 635 207 659 q 256 571 256 611 q 231 508 256 532 q 174 485 207 485 m 65 -170 q 157 -100 123 -143 q 190 0 190 -57 q 176 -1 186 -1 q 119 19 143 -1 q 94 78 94 39 q 119 137 94 115 q 179 158 144 158 q 249 122 223 158 q 275 24 275 86 q 226 -133 275 -66 q 93 -236 178 -200 l 65 -170 z "},"<":{"ha":690,"x_min":47,"x_max":643,"o":"m 47 507 l 643 741 l 643 642 l 349 533 l 163 464 l 163 458 l 349 389 l 643 281 l 643 182 l 47 415 l 47 507 z "},"=":{"ha":690,"x_min":47,"x_max":643,"o":"m 47 650 l 643 650 l 643 564 l 47 564 l 47 650 m 47 353 l 643 353 l 643 267 l 47 267 l 47 353 z "},">":{"ha":690,"x_min":47,"x_max":643,"o":"m 643 415 l 47 182 l 47 281 l 340 389 l 526 458 l 526 464 l 340 533 l 47 642 l 47 741 l 643 507 l 643 415 z "},"?":{"ha":590,"x_min":52,"x_max":523,"o":"m 222 275 q 225 373 214 329 q 258 453 237 416 q 306 522 279 490 q 356 585 333 554 q 396 649 380 616 q 412 718 412 681 q 378 813 412 774 q 277 852 344 852 q 190 831 231 852 q 117 772 149 810 l 52 832 q 154 915 97 882 q 286 947 210 947 q 458 888 394 947 q 523 725 523 829 q 506 642 523 679 q 465 571 490 604 q 414 505 441 538 q 364 437 387 472 q 329 363 341 403 q 321 275 316 323 l 222 275 m 193 69 q 216 134 193 110 q 275 158 239 158 q 334 134 309 158 q 358 69 358 110 q 334 7 358 32 q 275 -17 309 -17 q 216 7 239 -17 q 193 69 193 32 z "},"@":{"ha":1176,"x_min":71,"x_max":1105,"o":"m 71 282 q 117 535 71 421 q 243 729 163 648 q 428 853 323 810 q 650 897 533 897 q 839 864 755 897 q 982 770 923 831 q 1074 625 1042 710 q 1105 437 1105 541 q 1080 277 1105 346 q 1014 162 1054 208 q 924 92 973 115 q 827 68 875 68 q 731 94 770 68 q 684 174 691 121 l 682 174 q 603 106 647 134 q 512 79 558 79 q 394 129 441 79 q 346 275 346 179 q 365 388 346 330 q 418 492 383 446 q 502 568 452 539 q 612 597 551 597 q 676 582 648 597 q 724 530 704 566 l 726 530 l 741 586 l 818 586 l 764 309 q 839 146 722 146 q 905 165 872 146 q 964 221 937 184 q 1008 312 991 258 q 1025 433 1025 366 q 1000 588 1025 517 q 927 711 976 660 q 807 791 879 762 q 640 821 734 821 q 459 783 547 821 q 304 675 372 745 q 195 507 236 606 q 154 286 154 408 q 185 105 154 184 q 272 -28 216 26 q 403 -111 328 -82 q 568 -139 479 -139 q 688 -122 631 -139 q 793 -77 745 -104 l 823 -144 q 559 -215 705 -215 q 368 -183 456 -215 q 213 -88 279 -151 q 109 68 147 -25 q 71 282 71 161 m 437 282 q 465 186 437 215 q 534 157 493 157 q 595 176 564 157 q 662 239 626 196 l 703 460 q 662 505 683 492 q 614 518 642 518 q 539 496 572 518 q 484 439 507 473 q 449 362 460 404 q 437 282 437 321 z "},"A":{"ha":755,"x_min":4,"x_max":751,"o":"m 513 371 l 469 510 q 422 662 444 586 q 378 817 400 737 l 372 817 q 329 662 351 737 q 282 510 307 586 l 239 371 l 513 371 m 542 278 l 210 278 l 122 0 l 4 0 l 313 911 l 443 911 l 751 0 l 628 0 l 542 278 z "},"B":{"ha":817,"x_min":125,"x_max":761,"o":"m 125 911 l 395 911 q 523 899 465 911 q 622 860 581 886 q 685 791 663 833 q 708 689 708 749 q 669 566 708 621 q 550 490 630 511 l 550 485 q 705 415 650 469 q 761 267 761 361 q 736 150 761 200 q 665 66 711 100 q 555 17 619 33 q 415 0 492 0 l 125 0 l 125 911 m 375 522 q 544 563 493 522 q 594 679 594 603 q 541 787 594 754 q 380 819 488 819 l 240 819 l 240 522 l 375 522 m 398 92 q 582 135 517 92 q 647 272 647 179 q 583 396 647 357 q 398 436 519 436 l 240 436 l 240 92 l 398 92 z "},"C":{"ha":793,"x_min":72,"x_max":748,"o":"m 72 456 q 102 653 72 566 q 187 802 133 741 q 316 895 241 863 q 477 928 390 928 q 623 894 561 928 q 726 815 686 860 l 661 742 q 581 804 625 781 q 479 827 537 827 q 361 801 414 827 q 271 727 308 775 q 212 611 233 679 q 191 458 191 543 q 212 303 191 372 q 268 186 232 235 q 356 111 304 138 q 473 85 408 85 q 589 111 540 85 q 683 186 639 138 l 748 115 q 626 18 694 53 q 471 -17 558 -17 q 312 15 385 -17 q 185 108 239 47 q 102 256 132 168 q 72 456 72 345 z "},"D":{"ha":854,"x_min":125,"x_max":783,"o":"m 125 911 l 353 911 q 673 794 564 911 q 783 460 783 677 q 755 266 783 351 q 673 121 728 180 q 540 31 619 62 q 358 0 461 0 l 125 0 l 125 911 m 345 94 q 584 190 504 94 q 664 460 664 286 q 584 725 664 633 q 345 817 504 817 l 240 817 l 240 94 l 345 94 z "},"E":{"ha":732,"x_min":125,"x_max":664,"o":"m 125 911 l 650 911 l 650 814 l 240 814 l 240 528 l 586 528 l 586 429 l 240 429 l 240 98 l 664 98 l 664 0 l 125 0 l 125 911 z "},"F":{"ha":686,"x_min":125,"x_max":650,"o":"m 125 911 l 650 911 l 650 814 l 240 814 l 240 505 l 587 505 l 587 408 l 240 408 l 240 0 l 125 0 l 125 911 z "},"G":{"ha":857,"x_min":72,"x_max":764,"o":"m 72 456 q 103 653 72 566 q 191 802 134 741 q 323 895 247 863 q 491 928 399 928 q 649 892 586 928 q 753 815 712 857 l 687 742 q 607 802 652 778 q 493 827 562 827 q 368 801 423 827 q 273 727 312 775 q 213 611 235 679 q 191 458 191 543 q 212 303 191 372 q 270 186 232 235 q 364 111 308 138 q 494 85 420 85 q 586 99 543 85 q 658 139 630 114 l 658 376 l 465 376 l 465 472 l 764 472 l 764 89 q 646 13 719 43 q 481 -17 573 -17 q 316 15 391 -17 q 187 108 241 47 q 102 256 133 168 q 72 456 72 345 z "},"H":{"ha":905,"x_min":125,"x_max":781,"o":"m 125 911 l 240 911 l 240 529 l 664 529 l 664 911 l 781 911 l 781 0 l 664 0 l 664 429 l 240 429 l 240 0 l 125 0 l 125 911 z "},"I":{"ha":365,"x_min":125,"x_max":240,"o":"m 125 911 l 240 911 l 240 0 l 125 0 l 125 911 z "},"J":{"ha":667,"x_min":43,"x_max":545,"o":"m 126 187 q 196 109 157 134 q 283 85 235 85 q 393 130 357 85 q 429 279 429 175 l 429 911 l 545 911 l 545 268 q 531 158 545 210 q 486 67 516 106 q 409 5 456 28 q 294 -17 361 -17 q 43 129 123 -17 l 126 187 z "},"K":{"ha":804,"x_min":125,"x_max":798,"o":"m 125 911 l 240 911 l 240 454 l 244 454 l 623 911 l 754 911 l 469 564 l 798 0 l 669 0 l 397 473 l 240 289 l 240 0 l 125 0 l 125 911 z "},"L":{"ha":675,"x_min":125,"x_max":639,"o":"m 125 911 l 240 911 l 240 98 l 639 98 l 639 0 l 125 0 l 125 911 z "},"M":{"ha":1009,"x_min":125,"x_max":884,"o":"m 125 911 l 261 911 l 437 422 l 504 236 l 509 236 l 574 422 l 749 911 l 884 911 l 884 0 l 774 0 l 774 501 q 780 636 774 562 q 790 771 785 710 l 785 771 l 711 568 l 536 92 l 471 92 l 294 568 l 222 771 l 216 771 q 226 636 220 710 q 232 501 232 562 l 232 0 l 125 0 l 125 911 z "},"N":{"ha":899,"x_min":125,"x_max":773,"o":"m 125 911 l 244 911 l 574 339 l 672 150 l 677 150 q 669 294 673 220 q 664 440 664 368 l 664 911 l 773 911 l 773 0 l 654 0 l 323 574 l 224 761 l 219 761 q 230 620 224 692 q 235 476 235 549 l 235 0 l 125 0 l 125 911 z "},"O":{"ha":922,"x_min":72,"x_max":851,"o":"m 460 -17 q 303 17 374 -17 q 180 112 232 50 q 100 262 129 174 q 72 460 72 350 q 100 656 72 570 q 180 804 129 743 q 303 896 232 864 q 460 928 374 928 q 618 895 547 928 q 742 802 690 863 q 823 655 794 742 q 851 460 851 568 q 823 262 851 350 q 742 112 794 174 q 618 17 690 50 q 460 -17 547 -17 m 460 85 q 571 111 522 85 q 656 187 621 138 q 711 305 691 236 q 730 460 730 374 q 711 613 730 545 q 656 728 691 681 q 571 801 621 775 q 460 827 522 827 q 350 801 399 827 q 266 728 301 775 q 211 613 230 681 q 191 460 191 545 q 211 305 191 374 q 266 187 230 236 q 350 111 301 138 q 460 85 399 85 z "},"P":{"ha":800,"x_min":125,"x_max":740,"o":"m 125 911 l 404 911 q 542 897 479 911 q 648 852 604 884 q 716 769 692 821 q 740 643 740 718 q 716 518 740 571 q 647 431 692 465 q 541 378 603 396 q 404 361 479 361 l 240 361 l 240 0 l 125 0 l 125 911 m 390 456 q 567 501 509 456 q 625 643 625 546 q 566 780 625 742 q 390 818 508 818 l 240 818 l 240 456 l 390 456 z "},"Q":{"ha":922,"x_min":72,"x_max":871,"o":"m 191 460 q 211 302 191 372 q 266 182 230 232 q 350 106 301 132 q 460 79 399 79 q 571 106 522 79 q 656 182 621 132 q 711 302 691 232 q 730 460 730 372 q 711 613 730 545 q 656 728 691 681 q 571 801 621 775 q 460 827 522 827 q 350 801 399 827 q 266 728 301 775 q 211 613 230 681 q 191 460 191 545 m 871 -207 q 815 -221 850 -214 q 740 -228 780 -228 q 529 -168 614 -228 q 404 -12 444 -107 q 268 35 329 -3 q 163 133 207 72 q 96 277 119 195 q 72 460 72 359 q 100 656 72 570 q 180 804 129 743 q 303 896 232 864 q 460 928 374 928 q 618 895 547 928 q 742 802 690 863 q 823 655 794 742 q 851 460 851 568 q 828 280 851 361 q 763 138 805 199 q 661 40 720 78 q 529 -11 601 1 q 619 -101 561 -72 q 753 -131 677 -131 q 806 -126 783 -131 q 848 -117 829 -122 l 871 -207 z "},"R":{"ha":806,"x_min":125,"x_max":755,"o":"m 240 479 l 393 479 q 557 523 500 479 q 614 656 614 567 q 557 782 614 746 q 393 818 500 818 l 240 818 l 240 479 m 625 0 l 406 385 l 240 385 l 240 0 l 125 0 l 125 911 l 410 911 q 538 898 479 911 q 639 854 597 885 q 705 775 682 823 q 729 656 729 726 q 673 485 729 549 q 525 397 618 421 l 755 0 l 625 0 z "},"S":{"ha":741,"x_min":58,"x_max":688,"o":"m 127 199 q 242 116 176 147 q 379 85 309 85 q 519 126 469 85 q 570 233 570 167 q 558 292 570 268 q 526 334 546 317 q 478 365 505 351 q 418 395 450 379 l 288 452 q 222 485 256 465 q 163 532 189 504 q 120 598 136 559 q 103 686 103 636 q 124 782 103 737 q 184 859 146 827 q 274 910 222 892 q 389 928 326 928 q 540 897 471 928 q 659 815 610 865 l 596 741 q 504 804 554 781 q 389 827 453 827 q 266 791 313 827 q 220 693 220 755 q 233 637 220 660 q 268 596 245 614 q 317 566 290 579 q 371 542 343 553 l 500 486 q 574 448 539 469 q 633 398 608 427 q 673 331 659 370 q 688 243 688 293 q 666 142 688 189 q 604 59 644 94 q 507 3 564 24 q 378 -17 450 -17 q 200 19 282 -17 q 58 118 118 56 l 127 199 z "},"T":{"ha":744,"x_min":39,"x_max":705,"o":"m 314 814 l 39 814 l 39 911 l 705 911 l 705 814 l 431 814 l 431 0 l 314 0 l 314 814 z "},"U":{"ha":895,"x_min":121,"x_max":775,"o":"m 121 911 l 236 911 l 236 374 q 253 236 236 292 q 298 147 269 180 q 365 99 326 114 q 448 85 404 85 q 533 99 494 85 q 602 147 572 114 q 647 236 631 180 q 664 374 664 292 l 664 911 l 775 911 l 775 376 q 750 192 775 267 q 681 70 725 117 q 578 3 637 24 q 448 -17 518 -17 q 319 3 379 -17 q 215 70 258 24 q 146 192 171 117 q 121 376 121 267 l 121 911 z "},"V":{"ha":715,"x_min":0,"x_max":715,"o":"m 0 911 l 123 911 l 269 419 q 313 268 294 338 q 358 118 332 199 l 364 118 q 408 268 389 199 q 452 419 428 338 l 597 911 l 715 911 l 427 0 l 292 0 l 0 911 z "},"W":{"ha":1091,"x_min":32,"x_max":1058,"o":"m 32 911 l 151 911 l 247 415 q 274 268 260 340 q 300 121 288 196 l 305 121 q 337 269 321 196 q 370 415 354 342 l 496 911 l 602 911 l 728 415 q 761 270 745 343 q 794 121 778 196 l 800 121 q 825 269 812 196 q 851 415 838 342 l 947 911 l 1058 911 l 869 0 l 730 0 l 593 549 q 570 652 581 602 q 549 755 559 703 l 543 755 q 520 652 532 703 q 497 549 508 602 l 362 0 l 225 0 l 32 911 z "},"X":{"ha":712,"x_min":20,"x_max":691,"o":"m 286 471 l 39 911 l 166 911 l 290 677 q 324 616 308 646 q 361 546 340 586 l 366 546 q 400 616 386 586 q 431 677 415 646 l 552 911 l 675 911 l 426 465 l 691 0 l 564 0 l 430 245 q 393 315 412 279 q 352 392 374 350 l 347 392 q 309 315 328 350 q 275 245 291 279 l 142 0 l 20 0 l 286 471 z "},"Y":{"ha":661,"x_min":-1,"x_max":663,"o":"m 272 353 l -1 911 l 122 911 l 240 654 q 283 556 262 604 q 328 456 304 507 l 334 456 q 380 556 357 507 q 425 654 404 604 l 542 911 l 663 911 l 389 353 l 389 0 l 272 0 l 272 353 z "},"Z":{"ha":748,"x_min":62,"x_max":690,"o":"m 62 69 l 542 814 l 105 814 l 105 911 l 686 911 l 686 843 l 205 98 l 690 98 l 690 0 l 62 0 l 62 69 z "},"[":{"ha":420,"x_min":130,"x_max":379,"o":"m 130 983 l 379 983 l 379 918 l 216 918 l 216 -146 l 379 -146 l 379 -211 l 130 -211 l 130 983 z "},"\\":{"ha":486,"x_min":19,"x_max":472,"o":"m 19 986 l 101 986 l 472 -222 l 390 -222 l 19 986 z "},"]":{"ha":420,"x_min":43,"x_max":290,"o":"m 204 -146 l 204 918 l 43 918 l 43 983 l 290 983 l 290 -211 l 43 -211 l 43 -146 l 204 -146 z "},"^":{"ha":690,"x_min":83,"x_max":606,"o":"m 294 930 l 395 930 l 606 395 l 507 395 l 416 639 l 348 823 l 342 823 l 273 639 l 182 395 l 83 395 l 294 930 z "},"_":{"ha":694,"x_min":16,"x_max":677,"o":"m 677 -98 l 677 -175 l 16 -175 l 16 -98 l 677 -98 z "},"‘":{"ha":345,"x_min":79,"x_max":259,"o":"m 259 913 q 180 839 206 878 q 154 741 154 800 q 166 742 158 742 q 217 724 194 742 q 240 671 240 705 q 219 615 240 635 q 166 595 198 595 q 102 627 125 595 q 79 720 79 659 q 116 864 79 803 q 226 966 154 925 l 259 913 z "},"a":{"ha":711,"x_min":80,"x_max":609,"o":"m 80 175 q 179 345 80 286 q 495 428 279 404 q 489 490 495 460 q 467 545 483 521 q 425 583 451 568 q 357 597 398 597 q 246 575 296 597 q 155 525 195 553 l 109 604 q 224 663 157 635 q 374 692 292 692 q 553 616 498 692 q 609 414 609 541 l 609 0 l 515 0 l 505 81 l 503 81 q 397 12 454 40 q 279 -17 341 -17 q 136 33 193 -17 q 80 175 80 83 m 193 183 q 227 100 193 125 q 311 75 260 75 q 403 98 359 75 q 495 165 447 121 l 495 353 q 352 327 410 342 q 258 290 294 311 q 208 242 223 269 q 193 183 193 215 z "},"b":{"ha":770,"x_min":113,"x_max":703,"o":"m 113 989 l 227 989 l 227 720 l 224 597 q 324 665 270 637 q 435 692 378 692 q 551 667 500 692 q 635 598 601 643 q 686 490 669 553 q 703 349 703 427 q 680 194 703 262 q 616 79 656 126 q 523 7 576 32 q 412 -17 470 -17 q 314 5 365 -17 q 219 66 263 26 l 215 66 l 205 0 l 113 0 l 113 989 m 227 150 q 315 95 271 111 q 393 79 359 79 q 470 98 434 79 q 531 151 505 117 q 571 235 556 184 q 585 347 585 285 q 576 449 585 403 q 545 527 566 494 q 489 578 523 559 q 408 596 455 596 q 227 504 326 596 l 227 150 z "},"c":{"ha":633,"x_min":64,"x_max":600,"o":"m 64 336 q 90 487 64 421 q 161 598 117 553 q 264 668 205 644 q 389 692 323 692 q 504 667 456 692 q 586 611 551 643 l 529 538 q 466 581 498 564 q 393 597 433 597 q 308 578 347 597 q 241 525 269 559 q 198 443 214 490 q 182 336 182 395 q 197 231 182 278 q 239 149 212 183 q 306 97 267 115 q 390 78 345 78 q 478 98 439 78 q 549 146 518 118 l 600 71 q 498 7 554 31 q 380 -17 441 -17 q 256 7 314 -17 q 155 76 197 31 q 88 187 113 121 q 64 336 64 253 z "},"d":{"ha":770,"x_min":65,"x_max":656,"o":"m 65 336 q 90 484 65 418 q 154 596 114 550 q 247 667 194 642 q 358 692 300 692 q 459 671 416 692 q 547 614 503 650 l 541 729 l 541 989 l 656 989 l 656 0 l 562 0 l 553 79 l 549 79 q 456 12 508 40 q 345 -17 404 -17 q 141 75 216 -17 q 65 336 65 167 m 183 338 q 232 147 183 215 q 370 79 280 79 q 458 102 416 79 q 541 172 500 125 l 541 525 q 459 580 498 564 q 378 596 419 596 q 302 577 337 596 q 240 524 267 558 q 198 443 214 490 q 183 338 183 396 z "},"e":{"ha":688,"x_min":64,"x_max":636,"o":"m 64 336 q 90 485 64 419 q 158 597 115 551 q 254 667 200 643 q 366 692 308 692 q 481 669 431 692 q 566 605 532 647 q 618 505 600 564 q 636 375 636 447 q 632 313 636 338 l 176 313 q 243 139 183 203 q 401 75 304 75 q 491 90 450 75 q 569 127 532 104 l 610 53 q 511 4 565 25 q 387 -17 457 -17 q 260 7 319 -17 q 158 77 201 32 q 89 188 114 122 q 64 336 64 253 m 536 387 q 492 547 536 492 q 370 602 448 602 q 300 587 333 602 q 241 545 268 572 q 198 478 215 518 q 175 387 180 439 l 536 387 z "},"f":{"ha":406,"x_min":41,"x_max":443,"o":"m 418 896 q 341 913 380 913 q 247 782 247 913 l 247 675 l 390 675 l 390 582 l 247 582 l 247 0 l 133 0 l 133 582 l 41 582 l 41 668 l 133 675 l 133 782 q 181 946 133 886 q 330 1006 229 1006 q 391 999 362 1006 q 443 983 419 993 l 418 896 z "},"g":{"ha":700,"x_min":62,"x_max":683,"o":"m 162 -114 q 214 -200 162 -168 q 358 -232 267 -232 q 447 -220 407 -232 q 514 -190 486 -208 q 557 -146 542 -171 q 572 -94 572 -121 q 537 -29 572 -47 q 436 -11 503 -11 l 319 -11 q 277 -9 300 -11 q 232 0 254 -7 q 179 -56 196 -26 q 162 -114 162 -85 m 62 -129 q 89 -47 62 -86 q 161 24 115 -8 l 161 29 q 119 72 136 45 q 101 139 101 98 q 125 214 101 182 q 175 264 149 245 l 175 269 q 115 343 142 297 q 87 452 87 390 q 107 552 87 507 q 162 627 127 596 q 244 675 197 659 q 342 692 290 692 q 394 687 370 692 q 437 675 418 682 l 672 675 l 672 587 l 533 587 q 573 528 557 564 q 589 449 589 492 q 569 351 589 395 q 517 277 550 307 q 438 231 484 248 q 342 214 393 214 q 290 220 317 214 q 240 237 264 227 q 210 203 222 222 q 197 157 197 184 q 222 104 197 125 q 317 83 247 83 l 447 83 q 624 45 565 83 q 683 -78 683 7 q 660 -167 683 -125 q 592 -241 636 -210 q 484 -292 547 -273 q 342 -311 420 -311 q 228 -299 279 -311 q 139 -264 176 -288 q 82 -207 102 -240 q 62 -129 62 -174 m 342 290 q 396 301 371 290 q 442 333 422 313 q 474 384 463 354 q 485 452 485 414 q 443 567 485 526 q 342 608 401 608 q 240 567 282 608 q 199 452 199 526 q 210 384 199 414 q 241 333 220 354 q 287 301 261 313 q 342 290 313 290 z "},"h":{"ha":755,"x_min":113,"x_max":654,"o":"m 113 989 l 227 989 l 227 720 l 223 581 q 324 659 271 627 q 448 692 377 692 q 604 625 555 692 q 654 428 654 558 l 654 0 l 540 0 l 540 412 q 509 551 540 509 q 412 593 479 593 q 319 567 359 593 q 227 489 279 541 l 227 0 l 113 0 l 113 989 z "},"i":{"ha":341,"x_min":93,"x_max":251,"o":"m 172 814 q 116 835 139 814 q 93 888 93 856 q 116 941 93 921 q 172 961 139 961 q 228 941 205 961 q 251 888 251 921 q 228 835 251 856 q 172 814 205 814 m 114 675 l 228 675 l 228 0 l 114 0 l 114 675 z "},"j":{"ha":342,"x_min":-55,"x_max":252,"o":"m 116 675 l 230 675 l 230 -77 q 188 -240 230 -179 q 45 -301 146 -301 q -12 -296 13 -301 q -55 -283 -37 -290 l -31 -197 q -2 -205 -19 -201 q 33 -208 14 -208 q 99 -174 83 -208 q 116 -77 116 -139 l 116 675 m 174 814 q 118 835 141 814 q 95 888 95 856 q 118 941 95 921 q 174 961 141 961 q 229 941 206 961 q 252 888 252 921 q 229 835 252 856 q 174 814 206 814 z "},"k":{"ha":687,"x_min":113,"x_max":674,"o":"m 113 989 l 226 989 l 226 319 l 230 319 l 517 675 l 644 675 l 418 404 l 674 0 l 549 0 l 352 325 l 226 178 l 226 0 l 113 0 l 113 989 z "},"l":{"ha":354,"x_min":113,"x_max":299,"o":"m 113 989 l 227 989 l 227 127 q 237 89 227 100 q 259 78 247 78 q 270 78 264 78 q 284 81 275 78 l 299 -5 q 273 -14 288 -11 q 234 -17 258 -17 q 141 22 169 -17 q 113 136 113 61 l 113 989 z "},"m":{"ha":1151,"x_min":113,"x_max":1045,"o":"m 113 675 l 208 675 l 218 578 l 222 578 q 318 659 266 627 q 431 692 370 692 q 553 658 509 692 q 617 562 597 624 q 724 656 670 621 q 840 692 777 692 q 995 625 944 692 q 1045 428 1045 558 l 1045 0 l 931 0 l 931 412 q 901 551 931 509 q 806 593 870 593 q 637 489 730 593 l 637 0 l 523 0 l 523 412 q 492 551 523 509 q 397 593 462 593 q 227 489 320 593 l 227 0 l 113 0 l 113 675 z "},"n":{"ha":760,"x_min":113,"x_max":654,"o":"m 113 675 l 208 675 l 218 578 l 222 578 q 323 659 270 627 q 448 692 377 692 q 604 625 555 692 q 654 428 654 558 l 654 0 l 540 0 l 540 412 q 509 551 540 509 q 412 593 479 593 q 319 567 359 593 q 227 489 279 541 l 227 0 l 113 0 l 113 675 z "},"o":{"ha":753,"x_min":64,"x_max":689,"o":"m 64 336 q 90 487 64 421 q 158 598 115 553 q 258 668 201 644 q 376 692 314 692 q 495 668 439 692 q 594 598 551 644 q 663 487 637 553 q 689 336 689 421 q 663 187 689 253 q 594 76 637 121 q 495 7 551 31 q 376 -17 439 -17 q 258 7 314 -17 q 158 76 201 31 q 90 187 115 121 q 64 336 64 253 m 182 336 q 196 231 182 278 q 235 149 210 183 q 297 97 261 115 q 376 78 333 78 q 455 97 419 78 q 517 149 492 115 q 557 231 543 183 q 571 336 571 278 q 557 443 571 395 q 517 525 543 490 q 455 578 492 559 q 376 597 419 597 q 297 578 333 597 q 235 525 261 559 q 196 443 210 490 q 182 336 182 395 z "},"p":{"ha":770,"x_min":113,"x_max":703,"o":"m 227 -57 l 227 -285 l 113 -285 l 113 675 l 208 675 l 218 597 l 222 597 q 322 664 267 636 q 437 692 377 692 q 552 667 502 692 q 635 598 602 643 q 686 490 669 553 q 703 347 703 427 q 680 194 703 261 q 616 79 656 126 q 523 7 576 32 q 412 -17 470 -17 q 318 4 365 -17 q 224 61 271 25 l 227 -57 m 227 150 q 316 95 273 111 q 393 79 359 79 q 470 98 434 79 q 531 151 505 117 q 571 235 556 184 q 585 347 585 285 q 576 449 585 403 q 545 527 566 494 q 489 578 523 559 q 408 596 455 596 q 321 572 365 596 q 227 504 277 549 l 227 150 z "},"q":{"ha":764,"x_min":65,"x_max":656,"o":"m 65 336 q 90 484 65 418 q 154 596 114 550 q 247 667 194 642 q 358 692 300 692 q 461 672 416 692 q 551 611 505 652 l 554 611 l 565 675 l 656 675 l 656 -285 l 541 -285 l 541 -45 l 547 75 q 455 10 507 37 q 345 -17 403 -17 q 141 75 216 -17 q 65 336 65 167 m 183 338 q 232 147 183 215 q 370 79 280 79 q 458 102 416 79 q 541 172 500 125 l 541 525 q 459 580 498 564 q 378 596 419 596 q 302 577 337 596 q 240 524 267 558 q 198 443 214 490 q 183 338 183 396 z "},"r":{"ha":481,"x_min":113,"x_max":486,"o":"m 113 675 l 208 675 l 218 553 l 222 553 q 306 654 256 616 q 413 692 355 692 q 486 677 454 692 l 463 578 q 433 586 447 583 q 398 589 419 589 q 308 554 355 589 q 227 433 262 519 l 227 0 l 113 0 l 113 675 z "},"s":{"ha":582,"x_min":39,"x_max":537,"o":"m 96 153 q 187 94 140 117 q 294 72 233 72 q 394 103 361 72 q 427 178 427 134 q 413 223 427 204 q 378 257 399 243 q 329 283 357 272 q 273 306 301 294 q 201 334 237 318 q 136 373 165 350 q 90 427 108 396 q 72 500 72 457 q 88 576 72 541 q 134 637 104 611 q 207 677 163 663 q 304 692 250 692 q 421 669 368 692 q 513 615 475 647 l 460 543 q 387 586 425 570 q 305 603 350 603 q 212 574 241 603 q 182 505 182 545 q 194 465 182 482 q 228 434 207 447 q 275 411 248 421 q 332 389 302 400 q 405 360 368 375 q 471 321 441 345 q 518 265 500 298 q 537 184 537 232 q 521 107 537 143 q 474 43 505 71 q 396 -1 443 16 q 290 -17 350 -17 q 153 9 218 -17 q 39 77 87 36 l 96 153 z "},"t":{"ha":469,"x_min":33,"x_max":451,"o":"m 133 582 l 33 582 l 33 668 l 139 675 l 153 864 l 248 864 l 248 675 l 431 675 l 431 582 l 248 582 l 248 207 q 271 111 248 144 q 353 77 294 77 q 392 82 371 77 q 429 94 412 87 l 451 8 q 391 -9 423 -1 q 326 -17 358 -17 q 235 0 272 -17 q 176 46 199 17 q 143 117 153 75 q 133 208 133 158 l 133 582 z "},"u":{"ha":755,"x_min":104,"x_max":642,"o":"m 104 675 l 219 675 l 219 262 q 249 124 219 167 q 345 82 279 82 q 438 109 398 82 q 528 196 479 136 l 528 675 l 642 675 l 642 0 l 547 0 l 537 106 l 533 106 q 434 17 486 50 q 311 -17 382 -17 q 153 50 202 -17 q 104 248 104 117 l 104 675 z "},"v":{"ha":648,"x_min":16,"x_max":631,"o":"m 16 675 l 134 675 l 262 292 q 293 192 277 241 q 325 93 309 142 l 330 93 q 360 192 345 142 q 391 292 376 241 l 519 675 l 631 675 l 393 0 l 259 0 l 16 675 z "},"w":{"ha":997,"x_min":33,"x_max":964,"o":"m 33 675 l 150 675 l 250 285 q 271 190 261 236 q 290 97 281 144 l 296 97 q 318 191 307 144 q 342 285 329 237 l 446 675 l 557 675 l 663 285 q 687 190 675 236 q 709 97 699 144 l 715 97 q 736 190 726 144 q 757 285 746 236 l 855 675 l 964 675 l 783 0 l 644 0 l 547 363 q 524 458 534 411 q 501 557 514 505 l 496 557 q 474 457 485 505 q 448 361 463 410 l 354 0 l 220 0 l 33 675 z "},"x":{"ha":619,"x_min":19,"x_max":600,"o":"m 240 353 l 36 675 l 159 675 l 250 526 q 281 470 264 498 q 316 414 298 441 l 321 414 q 352 470 337 441 q 383 526 368 498 l 465 675 l 585 675 l 380 340 l 600 0 l 476 0 l 377 157 q 341 218 359 187 q 304 278 323 249 l 298 278 q 263 219 280 249 q 230 157 247 189 l 138 0 l 19 0 l 240 353 z "},"y":{"ha":648,"x_min":16,"x_max":631,"o":"m 68 -186 q 93 -193 79 -189 q 119 -196 106 -196 q 214 -155 178 -196 q 272 -52 251 -114 l 287 -1 l 16 675 l 134 675 l 272 301 q 304 208 287 257 q 337 111 322 158 l 342 111 q 372 207 358 157 q 399 301 386 257 l 520 675 l 631 675 l 377 -56 q 337 -149 359 -106 q 284 -223 315 -192 q 215 -272 254 -254 q 125 -290 176 -290 q 82 -287 101 -290 q 45 -277 62 -283 l 68 -186 z "},"z":{"ha":590,"x_min":43,"x_max":554,"o":"m 43 61 l 398 582 l 81 582 l 81 675 l 543 675 l 543 614 l 187 93 l 554 93 l 554 0 l 43 0 l 43 61 z "},"{":{"ha":420,"x_min":47,"x_max":378,"o":"m 378 -146 l 378 -211 l 316 -211 q 194 -172 234 -211 q 154 -26 154 -134 q 156 45 154 11 q 160 111 158 79 q 164 175 162 143 q 166 241 166 207 q 161 281 166 262 q 142 315 155 300 q 105 340 129 330 q 47 350 81 350 l 47 422 q 105 432 81 422 q 142 456 129 441 q 161 490 155 471 q 166 529 166 510 q 160 661 166 600 q 154 799 154 722 q 194 944 154 905 q 316 983 234 983 l 378 983 l 378 918 l 341 918 q 266 889 284 918 q 247 791 247 860 q 251 669 247 728 q 255 541 255 611 q 236 437 255 472 q 172 389 216 401 l 172 383 q 236 335 216 371 q 255 232 255 298 q 251 103 255 161 q 247 -20 247 45 q 266 -117 247 -87 q 341 -146 284 -146 l 378 -146 z "},"|":{"ha":334,"x_min":127,"x_max":208,"o":"m 127 1042 l 208 1042 l 208 -347 l 127 -347 l 127 1042 z "},"}":{"ha":420,"x_min":43,"x_max":373,"o":"m 79 -146 q 155 -117 136 -146 q 174 -20 174 -87 q 170 103 174 45 q 166 232 166 161 q 185 335 166 298 q 248 383 204 371 l 248 389 q 185 437 204 401 q 166 541 166 472 q 170 669 166 611 q 174 791 174 728 q 155 889 174 860 q 79 918 136 918 l 43 918 l 43 983 l 104 983 q 176 974 146 983 q 227 944 207 965 q 257 888 247 924 q 267 799 267 852 q 260 661 267 722 q 254 529 254 600 q 279 456 254 489 q 373 422 304 424 l 373 350 q 316 340 338 350 q 279 315 293 330 q 259 281 265 300 q 254 241 254 262 q 256 175 254 207 q 260 111 258 143 q 264 45 262 79 q 267 -26 267 11 q 257 -116 267 -81 q 227 -172 247 -151 q 176 -202 207 -193 q 104 -211 146 -211 l 43 -211 l 43 -146 l 79 -146 z "},"~":{"ha":690,"x_min":50,"x_max":640,"o":"m 50 435 q 133 530 87 501 q 223 559 178 559 q 297 542 264 559 q 359 502 330 524 q 413 461 387 479 q 469 443 439 443 q 526 463 500 443 q 576 528 552 484 l 640 481 q 556 385 602 414 q 466 357 511 357 q 392 375 425 357 q 331 415 359 393 q 276 455 302 437 q 220 473 250 473 q 163 453 190 473 q 113 389 137 433 l 50 435 z "},"¢":{"ha":690,"x_min":84,"x_max":630,"o":"m 363 663 q 242 583 287 644 q 198 431 198 522 q 241 276 198 338 q 363 197 284 215 l 363 663 m 630 184 q 539 125 589 149 q 435 97 490 102 l 435 -46 l 363 -46 l 363 98 q 249 131 300 106 q 161 198 198 157 q 104 298 124 240 q 84 431 84 357 q 105 559 84 503 q 164 658 127 616 q 254 726 202 700 q 363 760 305 751 l 363 907 l 435 907 l 435 764 q 541 738 496 761 q 617 684 585 714 l 562 611 q 503 651 534 636 q 435 669 471 667 l 435 192 q 516 213 480 195 q 580 257 552 232 l 630 184 z "},"£":{"ha":690,"x_min":73,"x_max":629,"o":"m 629 98 l 629 0 l 75 0 l 75 69 q 183 174 145 109 q 222 319 222 240 q 219 358 222 339 q 212 396 216 376 l 73 396 l 73 468 l 166 473 l 191 473 q 166 561 178 518 q 154 647 154 603 q 173 753 154 705 q 225 833 191 800 q 307 885 259 867 q 412 903 354 903 q 539 873 487 903 q 627 799 591 843 l 561 733 q 501 786 534 765 q 420 807 468 807 q 306 762 345 807 q 267 644 267 717 q 277 559 267 600 q 300 473 287 518 l 520 473 l 520 396 l 317 396 q 323 358 321 376 q 325 318 325 339 q 302 196 325 244 q 239 104 280 147 l 239 98 l 629 98 z "},"⁄":{"ha":119,"x_min":-232,"x_max":349,"o":"m -232 -17 l 271 928 l 349 928 l -154 -17 l -232 -17 z "},"¥":{"ha":690,"x_min":32,"x_max":659,"o":"m 151 886 l 260 648 q 301 556 281 603 q 343 461 321 510 l 349 461 q 392 556 372 510 q 433 648 412 603 l 542 886 l 659 886 l 431 441 l 628 441 l 628 376 l 401 376 l 401 286 l 628 286 l 628 220 l 401 220 l 401 0 l 288 0 l 288 220 l 62 220 l 62 286 l 288 286 l 288 376 l 62 376 l 62 441 l 258 441 l 32 886 l 151 886 z "},"¤":{"ha":690,"x_min":36,"x_max":654,"o":"m 36 205 l 125 296 q 88 368 101 328 q 75 457 75 408 q 88 546 75 505 q 125 619 101 587 l 36 711 l 97 774 l 191 676 q 346 728 258 728 q 426 714 386 728 q 498 676 467 701 l 593 774 l 654 711 l 564 619 q 601 546 587 587 q 615 457 615 505 q 601 368 615 408 q 564 296 587 328 l 654 205 l 593 143 l 498 239 q 426 199 467 212 q 346 186 386 186 q 191 239 257 186 l 97 143 l 36 205 m 180 457 q 194 381 180 415 q 229 322 207 347 q 282 284 251 297 q 346 271 313 271 q 409 284 379 271 q 461 322 439 297 q 496 381 483 347 q 509 457 509 415 q 496 533 509 498 q 461 592 483 567 q 409 630 439 616 q 346 643 379 643 q 282 630 313 643 q 229 592 251 616 q 194 533 207 567 q 180 457 180 498 z "},"'":{"ha":345,"x_min":111,"x_max":233,"o":"m 115 831 l 111 958 l 233 958 l 229 831 l 206 599 l 137 599 l 115 831 z "},"“":{"ha":591,"x_min":79,"x_max":504,"o":"m 259 913 q 180 839 206 878 q 154 741 154 800 q 166 742 158 742 q 217 724 194 742 q 240 671 240 705 q 219 615 240 635 q 166 595 198 595 q 102 627 125 595 q 79 720 79 659 q 116 864 79 803 q 226 966 154 925 l 259 913 m 504 913 q 425 839 451 878 q 398 741 398 800 q 410 742 402 742 q 462 724 439 742 q 484 671 484 705 q 464 615 484 635 q 410 595 443 595 q 346 627 369 595 q 323 720 323 659 q 360 864 323 803 q 472 966 398 925 l 504 913 z "},"–":{"ha":667,"x_min":56,"x_max":609,"o":"m 56 389 l 609 389 l 609 310 l 56 310 l 56 389 z "},"¶":{"ha":777,"x_min":56,"x_max":644,"o":"m 527 911 l 644 911 l 644 -111 l 527 -111 l 527 911 m 406 314 q 267 331 332 314 q 156 386 202 349 q 83 479 109 422 q 56 615 56 536 q 81 753 56 697 q 152 845 106 810 q 258 896 197 880 q 391 911 319 911 l 452 911 l 452 314 l 406 314 z "},"•":{"ha":422,"x_min":55,"x_max":366,"o":"m 210 199 q 151 211 178 199 q 101 244 123 222 q 67 297 80 267 q 55 366 55 328 q 67 434 55 403 q 101 487 80 465 q 151 521 123 509 q 210 533 178 533 q 269 521 241 533 q 319 487 298 509 q 354 434 341 465 q 366 366 366 403 q 354 297 366 328 q 319 244 341 267 q 269 211 298 222 q 210 199 241 199 z "},"‚":{"ha":345,"x_min":87,"x_max":268,"o":"m 87 -149 q 166 -74 140 -113 q 192 25 192 -36 q 180 24 187 24 q 129 42 151 24 q 107 93 107 60 q 128 150 107 129 q 180 171 149 171 q 244 138 221 171 q 268 45 268 106 q 230 -99 268 -39 q 119 -201 192 -160 l 87 -149 z "},"„":{"ha":591,"x_min":87,"x_max":513,"o":"m 87 -149 q 166 -74 140 -113 q 192 25 192 -36 q 180 24 187 24 q 129 42 151 24 q 107 93 107 60 q 128 150 107 129 q 180 171 149 171 q 244 138 221 171 q 268 45 268 106 q 230 -99 268 -39 q 119 -201 192 -160 l 87 -149 m 332 -149 q 411 -74 385 -113 q 437 25 437 -36 q 425 24 433 24 q 374 42 396 24 q 351 93 351 60 q 372 150 351 129 q 425 171 393 171 q 490 138 467 171 q 513 45 513 106 q 366 -201 513 -117 l 332 -149 z "},"”":{"ha":591,"x_min":87,"x_max":513,"o":"m 87 652 q 166 725 140 686 q 192 825 192 764 q 180 823 187 823 q 129 842 151 823 q 107 893 107 860 q 128 950 107 929 q 180 971 149 971 q 244 938 221 971 q 268 844 268 905 q 230 701 268 761 q 119 599 192 640 l 87 652 m 332 652 q 411 725 385 686 q 437 825 437 764 q 425 823 433 823 q 374 842 396 823 q 351 893 351 860 q 372 950 351 929 q 425 971 393 971 q 490 938 467 971 q 513 844 513 905 q 475 701 513 761 q 366 599 437 640 l 332 652 z "},"…":{"ha":1316,"x_min":130,"x_max":1226,"o":"m 130 69 q 155 134 130 110 q 214 158 179 158 q 271 134 247 158 q 296 69 296 110 q 271 7 296 32 q 214 -17 247 -17 q 155 7 179 -17 q 130 69 130 32 m 595 69 q 620 134 595 110 q 679 158 644 158 q 736 134 712 158 q 761 69 761 110 q 736 7 761 32 q 679 -17 712 -17 q 620 7 644 -17 q 595 69 595 32 m 1061 69 q 1085 134 1061 110 q 1144 158 1109 158 q 1202 134 1177 158 q 1226 69 1226 110 q 1202 7 1226 32 q 1144 -17 1177 -17 q 1085 7 1109 -17 q 1061 69 1061 32 z "},"‰":{"ha":1658,"x_min":48,"x_max":1611,"o":"m 277 -17 l 780 928 l 858 928 l 355 -17 l 277 -17 m 255 353 q 104 428 161 353 q 48 642 48 503 q 104 854 48 781 q 255 928 161 928 q 405 854 348 928 q 462 642 462 781 q 405 428 462 503 q 255 353 348 353 m 255 424 q 341 478 308 424 q 374 642 374 533 q 341 804 374 751 q 255 857 308 857 q 168 804 201 857 q 134 642 134 751 q 168 478 134 533 q 255 424 201 424 m 886 -17 q 736 58 793 -17 q 679 272 679 134 q 736 484 679 410 q 886 558 793 558 q 1036 484 980 558 q 1093 272 1093 410 q 1036 58 1093 134 q 886 -17 980 -17 m 886 54 q 973 109 940 54 q 1006 272 1006 164 q 973 434 1006 380 q 886 488 940 488 q 800 434 833 488 q 766 272 766 380 q 800 109 766 164 q 886 54 833 54 m 1402 -17 q 1253 58 1310 -17 q 1196 272 1196 134 q 1253 484 1196 410 q 1402 558 1310 558 q 1554 484 1497 558 q 1611 272 1611 410 q 1554 58 1611 134 q 1402 -17 1497 -17 m 1402 54 q 1490 109 1457 54 q 1523 272 1523 164 q 1490 434 1523 380 q 1402 488 1457 488 q 1316 434 1350 488 q 1283 272 1283 380 q 1316 109 1283 164 q 1402 54 1350 54 z "},"`":{"ha":753,"x_min":222,"x_max":466,"o":"m 222 991 l 341 991 l 466 796 l 378 796 l 222 991 z "},"˜":{"ha":753,"x_min":183,"x_max":569,"o":"m 183 804 q 216 909 189 867 q 296 951 244 951 q 344 940 322 951 q 385 916 366 929 q 421 891 404 903 q 454 880 437 880 q 505 951 493 880 l 569 951 q 536 847 564 889 q 456 804 508 804 q 409 815 431 804 q 369 840 387 827 q 333 864 350 852 q 298 875 317 875 q 248 804 258 875 l 183 804 z "},"—":{"ha":1111,"x_min":56,"x_max":1053,"o":"m 56 389 l 1053 389 l 1053 310 l 56 310 l 56 389 z "},"™":{"ha":884,"x_min":4,"x_max":844,"o":"m 431 939 l 534 939 l 599 783 l 636 673 l 642 673 l 679 783 l 741 939 l 844 939 l 844 509 l 765 509 l 765 699 l 774 844 l 768 844 l 669 575 l 607 575 l 507 844 l 501 844 l 511 699 l 511 509 l 431 509 l 431 939 m 142 864 l 4 864 l 4 939 l 363 939 l 363 864 l 225 864 l 225 509 l 142 509 l 142 864 z "},"½":{"ha":1122,"x_min":87,"x_max":1057,"o":"m 205 798 l 87 798 l 87 856 q 163 877 134 864 q 221 911 193 890 l 294 911 l 294 370 l 205 370 l 205 798 m 222 -17 l 725 928 l 803 928 l 300 -17 l 222 -17 m 685 52 q 796 154 747 109 q 876 236 844 199 q 925 306 908 273 q 942 370 942 339 q 914 453 942 422 q 838 484 886 484 q 774 460 803 484 q 721 404 745 437 l 668 453 q 746 529 700 500 q 848 558 793 558 q 980 514 930 558 q 1029 383 1029 469 q 1014 308 1029 345 q 971 235 998 272 q 908 160 945 199 q 828 77 871 121 l 1057 77 l 1057 0 l 685 0 l 685 52 z "},"±":{"ha":690,"x_min":47,"x_max":643,"o":"m 300 422 l 47 422 l 47 509 l 300 509 l 300 772 l 390 772 l 390 509 l 643 509 l 643 422 l 390 422 l 390 176 l 300 176 l 300 422 m 47 86 l 643 86 l 643 0 l 47 0 l 47 86 z "},"¼":{"ha":1084,"x_min":87,"x_max":1040,"o":"m 205 370 l 205 798 l 87 798 l 87 856 q 163 877 134 864 q 221 911 193 890 l 294 911 l 294 370 l 205 370 m 831 928 l 328 -17 l 250 -17 l 753 928 l 831 928 m 879 208 l 879 306 l 886 457 l 880 457 l 811 345 l 725 208 l 879 208 m 1040 144 l 960 144 l 960 0 l 879 0 l 879 144 l 633 144 l 633 191 l 860 542 l 960 542 l 960 208 l 1040 208 l 1040 144 z "},"¦":{"ha":334,"x_min":127,"x_max":208,"o":"m 127 1042 l 208 1042 l 208 404 l 127 404 l 127 1042 m 208 297 l 208 -347 l 127 -347 l 127 297 l 208 297 z "},"°":{"ha":459,"x_min":56,"x_max":404,"o":"m 230 596 q 164 608 195 596 q 109 644 133 621 q 70 699 84 667 q 56 772 56 732 q 70 846 56 814 q 109 903 84 879 q 164 939 133 926 q 230 951 195 951 q 296 939 264 951 q 351 903 327 926 q 390 846 376 879 q 404 772 404 814 q 390 699 404 732 q 351 644 376 667 q 296 608 327 621 q 230 596 264 596 m 230 660 q 305 692 276 660 q 334 772 334 724 q 305 856 334 823 q 230 888 276 888 q 155 856 184 888 q 125 772 125 823 q 155 692 125 724 q 230 660 184 660 z "},"¾":{"ha":1105,"x_min":47,"x_max":1061,"o":"m 69 839 q 146 903 104 879 q 245 928 189 928 q 312 918 280 928 q 368 889 344 908 q 405 844 391 871 q 419 782 419 817 q 393 701 419 733 q 325 650 366 669 q 405 604 370 637 q 440 515 440 570 q 425 448 440 478 q 384 396 410 418 q 322 364 358 375 q 248 353 287 353 q 130 383 182 353 q 47 460 79 414 l 105 504 q 165 445 130 467 q 243 424 201 424 q 319 449 287 424 q 351 521 351 475 q 307 592 351 568 q 183 616 263 616 l 183 673 q 292 701 254 673 q 330 771 330 729 q 304 834 330 811 q 233 857 277 857 q 174 839 202 857 q 122 791 145 821 l 69 839 m 882 928 l 378 -17 l 302 -17 l 805 928 l 882 928 m 899 208 l 899 306 l 907 457 l 901 457 l 831 345 l 745 208 l 899 208 m 1061 144 l 980 144 l 980 0 l 899 0 l 899 144 l 652 144 l 652 191 l 880 542 l 980 542 l 980 208 l 1061 208 l 1061 144 z "},"®":{"ha":587,"x_min":32,"x_max":555,"o":"m 293 443 q 192 463 239 443 q 109 519 144 484 q 53 606 73 555 q 32 717 32 656 q 53 828 32 778 q 109 914 73 878 q 192 970 144 950 q 293 990 239 990 q 395 970 347 990 q 478 914 443 950 q 535 828 514 878 q 555 717 555 778 q 535 606 555 656 q 478 519 514 555 q 395 463 443 484 q 293 443 347 443 m 293 494 q 374 510 336 494 q 440 555 412 526 q 484 626 468 585 q 500 717 500 667 q 484 806 500 765 q 440 877 468 847 q 374 923 412 907 q 293 940 336 940 q 211 923 248 940 q 146 877 174 907 q 103 806 119 847 q 87 717 87 765 q 103 626 87 667 q 146 555 119 585 q 211 510 174 526 q 293 494 248 494 m 193 861 l 298 861 q 375 841 343 861 q 407 771 407 821 q 393 724 407 746 q 355 694 379 703 l 419 579 l 355 579 l 307 676 l 250 676 l 250 579 l 193 579 l 193 861 m 286 721 q 346 768 346 721 q 333 801 346 789 q 289 814 321 814 l 250 814 l 250 721 l 286 721 z "},"−":{"ha":690,"x_min":56,"x_max":634,"o":"m 56 389 l 634 389 l 634 310 l 56 310 l 56 389 z "},"©":{"ha":1033,"x_min":68,"x_max":965,"o":"m 68 449 q 104 639 68 554 q 201 783 140 724 q 344 875 262 843 q 517 907 426 907 q 688 875 607 907 q 831 783 769 843 q 929 639 893 724 q 965 449 965 554 q 929 256 965 342 q 831 111 893 171 q 688 17 769 50 q 517 -16 607 -16 q 344 17 426 -16 q 201 111 262 50 q 104 256 140 171 q 68 449 68 342 m 133 449 q 163 282 133 357 q 246 155 194 208 q 368 72 298 102 q 517 43 437 43 q 665 72 595 43 q 787 155 734 102 q 869 282 839 208 q 900 449 900 357 q 869 613 900 539 q 787 740 839 688 q 665 821 734 793 q 517 850 595 850 q 368 821 437 850 q 246 740 298 793 q 163 613 194 688 q 133 449 133 539 m 275 449 q 296 557 275 509 q 353 640 318 606 q 435 693 389 675 q 532 711 481 711 q 631 688 590 711 q 705 632 672 665 l 656 578 q 600 620 629 606 q 536 635 572 635 q 413 583 460 635 q 366 449 366 530 q 411 303 366 357 q 532 250 456 250 q 610 268 576 250 q 673 311 643 285 l 715 253 q 633 197 676 220 q 528 174 590 174 q 429 192 475 174 q 348 247 383 211 q 294 333 313 282 q 275 449 275 383 z "},"‒":{"ha":690,"x_min":47,"x_max":643,"o":"m 47 501 l 643 501 l 643 415 l 47 415 l 47 501 z "},"⅛":{"ha":1116,"x_min":87,"x_max":1051,"o":"m 205 798 l 87 798 l 87 856 q 163 877 134 864 q 221 911 193 890 l 294 911 l 294 370 l 205 370 l 205 798 m 228 -17 l 730 928 l 808 928 l 306 -17 l 228 -17 m 753 143 q 783 78 753 107 q 861 49 812 49 q 937 76 905 49 q 968 142 968 103 q 956 183 968 167 q 925 213 945 200 q 881 235 905 225 q 828 256 856 244 q 753 143 753 211 m 892 310 q 936 359 922 334 q 950 412 950 385 q 924 470 950 449 q 860 490 897 490 q 799 469 823 490 q 774 414 774 447 q 808 349 774 372 q 892 310 843 325 m 669 135 q 701 224 669 186 q 772 286 732 262 l 772 292 q 714 344 736 315 q 692 415 692 372 q 705 473 692 447 q 741 519 718 500 q 794 548 764 538 q 861 558 825 558 q 983 520 933 558 q 1034 415 1034 482 q 1006 336 1034 368 q 951 285 979 304 l 951 279 q 1024 221 997 256 q 1051 139 1051 187 q 1037 77 1051 106 q 997 28 1022 49 q 936 -5 971 7 q 861 -17 901 -17 q 783 -5 818 -17 q 722 28 747 7 q 683 77 697 49 q 669 135 669 104 z "},"⅜":{"ha":1140,"x_min":48,"x_max":1073,"o":"m 108 504 q 168 445 133 467 q 245 424 202 424 q 322 449 290 424 q 354 521 354 475 q 309 592 354 568 q 186 616 264 616 l 186 673 q 295 701 256 673 q 333 771 333 729 q 306 834 333 811 q 234 857 279 857 q 176 839 203 857 q 125 791 148 821 l 71 839 q 149 903 106 879 q 248 928 191 928 q 314 918 283 928 q 369 889 345 908 q 407 844 393 871 q 420 782 420 817 q 394 701 420 733 q 326 650 368 669 q 407 604 372 637 q 443 515 443 570 q 428 448 443 478 q 386 396 412 418 q 324 364 359 375 q 250 353 288 353 q 132 383 183 353 q 48 460 80 414 l 108 504 m 277 -17 l 780 928 l 858 928 l 355 -17 l 277 -17 m 774 143 q 804 78 774 107 q 883 49 834 49 q 959 76 927 49 q 990 142 990 103 q 978 183 990 167 q 947 213 966 200 q 902 235 927 225 q 850 256 878 244 q 774 143 774 211 m 915 310 q 973 412 973 355 q 947 470 973 449 q 883 490 920 490 q 822 469 847 490 q 797 414 797 447 q 831 349 797 372 q 915 310 865 325 m 691 135 q 722 224 691 186 q 794 286 753 262 l 794 292 q 736 344 758 315 q 713 415 713 372 q 727 473 713 447 q 763 519 740 500 q 816 548 785 538 q 883 558 847 558 q 1006 520 956 558 q 1055 415 1055 482 q 1028 336 1055 368 q 973 285 1001 304 l 973 279 q 1046 221 1019 256 q 1073 139 1073 187 q 1058 77 1073 106 q 1018 28 1044 49 q 958 -5 993 7 q 883 -17 923 -17 q 804 -5 840 -17 q 744 28 769 7 q 705 77 719 49 q 691 135 691 104 z "},"⅝":{"ha":1140,"x_min":48,"x_max":1073,"o":"m 108 504 q 168 445 134 467 q 248 424 201 424 q 328 458 297 424 q 359 543 359 492 q 328 631 359 600 q 245 663 296 663 q 189 650 214 663 q 142 619 165 637 l 100 650 l 125 911 l 420 911 l 420 833 l 198 833 l 183 701 q 224 717 202 711 q 271 722 247 722 q 339 710 307 722 q 396 675 372 699 q 434 617 420 652 q 448 541 448 583 q 433 464 448 498 q 392 405 418 429 q 331 367 366 380 q 254 353 296 353 q 131 383 182 353 q 48 460 80 414 l 108 504 m 277 -17 l 780 928 l 858 928 l 355 -17 l 277 -17 m 774 143 q 804 78 774 107 q 883 49 834 49 q 959 76 927 49 q 990 142 990 103 q 978 183 990 167 q 947 213 966 200 q 902 235 927 225 q 850 256 878 244 q 774 143 774 211 m 915 310 q 973 412 973 355 q 947 470 973 449 q 883 490 920 490 q 822 469 847 490 q 797 414 797 447 q 831 349 797 372 q 915 310 865 325 m 691 135 q 722 224 691 186 q 794 286 753 262 l 794 292 q 736 344 758 315 q 713 415 713 372 q 727 473 713 447 q 763 519 740 500 q 816 548 785 538 q 883 558 847 558 q 1006 520 956 558 q 1055 415 1055 482 q 1028 336 1055 368 q 973 285 1001 304 l 973 279 q 1046 221 1019 256 q 1073 139 1073 187 q 1058 77 1073 106 q 1018 28 1044 49 q 958 -5 993 7 q 883 -17 923 -17 q 804 -5 840 -17 q 744 28 769 7 q 705 77 719 49 q 691 135 691 104 z "},"⅞":{"ha":1112,"x_min":41,"x_max":1046,"o":"m 154 370 q 169 500 158 440 q 200 616 180 561 q 249 726 219 672 q 321 836 279 779 l 41 836 l 41 911 l 420 911 l 420 863 q 339 741 370 799 q 289 624 308 682 q 260 503 269 566 q 247 370 251 440 l 154 370 m 208 -17 l 711 928 l 789 928 l 286 -17 l 208 -17 m 747 143 q 777 78 747 107 q 855 49 806 49 q 931 76 900 49 q 962 142 962 103 q 950 183 962 167 q 919 213 939 200 q 875 235 900 225 q 822 256 850 244 q 747 143 747 211 m 887 310 q 945 412 945 355 q 919 470 945 449 q 855 490 892 490 q 794 469 819 490 q 769 414 769 447 q 803 349 769 372 q 887 310 838 325 m 664 135 q 695 224 664 186 q 766 286 726 262 l 766 292 q 708 344 730 315 q 686 415 686 372 q 699 473 686 447 q 735 519 712 500 q 789 548 758 538 q 855 558 819 558 q 978 520 929 558 q 1027 415 1027 482 q 1000 336 1027 368 q 945 285 973 304 l 945 279 q 1019 221 991 256 q 1046 139 1046 187 q 1031 77 1046 106 q 991 28 1017 49 q 930 -5 965 7 q 855 -17 896 -17 q 777 -5 812 -17 q 716 28 741 7 q 677 77 691 49 q 664 135 664 104 z "},"⅓":{"ha":1116,"x_min":87,"x_max":1050,"o":"m 205 798 l 87 798 l 87 856 q 163 877 134 864 q 221 911 193 890 l 294 911 l 294 370 l 205 370 l 205 798 m 214 -17 l 717 928 l 794 928 l 292 -17 l 214 -17 m 715 135 q 776 76 741 97 q 852 54 811 54 q 929 79 897 54 q 961 151 961 104 q 917 223 961 199 q 793 248 872 248 l 793 304 q 902 332 864 304 q 940 401 940 359 q 913 464 940 440 q 842 488 886 488 q 783 469 811 488 q 732 422 755 450 l 679 469 q 756 534 714 510 q 856 558 799 558 q 922 549 890 558 q 977 520 953 539 q 1016 474 1002 501 q 1029 412 1029 447 q 1002 331 1029 364 q 933 279 975 298 q 1015 234 979 268 q 1050 146 1050 200 q 1035 79 1050 109 q 993 27 1019 49 q 932 -6 966 5 q 859 -17 897 -17 q 740 13 791 -17 q 657 89 688 43 l 715 135 z "},"⅔":{"ha":1140,"x_min":55,"x_max":1072,"o":"m 73 421 q 184 523 136 478 q 264 606 233 568 q 313 676 296 644 q 330 741 330 708 q 302 823 330 793 q 226 852 273 852 q 162 830 191 852 q 109 775 133 808 l 55 823 q 134 899 87 869 q 237 928 181 928 q 368 884 319 928 q 418 753 418 840 q 402 678 418 714 q 360 605 387 642 q 296 529 333 568 q 216 446 259 490 l 445 446 l 445 370 l 73 370 l 73 421 m 283 -17 l 785 928 l 863 928 l 361 -17 l 283 -17 m 737 135 q 797 76 762 97 q 874 54 833 54 q 951 79 919 54 q 983 151 983 104 q 939 223 983 199 q 814 248 895 248 l 814 304 q 924 332 886 304 q 962 401 962 359 q 936 464 962 440 q 865 488 909 488 q 806 469 834 488 q 753 422 777 450 l 701 469 q 778 534 736 510 q 877 558 820 558 q 944 549 912 558 q 999 520 976 539 q 1037 474 1023 501 q 1050 412 1050 447 q 1024 331 1050 364 q 955 279 998 298 q 1037 234 1002 268 q 1072 146 1072 200 q 1056 79 1072 109 q 1015 27 1041 49 q 954 -6 989 5 q 880 -17 919 -17 q 762 13 813 -17 q 679 89 711 43 l 737 135 z "},"€":{"ha":690,"x_min":32,"x_max":682,"o":"m 682 113 q 578 17 636 52 q 443 -17 519 -17 q 327 6 380 -17 q 232 74 273 29 q 162 181 190 118 q 121 326 134 244 l 32 326 l 32 386 l 114 392 q 113 417 113 404 q 113 441 113 429 q 113 464 113 453 q 114 486 113 475 l 32 486 l 32 547 l 121 554 q 163 701 134 636 q 236 810 192 765 q 337 879 279 856 q 463 903 395 903 q 579 871 525 903 q 669 794 633 840 l 602 729 q 537 788 572 765 q 458 811 503 811 q 311 743 367 811 q 237 554 254 675 l 590 554 l 590 486 l 232 486 q 231 467 231 476 q 231 446 231 457 q 231 419 231 432 q 232 393 231 406 l 534 393 l 534 326 l 239 326 q 310 142 257 208 q 450 75 363 75 q 539 100 501 75 q 614 174 578 125 l 682 113 z "},"က":{"ha":1465,"x_min":30,"x_max":1367,"o":"m 1367 348 q 1260 94 1367 204 q 1135 13 1205 40 q 972 -13 1064 -15 q 948 -10 958 -11 q 918 -3 938 -9 q 886 46 886 12 q 936 98 886 98 l 955 94 l 982 87 q 1187 168 1109 87 q 1242 249 1223 200 q 1261 348 1261 298 q 1187 532 1261 459 q 1007 604 1113 604 q 909 586 954 604 q 825 527 863 568 q 775 449 793 498 q 749 346 757 399 q 706 133 749 215 q 577 0 664 52 q 552 -9 564 -9 q 515 8 530 -9 q 501 44 501 24 q 526 87 501 75 q 610 177 580 120 q 647 307 640 234 q 574 522 647 439 q 391 604 502 604 q 211 525 287 604 q 134 338 134 446 q 170 200 134 271 q 269 86 205 130 q 295 48 295 73 q 279 9 295 28 q 237 -9 263 -9 l 214 -1 q 78 151 126 59 q 30 338 30 243 q 135 596 30 487 q 391 706 239 706 q 575 654 492 706 q 696 530 659 602 q 750 602 713 564 q 870 681 805 654 q 1007 708 936 708 q 1259 601 1152 708 q 1367 348 1367 494 z "},"ခ":{"ha":832,"x_min":39,"x_max":724,"o":"m 48 234 q 262 333 144 333 q 488 239 384 333 q 543 159 524 201 q 623 338 623 226 q 546 524 623 451 q 356 597 469 597 q 227 562 275 597 q 158 486 207 548 q 111 455 144 455 q 55 504 55 455 q 79 554 60 529 q 169 644 125 615 q 356 698 250 698 q 615 595 506 698 q 724 343 724 492 q 623 86 724 193 q 374 -21 522 -21 q 219 13 293 -21 q 100 92 146 46 l 66 138 l 39 183 l 48 234 m 154 190 q 177 162 160 179 q 374 82 255 82 q 456 100 418 82 q 409 170 444 140 q 262 224 345 224 q 154 190 177 224 z "},"ဂ":{"ha":858,"x_min":31,"x_max":747,"o":"m 746 342 q 620 1 746 147 q 583 -14 607 -11 q 527 42 534 -14 q 539 75 527 56 q 643 342 643 177 q 571 530 643 463 q 386 597 499 597 q 218 547 269 595 q 151 440 168 499 q 134 342 134 382 q 240 76 134 178 q 254 43 253 62 q 236 3 254 20 q 198 -14 218 -14 q 161 1 184 -14 q 31 342 31 142 q 64 498 31 413 q 167 641 96 584 q 386 701 237 697 q 599 642 511 701 q 717 511 687 584 q 746 342 747 439 z "},"ဃ":{"ha":1462,"x_min":34,"x_max":1360,"o":"m 1360 343 q 1254 91 1360 197 q 1002 -14 1149 -14 q 750 95 864 -14 l 719 129 l 699 165 q 575 40 661 92 q 393 -12 490 -12 q 163 73 271 -12 q 46 286 46 165 q 60 379 46 330 q 121 436 74 414 q 224 484 202 469 q 255 541 247 499 q 231 581 257 559 q 186 594 214 591 q 136 571 142 591 q 118 535 136 551 q 80 519 100 519 q 34 573 34 519 q 184 696 47 694 q 332 625 280 694 q 359 536 359 589 q 288 405 359 459 q 178 353 250 378 q 153 330 159 346 l 144 295 q 222 160 144 231 q 393 88 300 88 q 579 177 505 88 q 648 375 648 258 q 526 604 648 524 q 509 672 492 635 q 578 690 530 707 q 700 564 654 646 q 746 392 746 481 l 749 355 q 825 168 763 231 q 1002 88 901 88 q 1182 167 1103 88 q 1249 294 1233 217 q 1256 343 1256 319 q 1182 522 1256 455 q 1082 588 1146 567 q 934 587 1018 608 q 884 637 884 587 q 915 685 884 669 q 1127 677 1032 715 q 1255 597 1202 649 q 1360 343 1360 492 z "},"င":{"ha":826,"x_min":37,"x_max":724,"o":"m 690 136 q 393 -14 595 -21 q 142 92 248 -14 q 37 345 37 198 q 140 598 37 496 q 393 700 243 700 q 670 575 562 700 q 682 546 679 566 q 663 505 684 526 q 628 494 645 494 q 595 503 610 494 q 393 597 516 597 q 213 526 286 597 q 140 345 140 454 q 215 165 140 241 q 393 89 290 89 q 607 199 546 83 q 685 222 638 250 q 690 136 724 191 z "},"စ":{"ha":846,"x_min":33,"x_max":745,"o":"m 745 342 q 637 92 745 197 q 385 -14 528 -14 q 135 90 250 -14 q 33 345 33 203 q 134 599 33 498 q 387 700 236 700 q 642 595 539 700 q 745 342 745 491 m 642 342 q 568 522 642 443 q 389 601 494 601 q 304 588 342 602 q 423 342 423 498 q 389 201 423 263 q 304 104 354 138 q 385 89 336 89 q 565 168 490 89 q 642 342 642 233 m 320 342 q 295 456 320 417 q 210 528 271 496 q 136 345 136 457 q 210 161 136 239 q 320 342 320 227 z "},"ဆ":{"ha":1439,"x_min":35,"x_max":1337,"o":"m 1337 343 q 1231 91 1337 195 q 977 -14 1126 -14 q 677 160 766 -14 q 553 37 637 87 q 372 -14 468 -14 q 97 112 210 -14 l 66 157 q 40 198 43 182 l 35 216 q 50 260 35 241 q 258 348 149 353 q 359 332 332 347 q 534 155 490 292 q 629 332 629 218 l 629 359 q 553 527 629 459 q 372 594 477 594 q 172 501 244 594 q 102 464 134 464 q 61 505 61 464 q 119 595 61 544 q 205 657 161 634 q 372 696 284 696 q 677 532 581 696 q 977 696 765 699 q 1230 594 1124 699 q 1337 343 1337 490 m 1233 343 q 1158 523 1233 450 q 977 597 1082 597 q 813 539 881 597 q 727 390 745 481 l 724 351 l 727 302 q 811 150 742 212 q 977 88 880 88 q 1156 164 1079 88 q 1233 343 1233 239 m 444 102 q 326 235 420 197 q 254 245 294 245 q 199 237 220 245 q 151 209 178 229 l 176 181 q 372 88 258 88 q 444 102 414 88 z "},"ဇ":{"ha":860,"x_min":33,"x_max":759,"o":"m 759 207 q 705 155 759 155 q 664 180 682 155 l 620 244 q 454 202 555 202 q 335 252 384 208 q 279 367 279 298 l 286 406 q 444 505 322 505 q 515 493 484 505 q 625 407 575 468 l 625 410 q 613 472 628 439 q 574 528 598 505 q 387 600 494 600 q 155 444 231 600 q 136 348 136 399 q 209 165 136 249 q 396 89 287 89 q 520 125 479 89 q 552 138 528 133 q 588 123 574 138 q 607 85 602 109 q 589 47 607 61 q 395 -14 506 -14 q 134 94 236 -14 q 33 345 33 201 q 134 598 33 496 q 387 700 236 700 q 641 604 531 700 q 719 418 719 517 q 689 320 715 352 l 750 233 l 759 207 m 574 321 l 541 357 q 479 397 500 390 q 446 401 469 401 q 380 363 385 402 q 402 324 380 344 q 458 298 425 304 l 501 294 q 574 321 549 301 z "},"ဈ":{"ha":1053,"x_min":33,"x_max":951,"o":"m 949 -318 q 876 -478 949 -414 q 708 -534 805 -534 q 543 -475 612 -534 q 465 -328 463 -410 l 465 -5 q 383 -14 431 -14 q 134 90 248 -14 q 33 343 33 201 q 134 596 33 495 q 386 696 235 696 q 639 592 536 696 q 742 340 742 488 q 634 91 742 197 q 564 36 600 57 l 564 -325 q 612 -395 568 -363 q 708 -431 663 -431 q 805 -399 762 -431 q 849 -318 849 -368 l 849 670 q 897 716 849 716 q 951 670 951 716 l 949 -318 m 640 340 q 566 519 640 441 q 387 598 492 598 q 302 587 333 600 q 421 340 421 495 q 387 200 421 262 q 302 103 353 138 q 383 88 334 88 q 566 165 488 88 q 640 340 640 231 m 319 340 q 294 454 319 415 q 210 526 269 493 q 135 343 135 455 q 210 161 135 237 q 319 340 319 225 z "},"ဉ":{"ha":1359,"x_min":30,"x_max":1330,"o":"m 1330 -403 q 1291 -506 1330 -464 q 1194 -549 1253 -549 l 270 -549 q 91 -491 151 -549 q 30 -309 30 -433 l 30 123 q 85 193 30 195 l 126 190 q 167 166 140 185 q 345 90 227 90 q 523 168 445 90 q 601 346 601 246 q 528 524 601 455 q 345 592 455 592 q 144 500 233 592 q 103 484 126 487 q 56 539 56 484 q 66 572 56 559 q 345 700 175 700 q 601 598 498 700 q 704 346 704 496 q 599 91 704 197 q 345 -16 494 -16 q 209 1 262 -16 q 135 45 172 16 l 135 -381 q 161 -414 136 -393 q 270 -445 184 -445 l 1194 -445 q 1222 -382 1222 -445 q 1273 -325 1222 -325 q 1324 -370 1315 -325 l 1330 -403 z "},"ည":{"ha":1433,"x_min":34,"x_max":1331,"o":"m 1331 -404 q 1292 -506 1331 -464 q 1194 -549 1253 -549 l 273 -549 q 106 -504 172 -554 q 34 -343 41 -453 l 34 121 q 85 191 34 172 q 136 179 109 191 l 151 174 q 349 85 215 85 q 530 165 457 85 q 604 359 604 245 q 530 528 604 463 q 349 593 456 593 q 149 505 216 593 q 86 456 116 456 q 45 506 45 455 q 188 659 45 584 q 349 696 263 696 q 592 607 494 696 q 703 343 703 508 q 748 200 703 269 q 863 104 792 132 q 956 85 911 85 q 1136 163 1060 85 q 1202 292 1186 213 q 1209 343 1209 317 q 1050 576 1209 517 q 936 594 989 601 l 907 587 l 886 582 q 837 636 837 590 q 863 680 837 671 l 900 690 l 927 694 l 963 695 q 1208 597 1095 709 q 1314 343 1314 492 q 1210 89 1314 195 q 956 -17 1105 -17 q 701 90 817 -17 l 671 127 l 654 159 q 528 37 612 87 q 349 -14 444 -14 q 218 3 265 -14 q 139 45 172 20 l 140 -382 q 177 -427 141 -403 q 273 -445 208 -453 l 1194 -445 q 1223 -383 1223 -445 q 1274 -326 1223 -326 q 1325 -371 1316 -326 l 1331 -404 z "},"ဋ":{"ha":917,"x_min":37,"x_max":863,"o":"m 863 -497 q 811 -549 863 -545 l 653 -549 q 604 -497 604 -549 l 604 -333 q 399 -367 517 -367 q 100 -281 237 -367 q 77 -239 77 -268 l 77 -40 q 128 12 77 12 q 166 -1 144 12 q 395 -94 248 -94 q 580 -31 492 -94 l 604 -14 l 604 43 q 395 -25 513 -25 q 131 96 236 -25 q 37 340 37 204 q 140 595 37 494 q 395 696 243 696 q 679 565 559 696 l 663 520 q 597 500 630 487 q 504 566 564 540 q 395 593 445 593 q 213 521 286 593 q 140 340 140 450 q 217 162 140 239 q 395 85 294 85 q 594 174 517 85 l 632 196 l 648 201 q 707 140 699 201 l 707 -40 q 683 -82 707 -60 l 638 -115 q 395 -193 532 -193 q 180 -151 256 -193 l 180 -208 q 335 -256 235 -242 q 399 -260 362 -260 q 580 -224 524 -260 l 623 -196 l 652 -186 q 707 -239 707 -186 l 707 -445 l 811 -445 q 863 -497 859 -445 z "},"ဌ":{"ha":807,"x_min":34,"x_max":705,"o":"m 705 -309 q 648 -485 705 -422 q 467 -549 591 -549 l 182 -547 q 70 -484 111 -547 q 34 -359 34 -433 q 135 -167 34 -222 q 245 -136 186 -136 q 414 -201 340 -136 q 428 -239 427 -214 q 376 -292 428 -292 q 340 -275 356 -292 q 245 -238 301 -238 q 145 -295 175 -238 q 136 -346 136 -313 q 182 -445 136 -445 l 493 -445 q 575 -415 547 -445 q 604 -309 604 -385 l 604 50 q 390 -17 515 -17 q 141 90 245 -17 q 38 343 38 196 q 139 595 38 494 q 390 696 241 696 q 665 570 557 696 q 677 536 672 563 q 629 484 677 484 q 588 500 613 484 q 390 593 510 593 q 212 523 283 593 q 140 343 140 452 q 214 162 140 239 q 390 85 288 85 q 586 173 524 85 l 599 185 q 632 197 611 192 l 648 191 q 703 121 682 191 l 705 -309 z "},"ဍ":{"ha":869,"x_min":36,"x_max":765,"o":"m 765 -558 l 525 -556 l 522 -158 l 453 -187 q 356 -203 406 -203 q 231 -197 265 -203 q 105 -146 156 -183 l 41 -96 l 39 171 q 86 233 39 223 q 129 210 114 228 l 145 175 q 336 94 218 94 q 520 170 447 94 q 594 357 594 246 q 523 532 594 468 q 336 597 452 597 q 149 522 231 597 l 119 493 q 91 480 104 480 q 46 511 68 480 q 43 555 36 545 q 75 591 50 566 q 336 696 177 696 q 593 600 488 694 q 699 357 699 507 q 592 99 699 209 q 336 -10 486 -10 q 141 45 220 -10 l 141 -41 q 351 -101 213 -101 q 418 -94 387 -101 q 528 -41 449 -86 q 581 -22 559 -22 q 630 -81 630 -22 l 630 -455 l 765 -456 l 765 -558 z "},"ဎ":{"ha":848,"x_min":34,"x_max":747,"o":"m 747 354 q 641 93 747 199 q 382 -14 534 -14 q 165 62 269 -14 q 40 254 55 143 q 41 336 34 300 q 72 396 49 372 q 98 425 76 406 l 110 435 l 208 481 q 247 541 239 500 q 238 572 247 555 q 192 591 230 589 q 137 564 137 591 q 86 513 137 513 q 36 565 36 513 q 87 657 43 620 q 186 696 131 695 q 323 625 265 696 q 349 536 349 589 q 277 406 349 463 q 201 363 237 374 l 170 353 l 144 321 l 137 292 l 137 283 q 227 148 150 208 q 382 88 304 88 q 567 166 490 88 q 644 354 644 245 q 516 602 644 527 q 492 642 492 616 q 541 696 492 688 l 564 690 q 747 354 747 579 z "},"ဏ":{"ha":1622,"x_min":34,"x_max":1520,"o":"m 1520 346 q 1364 56 1520 161 q 1258 6 1328 34 q 1168 -9 1218 -9 q 1114 -5 1129 -9 l 1065 9 q 1031 58 1036 16 q 1094 105 1031 105 q 1168 94 1127 94 q 1389 227 1318 94 q 1417 346 1417 284 q 1284 572 1417 507 q 1165 597 1230 597 q 1021 551 1078 597 l 970 513 l 941 470 q 909 347 909 425 q 911 287 909 301 l 936 235 l 942 210 l 942 165 q 896 45 942 95 q 777 -5 849 -5 q 659 44 706 -5 q 612 165 612 94 l 612 212 l 616 235 q 645 347 645 288 q 609 470 645 399 l 581 507 l 534 547 q 385 597 490 597 q 206 529 273 597 q 139 350 139 462 q 243 149 139 227 l 245 144 q 398 95 319 95 q 455 105 430 95 q 522 56 513 105 q 494 12 522 24 l 443 -1 l 400 -7 q 193 61 296 -7 q 73 189 111 113 q 34 350 34 264 q 221 660 34 562 q 383 698 298 698 q 488 684 447 698 q 590 633 528 671 l 628 610 q 776 696 669 696 q 922 610 876 696 l 960 633 q 1166 696 1068 696 q 1455 549 1347 696 q 1520 346 1520 458 m 838 166 l 838 195 q 812 266 819 222 l 804 349 q 838 487 804 416 l 838 538 q 820 581 838 562 q 777 601 802 600 q 717 537 726 604 l 714 484 l 733 439 q 749 347 749 399 q 714 201 749 268 l 717 166 q 777 95 720 95 q 815 115 796 95 q 838 166 833 136 z "},"တ":{"ha":1474,"x_min":31,"x_max":1375,"o":"m 1375 345 q 1266 94 1375 202 q 976 -14 1158 -14 q 920 36 920 -14 q 976 89 920 89 q 1082 105 1033 89 q 1217 196 1166 132 q 1269 345 1269 260 q 1194 527 1269 454 q 1008 600 1118 600 q 829 525 895 600 q 774 434 796 497 q 747 316 762 396 q 641 82 747 178 q 394 -14 535 -14 q 136 92 242 -14 q 31 348 31 197 q 135 600 31 500 q 394 700 239 700 q 702 528 606 700 q 793 633 724 581 q 1008 700 892 700 q 1265 597 1155 700 q 1375 345 1375 495 m 648 362 q 573 530 648 461 q 394 600 497 600 q 207 529 281 600 q 134 348 134 458 q 211 165 134 241 q 394 89 288 89 q 573 172 498 89 q 648 362 648 254 z "},"ထ":{"ha":1455,"x_min":31,"x_max":1356,"o":"m 1356 345 q 1251 92 1356 197 q 998 -14 1145 -14 q 745 91 849 -14 q 692 159 709 127 q 638 92 675 128 q 385 -14 533 -14 q 134 91 237 -14 q 31 345 31 197 q 133 598 31 496 q 385 700 235 700 q 638 595 533 700 q 692 530 675 559 q 745 597 709 562 q 998 700 848 700 q 1251 595 1145 700 q 1356 345 1356 491 m 1254 345 q 1178 522 1254 448 q 998 597 1101 597 q 817 526 889 597 q 745 345 745 454 q 819 164 745 239 q 998 89 892 89 q 1179 165 1103 89 q 1254 345 1254 241 m 642 345 q 565 522 642 448 q 385 597 489 597 q 205 526 277 597 q 134 345 134 454 q 207 164 134 239 q 385 89 280 89 q 566 165 491 89 q 642 345 642 241 z "},"ဒ":{"ha":811,"x_min":63,"x_max":680,"o":"m 680 477 q 610 340 680 388 q 675 172 675 296 q 367 -14 638 -14 q 67 161 134 -14 l 63 179 q 119 227 63 227 q 163 199 151 227 q 244 109 193 132 q 367 88 286 88 q 574 193 549 88 q 543 256 574 225 q 478 294 513 287 l 415 294 q 367 342 367 291 q 415 394 367 394 l 481 394 q 578 476 578 410 l 574 492 q 367 599 551 599 q 239 585 275 599 q 164 495 184 564 q 117 452 157 452 q 63 513 68 452 q 243 688 82 650 q 367 699 296 699 q 556 659 475 699 q 675 515 657 608 l 680 477 z "},"ဓ":{"ha":848,"x_min":33,"x_max":747,"o":"m 747 345 q 642 92 747 197 q 388 -14 536 -14 q 136 91 239 -14 q 33 345 33 197 q 136 598 33 496 q 388 700 238 700 q 642 595 536 700 q 747 345 747 491 m 644 345 q 568 522 644 448 q 388 597 492 597 q 208 526 280 597 q 136 346 136 454 l 143 281 q 161 235 148 257 q 387 338 241 338 q 616 235 536 338 q 644 345 644 279 m 549 153 q 387 236 489 236 q 230 151 285 236 q 388 89 292 89 q 549 153 485 89 z "},"န":{"ha":846,"x_min":51,"x_max":727,"o":"m 727 221 q 656 42 727 103 q 578 8 633 25 q 525 -3 545 1 l 525 -505 q 471 -558 525 -558 q 437 -543 452 -558 q 422 -505 422 -528 l 423 -7 l 354 -11 q 213 3 258 -9 q 96 69 138 24 q 51 204 51 132 q 82 311 51 260 q 149 367 110 349 q 231 385 187 385 q 316 370 274 385 q 397 329 358 355 q 472 242 440 298 q 508 163 494 202 q 526 88 525 116 q 562 100 540 89 q 608 143 592 118 q 627 213 625 168 q 597 283 622 245 q 539 340 572 321 q 484 363 513 356 q 401 385 454 371 q 304 419 345 400 q 237 481 263 437 q 219 549 219 509 q 259 646 219 602 q 395 699 311 699 q 469 690 436 699 q 534 653 503 680 q 587 601 578 613 q 576 550 593 572 q 527 531 559 527 q 469 574 512 531 q 395 593 445 593 q 333 574 352 593 q 322 546 322 557 l 324 533 q 361 500 332 514 q 433 476 390 486 q 517 456 475 467 q 591 425 558 446 q 683 337 647 391 q 727 221 719 283 m 431 80 q 429 112 431 102 q 420 133 427 121 q 381 201 410 160 q 345 242 358 229 q 228 284 286 281 q 170 255 185 281 q 157 224 160 238 q 154 200 154 210 q 178 134 154 165 q 248 99 191 117 q 359 81 304 81 l 431 80 z "},"ပ":{"ha":850,"x_min":31,"x_max":751,"o":"m 751 355 q 645 95 751 203 q 389 -14 539 -14 q 136 96 240 -14 q 31 355 31 206 q 82 545 31 454 q 216 694 134 636 l 243 701 q 296 647 291 701 q 271 607 296 623 q 172 500 210 570 q 134 355 134 430 q 210 168 134 247 q 389 89 286 89 q 573 167 499 89 q 648 355 648 245 q 610 500 648 430 q 511 606 572 570 q 488 644 492 617 q 538 701 487 692 l 560 694 q 700 551 648 644 q 751 355 751 458 z "},"ဖ":{"ha":850,"x_min":33,"x_max":749,"o":"m 138 354 q 211 168 138 248 q 390 88 285 88 q 595 196 524 88 q 488 258 534 214 q 404 469 409 329 q 499 685 401 591 q 534 697 519 700 q 691 558 634 652 q 749 354 749 465 q 644 96 749 205 q 390 -14 539 -14 q 140 96 245 -14 q 35 354 35 205 q 37 427 33 389 q 185 684 53 579 q 259 680 229 719 q 253 609 293 641 q 186 534 213 577 q 138 378 138 459 q 138 354 138 366 m 646 354 q 541 576 646 488 q 506 474 511 546 q 524 370 501 431 q 639 290 564 301 q 646 354 646 323 z "},"ဗ":{"ha":850,"x_min":32,"x_max":749,"o":"m 749 356 q 644 96 749 207 q 389 -14 538 -14 q 137 96 243 -14 q 32 356 32 207 q 207 694 32 581 l 232 701 q 283 640 275 701 q 305 548 262 608 q 389 506 347 506 q 459 543 428 506 q 490 618 490 580 l 486 640 q 534 701 486 701 l 557 694 q 700 554 651 647 q 749 356 749 460 m 646 356 q 574 566 646 479 q 511 452 564 497 q 389 406 457 406 q 196 555 246 406 q 135 356 135 470 q 209 169 135 249 q 389 89 283 89 q 572 167 498 89 q 646 356 646 245 z "},"ဘ":{"ha":1423,"x_min":31,"x_max":1324,"o":"m 1324 340 q 1218 92 1324 203 q 941 -14 1112 -18 l 907 -12 l 875 -3 q 844 43 844 14 q 848 64 844 55 q 862 82 853 73 q 913 89 885 95 l 942 86 q 1145 163 1065 86 q 1213 290 1196 214 q 1219 340 1219 316 q 1143 524 1219 448 q 962 600 1068 600 q 785 522 865 600 q 730 447 749 488 q 711 356 711 407 q 613 89 711 191 q 353 -14 516 -14 q 73 115 184 -14 q 31 195 31 163 q 75 239 31 239 q 153 184 125 239 q 353 89 232 89 q 537 160 463 89 q 610 340 610 231 q 534 522 610 446 q 353 597 457 597 q 157 515 226 597 l 138 491 q 92 457 127 457 q 39 520 39 457 q 57 561 44 547 l 69 572 q 353 700 160 700 q 534 649 448 700 q 659 526 619 597 l 684 570 l 710 596 q 963 700 818 700 q 1217 593 1110 700 q 1324 340 1324 487 z "},"မ":{"ha":850,"x_min":32,"x_max":749,"o":"m 749 356 q 644 96 749 207 q 389 -14 538 -14 q 137 96 243 -14 q 32 356 32 207 q 217 694 32 570 l 243 701 q 296 648 290 701 q 270 607 296 623 q 172 499 210 569 q 135 357 135 429 l 142 304 l 154 262 q 389 378 237 378 q 631 267 549 378 q 646 356 646 304 q 509 607 646 515 q 486 645 490 617 q 536 701 485 692 l 557 694 q 698 550 647 642 q 749 356 749 458 m 572 174 q 389 276 503 276 q 290 250 332 276 q 212 170 248 224 q 389 89 281 89 q 572 174 505 89 z "},"ယ":{"ha":1458,"x_min":33,"x_max":1356,"o":"m 1356 343 q 1250 92 1356 199 q 1000 -15 1143 -15 q 746 92 857 -15 q 716 127 728 111 q 694 163 704 144 q 575 39 656 88 q 391 -11 494 -11 q 137 97 241 -11 q 33 353 33 205 q 81 539 33 448 q 215 688 128 629 l 242 695 q 280 679 264 695 q 296 642 296 663 q 271 602 296 616 q 173 491 208 562 q 138 353 138 420 q 212 167 138 245 q 391 90 286 90 q 570 164 494 90 q 645 341 645 239 l 645 353 q 610 502 645 440 q 520 602 583 550 q 500 642 500 627 q 514 679 500 663 q 551 695 528 695 l 574 688 q 702 557 660 637 q 745 353 745 477 q 764 252 745 303 q 821 166 783 201 q 905 107 857 127 q 1000 87 953 87 q 1179 164 1102 87 q 1233 245 1214 197 q 1253 343 1253 293 q 1179 521 1253 452 q 1090 580 1143 561 q 978 599 1037 599 l 946 595 q 899 609 915 595 q 882 644 882 623 q 904 688 882 681 q 943 698 925 695 q 967 701 960 701 q 1250 594 1143 701 q 1356 343 1356 487 z "},"ရ":{"ha":833,"x_min":25,"x_max":873,"o":"m 732 -445 l 819 -445 q 873 -494 868 -445 q 819 -549 873 -545 l 680 -549 q 629 -495 633 -546 l 629 312 q 557 521 629 446 q 376 595 485 595 q 215 535 292 595 q 127 399 139 475 q 355 322 284 399 q 442 110 442 227 q 376 -16 442 -14 q 127 86 229 -18 q 25 342 25 191 q 128 597 25 495 q 376 699 231 699 q 629 594 524 699 q 709 465 684 545 q 732 312 732 395 l 732 -445 m 347 79 q 335 171 349 129 q 127 300 288 300 q 148 229 127 268 q 274 105 187 143 q 347 79 300 87 z "},"လ":{"ha":1455,"x_min":31,"x_max":1357,"o":"m 1357 340 q 1248 90 1357 199 q 998 -20 1139 -20 q 745 87 855 -20 q 641 316 641 189 q 625 418 641 368 q 478 579 585 536 q 386 599 426 599 q 207 525 277 599 q 136 340 136 450 q 214 154 136 224 q 408 86 290 86 l 455 96 q 508 45 498 96 q 475 -1 508 14 l 450 -7 l 420 -14 l 382 -15 q 137 86 243 -20 q 31 340 31 193 q 136 594 31 487 q 386 701 241 701 q 640 595 533 701 q 736 393 710 526 q 819 162 736 241 q 998 82 903 82 q 1232 241 1152 82 q 1251 340 1251 294 q 1177 520 1251 446 q 981 597 1103 595 l 951 593 l 930 588 q 882 638 882 588 q 925 696 882 687 l 968 701 q 1238 602 1127 698 q 1357 340 1357 499 z "},"ဝ":{"ha":848,"x_min":33,"x_max":747,"o":"m 747 345 q 642 92 747 197 q 388 -14 536 -14 q 136 91 239 -14 q 33 345 33 197 q 136 598 33 496 q 388 700 238 700 q 642 595 536 700 q 747 345 747 491 m 644 345 q 568 522 644 448 q 388 597 492 597 q 208 526 280 597 q 136 345 136 454 q 210 164 136 239 q 388 89 283 89 q 569 165 494 89 q 644 345 644 241 z "},"သ":{"ha":1394,"x_min":33,"x_max":1295,"o":"m 1295 346 q 1188 94 1295 201 q 936 -14 1082 -14 q 681 94 796 -14 l 650 131 l 632 165 q 326 -11 530 -11 q 43 117 136 -11 q 33 144 36 127 q 51 183 33 166 q 88 201 61 196 q 130 178 109 201 q 326 90 201 90 q 503 167 425 90 q 581 363 581 244 q 507 532 581 466 q 326 597 433 597 q 127 504 197 597 q 87 486 111 491 q 33 538 33 486 q 46 574 33 549 q 326 701 157 701 q 561 616 463 701 q 679 398 659 532 l 682 334 q 757 168 684 241 q 936 88 835 88 q 1116 166 1042 88 q 1191 349 1191 243 q 1117 528 1191 455 q 915 596 1044 602 l 880 592 q 817 641 826 592 q 838 688 817 675 l 877 695 l 903 699 l 941 701 q 1191 601 1090 701 q 1295 346 1295 497 z "},"ဟ":{"ha":1463,"x_min":31,"x_max":1364,"o":"m 1364 340 q 1259 87 1364 195 q 972 -18 1153 -20 q 915 -4 932 -14 q 885 36 885 5 q 951 89 885 84 l 982 83 q 1186 162 1105 83 q 1252 290 1236 212 q 1259 340 1259 315 q 1185 524 1259 449 q 1003 598 1111 598 q 823 521 905 598 q 755 400 767 469 q 749 284 755 361 q 736 229 748 271 q 649 81 710 141 q 383 -20 519 -20 q 86 138 178 -20 q 31 340 31 234 q 65 525 31 435 q 160 679 100 615 q 195 694 174 694 q 252 638 245 694 q 237 606 249 629 q 137 340 137 505 q 210 152 137 212 q 385 83 280 83 q 568 151 487 83 q 633 255 611 187 q 649 340 649 304 q 540 606 649 491 q 529 638 532 618 q 585 694 529 694 q 621 680 597 694 l 673 608 l 705 545 l 723 568 l 749 596 q 1003 700 848 700 q 1259 592 1154 697 q 1364 340 1364 486 z "},"ဠ":{"ha":848,"x_min":20,"x_max":733,"o":"m 733 -407 q 696 -506 733 -464 q 600 -549 659 -549 l 298 -549 q 114 -486 176 -549 q 60 -309 60 -422 l 60 -39 q 110 13 60 13 q 146 1 125 13 q 376 -100 255 -100 q 604 -30 507 -100 l 629 -12 l 629 77 q 376 -16 540 -16 q 125 90 231 -16 q 20 343 20 195 q 123 596 20 492 q 376 700 225 700 q 656 573 545 700 q 677 530 674 554 q 626 480 677 480 q 557 518 606 480 q 491 569 503 564 q 376 596 437 596 q 194 526 266 596 q 123 343 123 455 q 200 164 123 241 q 376 87 277 87 q 574 174 514 87 l 603 188 l 640 201 q 706 191 681 201 q 732 141 732 180 l 732 -39 q 708 -81 732 -59 l 664 -113 q 376 -201 545 -201 q 260 -185 309 -201 q 163 -146 203 -172 l 163 -309 l 167 -381 q 184 -415 167 -393 q 226 -444 205 -435 q 298 -452 248 -452 l 600 -452 q 631 -395 631 -446 l 623 -385 q 600 -395 609 -380 l 576 -401 q 520 -343 533 -401 q 618 -286 520 -286 q 729 -372 705 -286 l 733 -407 z "},"အ":{"ha":1328,"x_min":31,"x_max":1228,"o":"m 1228 352 q 1071 58 1228 159 q 967 10 1031 34 q 861 -14 903 -14 q 781 -8 810 -12 q 731 12 752 -5 q 700 64 705 31 q 875 319 700 234 q 984 338 932 342 q 1122 303 1036 334 l 1126 353 q 1116 439 1130 400 q 1082 501 1101 478 q 878 604 1009 604 q 718 551 791 604 l 667 511 l 652 476 q 583 340 652 389 q 646 172 646 297 q 336 -14 613 -14 q 35 161 106 -14 l 31 180 q 84 227 31 217 q 134 199 121 227 q 214 109 164 132 q 336 89 253 89 q 547 193 523 89 q 508 259 547 223 q 441 294 470 296 l 388 294 q 338 345 348 289 q 387 395 338 395 l 447 395 q 551 477 551 410 q 336 600 534 600 q 182 572 223 600 q 136 496 154 555 q 87 453 129 453 q 33 514 37 453 q 336 700 63 700 q 611 597 544 700 l 628 614 q 671 644 640 623 q 875 699 776 700 q 1036 664 958 700 q 1162 554 1114 627 q 1228 352 1228 460 m 1085 208 q 982 236 1025 236 q 918 227 938 236 q 796 90 824 199 q 869 84 833 79 q 1017 140 946 89 q 1085 208 1049 165 z "},"ဢ":{"ha":1463,"x_min":34,"x_max":1360,"o":"m 1360 343 q 1255 89 1360 194 q 1127 9 1202 37 q 915 1 1032 -28 q 884 49 884 18 q 934 99 884 99 q 1082 99 1018 78 q 1182 164 1146 119 q 1256 343 1256 231 q 1249 393 1256 368 q 1182 519 1233 469 q 1002 598 1103 598 q 825 518 901 598 q 749 332 763 455 l 746 294 q 700 123 746 205 q 578 -4 654 41 q 509 14 530 -20 q 526 83 492 51 q 648 311 648 163 q 579 509 648 428 q 393 598 505 598 q 222 527 300 598 q 144 391 144 455 l 153 356 q 178 333 159 340 q 288 281 250 308 q 359 150 359 227 q 332 62 359 98 q 184 -10 280 -7 q 34 113 47 -7 q 80 168 34 168 q 118 152 100 168 q 136 115 136 136 q 186 92 142 95 q 231 106 214 95 q 255 145 257 127 q 224 202 247 187 q 121 250 202 217 q 60 307 74 273 q 46 400 46 356 q 163 613 46 522 q 393 698 271 698 q 575 646 490 698 q 699 522 661 594 l 719 557 l 750 591 q 1002 701 864 701 q 1254 595 1149 701 q 1360 343 1360 490 z "},"ဣ":{"ha":1398,"x_min":33,"x_max":1297,"o":"m 1291 355 q 1259 158 1291 229 q 1176 49 1237 109 q 1114 20 1144 20 q 1050 73 1055 20 q 1062 101 1050 94 l 1101 132 l 1143 173 q 1192 355 1192 222 q 1128 515 1192 441 q 952 595 1064 589 q 774 516 840 595 q 727 435 745 475 q 709 316 703 382 q 700 199 715 229 q 661 177 686 178 l 624 196 q 615 243 615 210 l 615 315 q 551 511 615 431 q 374 596 488 596 q 203 521 273 596 q 134 343 134 446 q 168 211 134 277 q 260 110 203 145 q 283 72 282 98 q 231 17 287 22 l 207 24 q 33 343 33 142 q 131 591 33 488 q 374 694 229 694 q 543 645 464 694 q 662 528 621 595 q 778 648 697 600 q 952 695 859 695 q 1192 595 1093 695 q 1291 355 1291 496 m 1015 -165 q 980 -111 1009 -132 q 869 -77 937 -77 q 764 -111 816 -77 q 738 -140 753 -118 q 722 -191 729 -158 l 721 -285 q 669 -318 714 -324 q 632 -289 642 -314 l 636 -186 q 595 -107 636 -139 q 486 -75 554 -75 q 383 -107 427 -75 q 338 -190 338 -140 q 413 -300 338 -262 q 437 -333 437 -311 q 390 -376 437 -371 l 372 -371 q 283 -294 318 -344 q 248 -190 248 -245 q 323 -47 248 -103 q 486 6 392 6 q 677 -73 615 6 q 705 -45 684 -60 q 871 7 785 7 q 1036 -47 965 7 q 1107 -186 1107 -101 l 1105 -224 q 1103 -285 1104 -250 q 1105 -354 1102 -320 q 1116 -414 1107 -388 q 1142 -449 1124 -439 q 1169 -460 1156 -457 q 1196 -464 1182 -463 q 1224 -465 1209 -465 q 1257 -467 1239 -465 q 1286 -484 1276 -472 q 1296 -510 1297 -496 q 1285 -534 1296 -524 q 1253 -550 1274 -545 q 1201 -549 1231 -548 q 1137 -540 1172 -550 l 1096 -524 q 1070 -507 1082 -516 q 1048 -488 1059 -498 q 1021 -440 1029 -471 q 1012 -373 1014 -409 q 1013 -299 1010 -337 q 1015 -226 1015 -260 q 1015 -216 1015 -226 q 1015 -195 1015 -206 q 1015 -174 1015 -184 q 1015 -165 1015 -164 z "},"ဤ":{"ha":1742,"x_min":35,"x_max":1638,"o":"m 1638 -497 q 1585 -549 1638 -549 q 1535 -497 1535 -549 l 1535 517 q 1442 724 1535 629 l 1174 1000 q 1160 1092 1160 1055 q 1223 1253 1160 1182 q 1396 1319 1299 1319 q 1621 1181 1552 1319 l 1628 1160 q 1571 1109 1628 1109 q 1529 1141 1536 1109 q 1394 1212 1498 1212 q 1274 1140 1314 1212 q 1263 1091 1267 1123 l 1263 1065 l 1271 1035 q 1508 809 1449 880 q 1637 517 1637 657 l 1638 -497 m 1363 -374 l 1358 -431 q 1335 -492 1355 -460 l 1331 -496 q 1206 -548 1291 -549 l 188 -547 q 83 -489 121 -542 q 48 -369 45 -435 l 52 -332 q 395 -133 98 -133 q 915 -206 680 -133 q 952 -254 952 -214 q 884 -304 952 -304 q 650 -252 749 -264 q 395 -238 540 -238 q 151 -347 172 -238 q 164 -416 151 -389 q 188 -445 178 -444 l 1246 -444 q 1259 -374 1263 -422 l 1259 345 q 1186 521 1259 448 q 1007 594 1112 594 q 830 520 906 594 q 753 311 753 446 q 578 -11 753 94 l 555 -18 q 505 32 505 -18 q 527 76 505 64 q 618 181 586 114 q 650 328 650 248 q 575 517 650 439 q 395 594 501 594 q 213 515 287 594 q 140 328 140 436 q 274 76 140 175 q 298 36 297 64 q 284 1 298 15 q 243 -18 269 -14 l 218 -11 q 84 137 134 46 q 35 328 35 229 q 139 587 35 478 q 395 696 244 696 q 582 642 493 696 q 702 519 671 587 q 722 553 705 530 l 752 594 q 875 673 812 648 q 1007 699 938 699 q 1258 594 1152 699 q 1363 345 1363 488 l 1363 -374 z "},"ဥ":{"ha":808,"x_min":34,"x_max":705,"o":"m 35 121 q 90 191 57 191 l 106 197 q 140 185 127 192 l 153 173 q 349 85 215 85 q 525 162 451 85 q 598 343 598 239 q 527 523 598 452 q 349 593 456 593 q 151 500 229 593 q 110 484 125 484 q 62 536 62 484 q 74 570 66 563 q 349 696 181 696 q 599 595 498 696 q 701 343 701 494 q 597 90 701 196 q 349 -17 494 -17 q 135 50 224 -17 l 135 -309 q 163 -415 135 -385 q 245 -445 192 -445 l 557 -445 q 602 -346 602 -445 q 593 -295 602 -313 q 493 -238 564 -238 q 398 -275 437 -238 q 362 -292 382 -292 q 311 -239 311 -292 q 325 -201 312 -214 q 493 -136 399 -136 q 604 -167 552 -136 q 705 -359 705 -222 q 669 -484 705 -433 q 557 -547 627 -547 l 246 -546 q 91 -485 148 -549 q 34 -309 34 -422 l 35 121 z "},"ဦ":{"ha":808,"x_min":34,"x_max":705,"o":"m 35 121 q 90 191 57 191 l 106 197 q 140 185 127 192 l 153 173 q 349 85 215 85 q 525 162 451 85 q 598 343 598 239 q 527 523 598 452 q 349 593 456 593 q 151 500 229 593 q 110 484 125 484 q 62 536 62 484 q 74 570 66 563 q 349 696 181 696 q 599 595 498 696 q 701 343 701 494 q 597 90 701 196 q 349 -17 494 -17 q 135 50 224 -17 l 135 -309 q 163 -415 135 -385 q 245 -445 192 -445 l 557 -445 q 602 -346 602 -445 q 593 -295 602 -313 q 493 -238 564 -238 q 398 -275 437 -238 q 362 -292 382 -292 q 311 -239 311 -292 q 325 -201 312 -214 q 493 -136 399 -136 q 604 -167 552 -136 q 705 -359 705 -222 q 669 -484 705 -433 q 557 -547 627 -547 l 245 -546 q 91 -485 148 -549 q 34 -309 34 -422 l 35 121 m 623 1017 q 540 821 623 905 q 345 737 456 737 q 151 819 232 737 q 70 1017 70 901 q 149 1216 70 1133 q 345 1298 228 1298 q 542 1214 460 1298 q 623 1017 623 1129 m 522 1017 q 470 1143 522 1088 q 345 1198 418 1198 q 220 1145 269 1198 q 170 1017 170 1093 q 180 951 170 965 q 336 1020 247 1020 q 434 999 389 1020 q 507 945 479 979 q 522 1017 522 969 m 458 879 q 341 930 418 925 q 229 883 269 930 q 345 837 284 837 q 458 879 402 837 z "},"ဧ":{"ha":822,"x_min":20,"x_max":727,"o":"m 389 81 q 608 179 523 81 q 509 222 580 217 q 404 204 465 227 q 325 89 336 163 q 389 81 357 81 m 389 597 q 325 589 357 597 q 404 474 336 515 q 509 456 465 452 q 611 499 580 461 q 389 597 523 597 m 242 123 q 307 248 248 193 q 504 316 374 313 q 707 220 630 314 q 708 142 724 190 q 593 36 687 94 q 389 -21 499 -21 q 130 84 240 -21 q 20 338 20 189 q 130 594 20 490 q 389 699 240 699 q 593 642 499 699 q 709 544 686 585 q 709 462 727 495 q 504 363 642 369 q 294 452 372 367 q 245 557 256 507 q 123 340 123 474 q 242 123 123 204 z "},"ဨ":{"ha":849,"x_min":35,"x_max":746,"o":"m 631 408 q 562 518 619 460 q 390 578 486 578 q 213 503 288 578 q 138 323 138 427 l 138 -205 q 213 -385 138 -311 q 390 -459 288 -459 q 571 -386 498 -459 q 644 -205 644 -312 q 694 -157 644 -157 q 746 -205 746 -168 q 644 -460 746 -357 q 390 -563 542 -563 q 140 -458 245 -563 q 35 -205 35 -353 l 35 323 q 140 578 35 473 q 390 684 245 684 q 642 576 538 684 q 730 409 713 502 q 731 315 730 362 q 725 221 731 267 q 703 133 719 176 q 652 52 686 90 q 597 9 628 24 q 533 -7 566 -5 q 467 0 500 -9 q 406 27 434 9 q 356 72 378 45 q 323 130 334 98 q 316 161 317 144 q 316 203 309 180 q 338 246 317 215 l 365 269 l 416 300 q 437 357 439 317 q 424 376 433 369 q 387 390 414 383 l 368 387 q 325 345 316 369 q 294 279 341 295 q 229 312 245 264 q 248 416 218 367 q 330 482 278 466 l 366 491 q 483 459 410 504 q 536 385 518 434 q 494 248 560 315 q 450 214 479 234 l 424 193 l 414 168 q 425 138 415 153 q 452 112 435 123 q 488 95 468 100 q 529 94 508 90 q 569 110 550 97 q 604 147 589 123 q 626 205 619 173 q 634 271 632 237 q 634 340 635 305 q 631 408 632 376 z "},"ဩ":{"ha":1597,"x_min":27,"x_max":1492,"o":"m 1355 1150 q 1236 1194 1298 1194 l 329 1194 q 184 1139 237 1194 q 131 979 131 1084 l 130 -232 q 192 -387 130 -330 q 257 -436 236 -427 q 332 -445 279 -445 l 1016 -445 q 1172 -382 1121 -445 q 1225 -239 1225 -328 l 1225 49 q 1277 98 1225 98 q 1329 49 1329 98 l 1329 -239 q 1310 -357 1329 -308 q 1248 -452 1291 -406 q 1154 -524 1206 -499 q 1016 -549 1098 -549 l 332 -549 q 117 -458 206 -549 q 27 -232 27 -367 l 27 979 q 101 1202 27 1133 q 329 1298 181 1298 l 1236 1298 q 1372 1263 1305 1298 q 1396 1249 1381 1258 l 1355 1150 m 1492 346 q 1385 94 1492 201 q 1133 -14 1278 -14 q 878 94 993 -14 l 847 131 l 829 165 q 523 -11 726 -11 q 240 117 333 -11 q 229 144 233 127 q 248 183 229 166 q 285 201 258 196 q 326 178 305 201 q 523 90 397 90 q 700 167 621 90 q 778 363 778 244 q 704 532 778 466 q 523 597 629 597 q 323 504 393 597 q 283 486 308 491 q 229 538 229 486 q 243 574 229 549 q 523 701 353 701 q 758 616 659 701 q 876 398 856 532 l 878 334 q 954 168 881 241 q 1133 88 1031 88 q 1313 166 1238 88 q 1388 349 1388 243 q 1314 528 1388 455 q 1112 596 1240 602 l 1077 592 q 1013 641 1023 592 q 1035 688 1013 675 l 1074 695 l 1100 699 l 1137 701 q 1388 601 1286 701 q 1492 346 1492 497 z "},"ဪ":{"ha":3001,"x_min":26,"x_max":2904,"o":"m 702 188 l 677 144 l 642 97 q 525 19 597 52 q 371 -14 452 -14 q 126 92 226 -14 q 26 346 26 197 q 134 595 26 494 q 389 696 241 696 q 575 644 494 696 q 663 555 616 616 q 686 505 682 530 q 632 457 686 457 q 585 488 600 457 q 518 562 536 549 q 389 597 471 597 q 203 524 279 597 q 127 340 127 451 q 205 164 127 230 q 396 321 256 281 l 483 336 q 694 239 599 336 l 702 188 m 590 195 q 484 229 567 229 q 338 176 400 229 q 291 106 304 145 q 371 88 329 88 q 567 165 488 88 q 590 195 583 184 m 2749 1106 q 2694 1048 2749 1059 q 2649 1092 2649 1048 q 2599 1163 2649 1135 q 2508 1190 2549 1190 q 2380 1088 2399 1190 q 2458 924 2380 994 q 2561 860 2491 894 l 2627 827 q 2650 785 2650 816 q 2596 729 2650 739 l 2572 738 l 2488 781 q 2318 937 2367 845 q 2281 1102 2281 1004 q 2359 1239 2296 1187 q 2508 1291 2422 1291 q 2666 1241 2595 1291 q 2749 1106 2737 1190 m 2142 1150 q 2023 1194 2085 1194 l 1116 1194 q 970 1139 1023 1194 q 918 979 918 1084 l 916 -232 q 979 -387 916 -330 q 1044 -436 1023 -427 q 1118 -445 1065 -445 l 1803 -445 q 1959 -382 1908 -445 q 2012 -239 2012 -328 l 2012 49 q 2064 98 2012 98 q 2116 49 2116 98 l 2116 -239 q 2097 -357 2116 -308 q 2035 -452 2077 -406 q 1941 -524 1992 -499 q 1803 -549 1885 -549 l 1118 -549 q 903 -458 993 -549 q 814 -232 814 -367 l 814 979 q 888 1202 814 1133 q 1116 1298 968 1298 l 2023 1298 q 2159 1263 2092 1298 q 2182 1249 2167 1258 l 2142 1150 m 2279 346 q 2172 94 2279 201 q 1919 -14 2065 -14 q 1664 94 1780 -14 l 1634 131 l 1615 165 q 1310 -11 1513 -11 q 1027 117 1120 -11 q 1016 144 1019 127 q 1034 183 1016 166 q 1072 201 1044 196 q 1113 178 1092 201 q 1310 90 1184 90 q 1486 167 1408 90 q 1565 363 1565 244 q 1490 532 1565 466 q 1310 597 1416 597 q 1110 504 1180 597 q 1070 486 1095 491 q 1016 538 1016 486 q 1029 574 1016 549 q 1310 701 1140 701 q 1544 616 1446 701 q 1662 398 1643 532 l 1665 334 q 1740 168 1668 241 q 1919 88 1818 88 q 2100 166 2025 88 q 2174 349 2174 243 q 2101 528 2174 455 q 1898 596 2027 602 l 1864 592 q 1800 641 1809 592 q 1822 688 1800 675 l 1860 695 l 1887 699 l 1924 701 q 2174 601 2073 701 q 2279 346 2279 497 m 2204 470 l 2233 519 q 2359 642 2275 584 q 2553 699 2443 699 q 2837 548 2733 699 q 2904 345 2904 450 q 2750 53 2904 153 q 2536 -16 2643 -16 q 2454 -5 2493 -16 l 2426 4 l 2401 18 q 2359 70 2359 31 q 2374 102 2359 85 q 2408 119 2390 119 q 2431 113 2426 119 l 2486 92 q 2534 87 2501 87 q 2721 162 2642 87 q 2799 345 2799 237 q 2756 493 2799 430 q 2667 566 2726 538 q 2552 595 2608 595 q 2404 551 2476 595 q 2318 458 2351 511 l 2290 415 l 2204 470 z "},"ါ":{"ha":246,"x_min":-343,"x_max":145,"o":"m 144 -1 q 91 -47 145 -47 q 43 -1 43 -47 l 43 1082 q -1 1163 43 1132 q -98 1194 -45 1194 q -193 1159 -144 1194 q -242 1082 -242 1124 q -262 1042 -242 1056 l -290 1031 q -343 1082 -343 1031 q -264 1239 -343 1174 q -98 1298 -194 1298 q 69 1242 -1 1298 q 142 1082 142 1177 l 144 -1 z "},"ာ":{"ha":660,"x_min":-77,"x_max":581,"o":"m -77 538 q 35 641 -33 594 q 230 699 119 699 q 514 548 410 699 q 581 345 581 450 q 427 53 581 153 q 212 -16 319 -16 q 130 -5 170 -16 l 103 4 l 78 18 q 35 70 35 31 q 51 102 35 85 q 85 119 66 119 q 107 113 102 119 l 163 92 q 211 87 178 87 q 397 162 319 87 q 476 345 476 237 q 433 493 476 430 q 343 566 402 538 q 229 595 285 595 q 81 551 153 595 q -5 458 27 511 l -17 441 l -77 538 z "},"ိ":{"ha":1,"x_min":-730,"x_max":-176,"o":"m -176 1017 q -257 819 -176 900 q -454 737 -338 737 q -649 820 -569 737 q -730 1017 -730 902 q -651 1216 -730 1133 q -454 1298 -573 1298 q -258 1214 -339 1298 q -176 1017 -176 1129 m -279 1017 q -330 1143 -279 1088 q -454 1198 -381 1198 q -581 1145 -530 1198 q -631 1017 -631 1093 q -578 890 -631 943 q -454 837 -526 837 q -330 890 -381 837 q -279 1017 -279 943 z "},"ီ":{"ha":1,"x_min":-730,"x_max":-177,"o":"m -177 1017 q -260 821 -177 905 q -455 737 -344 737 q -649 819 -568 737 q -730 1017 -730 901 q -651 1216 -730 1133 q -455 1298 -572 1298 q -258 1214 -340 1298 q -177 1017 -177 1129 m -278 1017 q -330 1143 -278 1088 q -455 1198 -382 1198 q -581 1145 -531 1198 q -630 1017 -630 1093 q -621 951 -630 965 q -464 1020 -553 1020 q -366 999 -411 1020 q -293 945 -321 979 q -278 1017 -278 969 m -342 879 q -459 930 -382 925 q -571 883 -531 930 q -455 837 -516 837 q -342 879 -398 837 z "},"ု":{"ha":1,"x_min":-500,"x_max":-238,"o":"m -500 -99 q -450 -47 -500 -47 q -401 -99 -401 -50 l -401 -441 l -286 -441 q -238 -490 -238 -441 q -286 -542 -238 -542 l -450 -542 q -500 -490 -500 -542 l -500 -99 z "},"ူ":{"ha":1,"x_min":-597,"x_max":-136,"o":"m -494 -490 q -509 -528 -494 -515 q -545 -542 -524 -542 q -597 -490 -597 -542 l -597 -99 q -545 -47 -596 -48 q -494 -99 -494 -47 l -494 -490 m -399 -99 q -348 -47 -399 -47 q -299 -99 -300 -50 l -299 -441 l -184 -441 q -136 -490 -136 -441 q -184 -542 -136 -542 l -348 -542 q -399 -490 -399 -542 l -399 -99 z "},"ေ":{"ha":808,"x_min":43,"x_max":725,"o":"m 725 189 l 698 144 l 664 98 q 545 19 618 52 q 392 -14 472 -14 q 144 92 244 -14 q 43 348 43 199 q 152 598 43 496 q 410 700 260 700 q 595 647 515 700 q 686 557 638 618 q 709 508 704 532 q 653 459 709 459 q 606 490 620 459 q 538 565 558 551 q 410 600 490 600 q 221 527 298 600 q 145 342 145 454 q 224 164 145 231 q 417 323 276 284 l 503 338 q 715 239 621 338 l 725 189 m 610 195 q 503 230 587 230 q 357 176 421 230 q 310 106 323 145 q 392 89 348 89 q 587 168 509 89 q 610 195 604 184 z "},"ဲ":{"ha":1,"x_min":-654,"x_max":-212,"o":"m -212 888 q -228 852 -212 869 q -263 836 -243 836 q -296 846 -276 836 l -635 1106 q -654 1145 -654 1118 q -638 1181 -654 1165 q -605 1198 -623 1198 q -573 1187 -590 1198 l -235 928 q -212 888 -212 910 z "},"ဳ":{"ha":1,"x_min":-736,"x_max":-183,"o":"m -346 1014 q -377 933 -346 964 q -458 902 -408 902 q -535 935 -503 902 q -568 1014 -568 967 q -536 1092 -568 1061 q -458 1123 -505 1123 q -379 1092 -412 1123 q -346 1014 -346 1061 m -426 1015 q -458 1044 -426 1042 q -488 1014 -488 1044 q -457 983 -488 987 q -426 1015 -433 983 m -183 1017 q -264 819 -183 900 q -461 737 -345 737 q -656 820 -576 737 q -736 1017 -736 902 q -658 1216 -736 1133 q -461 1298 -580 1298 q -264 1214 -346 1298 q -183 1017 -183 1129 m -279 1017 q -330 1143 -279 1088 q -454 1198 -381 1198 q -581 1145 -530 1198 q -631 1017 -631 1093 q -578 890 -631 943 q -454 837 -526 837 q -330 890 -381 837 q -279 1017 -279 943 z "},"ဴ":{"ha":1,"x_min":-654,"x_max":-212,"o":"m -654 888 q -631 928 -654 910 l -293 1187 q -261 1198 -276 1198 q -228 1181 -243 1198 q -212 1145 -212 1165 q -231 1106 -212 1118 l -570 846 q -603 836 -590 836 q -638 852 -623 836 q -654 888 -654 869 z "},"ဵ":{"ha":1,"x_min":-753,"x_max":-94,"o":"m -173 1079 l -256 1120 q -456 1194 -408 1187 q -541 1185 -499 1198 q -630 1105 -602 1166 q -625 1015 -640 1039 q -467 1088 -553 1084 q -372 1074 -417 1089 q -220 956 -281 1044 l -228 895 q -307 828 -245 865 q -534 814 -414 774 q -697 942 -641 850 q -720 1135 -753 1035 q -586 1278 -686 1239 q -378 1280 -486 1316 l -199 1202 l -115 1162 q -113 1093 -94 1120 q -173 1079 -133 1066 m -581 952 q -502 909 -545 924 q -408 901 -465 895 q -321 931 -352 907 q -396 990 -335 965 q -465 995 -429 1000 q -581 952 -536 992 z "},"ံ":{"ha":1,"x_min":-597,"x_max":-309,"o":"m -597 947 q -585 1003 -597 977 q -554 1048 -574 1029 q -509 1079 -535 1067 q -453 1090 -483 1090 q -397 1079 -423 1090 q -352 1048 -371 1067 q -321 1003 -332 1029 q -309 947 -309 977 q -321 891 -309 917 q -352 845 -332 865 q -397 814 -371 826 q -453 803 -423 803 q -509 814 -483 803 q -554 845 -535 826 q -585 891 -574 865 q -597 947 -597 917 m -513 947 q -495 904 -513 922 q -453 887 -478 887 q -411 904 -428 887 q -393 947 -393 922 q -411 989 -393 972 q -453 1006 -428 1006 q -495 989 -478 1006 q -513 947 -513 972 z "},"့":{"ha":1,"x_min":-597,"x_max":-309,"o":"m -597 -227 q -585 -171 -597 -197 q -554 -125 -574 -144 q -509 -94 -535 -106 q -453 -83 -483 -83 q -397 -94 -423 -83 q -352 -125 -371 -106 q -321 -171 -332 -144 q -309 -227 -309 -197 q -321 -282 -309 -256 q -352 -328 -332 -309 q -397 -359 -371 -347 q -453 -370 -423 -370 q -509 -359 -483 -370 q -554 -328 -535 -347 q -585 -282 -574 -309 q -597 -227 -597 -256 m -513 -227 q -495 -269 -513 -252 q -453 -286 -478 -286 q -411 -269 -428 -286 q -393 -227 -393 -252 q -411 -184 -393 -201 q -453 -167 -428 -167 q -495 -184 -478 -167 q -513 -227 -513 -201 z "},"း":{"ha":382,"x_min":6,"x_max":297,"o":"m 6 562 q 18 617 6 591 q 48 663 29 644 q 94 694 68 682 q 150 705 120 705 q 206 694 180 705 q 251 663 232 682 q 282 617 271 644 q 294 562 294 591 q 282 506 294 532 q 251 460 271 479 q 206 429 232 441 q 150 418 180 418 q 94 429 120 418 q 48 460 68 441 q 18 506 29 479 q 6 562 6 532 m 90 562 q 107 519 90 536 q 150 502 125 502 q 192 519 175 502 q 210 562 210 536 q 192 604 210 587 q 150 621 175 621 q 107 604 125 621 q 90 562 90 587 m 9 134 q 21 190 9 163 q 52 235 33 216 q 97 266 71 254 q 153 277 123 277 q 209 266 183 277 q 255 235 235 254 q 286 190 274 216 q 297 134 297 163 q 286 78 297 104 q 255 32 274 52 q 209 1 235 13 q 153 -10 183 -10 q 97 1 123 -10 q 52 32 71 13 q 21 78 33 52 q 9 134 9 104 m 94 134 q 111 91 94 109 q 153 74 128 74 q 196 91 178 74 q 213 134 213 109 q 196 176 213 159 q 153 193 178 193 q 111 176 128 193 q 94 134 94 159 z "},"္":{"ha":1,"x_min":-684,"x_max":-224,"o":"m -224 -325 q -277 -380 -224 -375 l -405 -380 l -405 -485 q -420 -524 -405 -511 q -455 -536 -435 -536 q -507 -485 -507 -536 l -507 -380 l -633 -380 q -684 -325 -684 -380 q -634 -277 -684 -286 l -507 -277 l -507 -152 q -455 -102 -503 -102 q -405 -152 -410 -106 l -405 -277 l -277 -277 q -224 -325 -224 -277 z "},"်":{"ha":1,"x_min":-669,"x_max":-201,"o":"m -201 1113 q -255 1055 -201 1066 q -300 1099 -300 1055 q -351 1170 -300 1142 q -441 1197 -401 1197 q -569 1095 -551 1197 q -491 930 -569 1000 q -390 867 -458 901 l -323 833 q -300 791 -300 823 q -353 736 -300 745 l -378 745 l -462 787 q -632 944 -582 852 q -669 1109 -669 1010 q -591 1246 -654 1194 q -441 1298 -528 1298 q -284 1247 -354 1298 q -201 1113 -214 1197 z "},"ျ":{"ha":211,"x_min":-361,"x_max":103,"o":"m 103 -496 q 35 -541 100 -549 l -323 -448 q -356 -426 -351 -438 q -361 -395 -361 -414 l -361 69 q -310 122 -351 118 q -257 69 -267 121 l -257 -358 l 0 -425 l 0 661 q 52 706 7 703 q 103 661 94 702 l 103 -496 z "},"ြ":{"ha":255,"x_min":27,"x_max":966,"o":"m 27 -232 l 27 994 q 49 1112 27 1059 q 199 1272 91 1221 q 330 1298 258 1298 l 680 1298 q 918 1172 834 1298 q 966 1003 966 1098 l 966 982 q 913 930 966 930 q 861 982 861 930 l 861 1003 q 833 1112 861 1084 q 766 1170 814 1145 q 680 1194 718 1194 l 330 1194 q 184 1140 238 1194 q 131 994 131 1085 l 130 -232 q 192 -387 130 -330 q 257 -436 236 -427 q 332 -445 279 -445 l 650 -445 q 806 -382 755 -445 q 859 -239 859 -328 l 859 137 q 911 186 859 186 q 963 137 963 186 l 963 -239 q 944 -357 963 -308 q 882 -452 924 -406 q 788 -524 840 -499 q 650 -549 732 -549 l 332 -549 q 117 -458 206 -549 q 27 -232 27 -367 z "},"ွ":{"ha":1,"x_min":-735,"x_max":-176,"o":"m -176 -267 q -256 -467 -176 -385 q -454 -549 -337 -549 q -653 -467 -571 -549 q -735 -267 -735 -384 q -655 -66 -735 -149 q -454 17 -574 17 q -258 -66 -340 17 q -176 -267 -176 -149 m -277 -267 q -329 -137 -277 -190 q -454 -85 -380 -85 q -584 -136 -534 -85 q -633 -267 -633 -187 q -582 -396 -633 -342 q -454 -450 -530 -450 q -329 -397 -380 -450 q -277 -267 -277 -345 z "},"ှ":{"ha":1,"x_min":-663,"x_max":-401,"o":"m -401 -490 q -452 -542 -401 -542 l -616 -542 q -663 -490 -663 -542 q -616 -441 -663 -441 l -500 -441 l -500 -31 q -452 21 -500 20 q -401 -31 -401 21 l -401 -490 z "},"ဿ":{"ha":2004,"x_min":31,"x_max":1906,"o":"m 1906 349 q 1800 94 1906 200 q 1548 -12 1694 -12 q 1293 97 1407 -12 l 1264 130 l 1249 163 q 1189 90 1230 127 q 937 -14 1078 -14 q 681 93 791 -14 q 630 163 648 126 q 506 39 591 90 q 324 -12 420 -12 q 41 117 136 -12 q 31 143 34 127 q 50 180 31 166 q 86 200 58 195 q 127 178 106 200 q 324 89 199 89 q 507 170 433 89 q 581 361 581 250 q 506 531 581 465 q 324 597 430 597 q 124 503 195 597 q 85 485 109 490 q 31 537 31 485 q 44 573 31 547 q 324 699 155 699 q 560 616 461 699 q 679 397 659 532 l 680 334 q 756 168 684 240 q 887 93 812 112 q 937 87 913 87 q 1114 161 1036 87 q 1192 347 1192 235 q 1117 528 1192 454 q 917 594 1041 601 l 881 590 q 817 638 827 590 q 838 685 817 672 l 876 692 l 904 696 l 943 698 q 1193 600 1080 705 q 1296 349 1296 496 q 1366 172 1296 235 q 1498 97 1417 116 q 1548 92 1522 92 q 1724 167 1646 92 q 1801 351 1801 243 q 1726 531 1801 457 q 1527 591 1651 605 l 1491 587 q 1426 636 1436 587 q 1449 683 1426 672 l 1487 690 l 1508 692 l 1508 693 l 1553 699 q 1803 604 1693 705 q 1906 349 1906 499 z "},"၀":{"ha":852,"x_min":68,"x_max":784,"o":"m 469 92 q 605 165 549 107 q 681 346 681 241 q 604 524 681 449 q 469 595 547 580 l 469 699 q 677 597 591 682 q 784 346 784 492 q 677 92 784 198 q 469 -12 591 5 l 469 92 m 394 -13 q 171 91 261 -1 q 68 346 68 197 q 170 600 68 498 q 395 701 260 689 l 395 597 q 243 527 303 587 q 171 346 171 456 q 244 164 171 239 q 394 90 304 102 l 394 -13 z "},"၁":{"ha":808,"x_min":68,"x_max":741,"o":"m 741 342 q 636 89 741 195 q 382 -18 531 -18 q 101 112 197 -18 l 89 128 l 74 156 l 69 170 l 68 184 q 116 227 68 217 q 168 197 153 227 l 184 172 q 382 85 241 85 q 561 163 485 85 q 637 342 637 240 q 565 524 637 452 q 382 597 493 597 q 181 505 260 597 q 139 475 175 479 q 86 524 86 475 q 222 661 86 591 q 382 699 297 699 q 636 594 531 699 q 741 342 741 489 z "},"၂":{"ha":671,"x_min":12,"x_max":578,"o":"m 578 -225 q 504 -445 578 -353 q 296 -542 423 -542 q 115 -488 203 -542 q 12 -324 12 -423 q 66 -277 18 -277 q 115 -326 106 -277 q 184 -406 115 -367 q 296 -441 251 -441 q 429 -373 378 -441 q 477 -225 477 -313 l 477 652 q 526 703 472 694 q 578 653 578 703 l 578 -225 z "},"၃":{"ha":798,"x_min":68,"x_max":730,"o":"m 730 340 q 626 89 730 195 q 374 -18 522 -18 l 341 -18 q 295 -17 320 -18 q 262 -11 270 -16 l 565 -471 q 576 -500 571 -481 q 520 -551 576 -541 q 479 -528 495 -551 l 68 92 q 121 183 68 183 q 172 169 145 183 l 197 153 q 266 108 201 150 q 374 85 311 85 q 553 162 477 85 q 629 340 629 239 q 556 524 629 452 q 374 595 484 595 q 172 500 252 595 q 129 479 149 482 q 76 527 86 479 q 96 572 76 546 q 222 665 142 629 q 374 700 301 700 q 627 595 523 700 q 730 340 730 490 z "},"၄":{"ha":800,"x_min":68,"x_max":732,"o":"m 732 95 l 319 -528 q 277 -551 304 -551 q 224 -500 234 -551 q 234 -470 229 -475 l 545 1 q 422 -18 496 -18 q 172 89 275 -18 q 68 340 68 195 q 170 597 68 494 q 422 701 273 701 q 701 572 600 701 q 718 534 715 557 q 667 482 718 490 q 601 519 648 482 q 538 568 549 562 q 422 595 483 595 q 241 524 313 595 q 170 340 170 453 q 244 161 170 237 q 422 85 318 85 q 625 171 558 85 q 684 183 658 183 q 732 95 732 183 z "},"၅":{"ha":848,"x_min":68,"x_max":780,"o":"m 780 -190 q 674 -444 780 -339 q 422 -549 569 -549 q 172 -444 275 -549 q 69 -190 69 -338 q 79 -158 69 -172 q 121 -144 90 -144 q 172 -190 172 -144 q 244 -371 172 -297 q 422 -445 317 -445 q 603 -369 528 -445 q 677 -190 677 -294 l 677 339 q 601 517 677 441 q 422 593 525 593 q 235 511 304 593 l 237 511 q 356 460 308 511 q 405 340 405 410 q 353 226 405 279 q 237 173 301 173 q 119 222 176 173 q 68 341 68 278 l 72 380 q 186 606 87 516 q 422 696 285 696 q 674 592 569 696 q 780 339 780 487 l 780 -190 m 301 340 q 281 389 301 373 q 235 405 269 405 q 170 355 183 405 l 168 330 q 237 279 180 285 l 262 283 l 281 298 q 301 340 298 312 z "},"၆":{"ha":846,"x_min":68,"x_max":779,"o":"m 779 346 q 674 93 779 200 q 422 -14 570 -14 q 173 91 277 -14 q 68 346 68 197 l 68 875 q 173 1128 68 1023 q 422 1233 277 1233 q 676 1130 574 1233 q 779 875 779 1027 q 726 826 779 837 q 676 875 676 826 q 603 1055 676 981 q 422 1129 530 1129 q 245 1055 320 1129 q 170 875 170 980 l 170 346 q 245 166 170 242 q 422 91 320 91 q 588 156 518 91 q 674 309 659 221 l 488 372 q 399 417 443 378 q 351 539 351 471 q 398 657 351 609 q 517 705 446 705 q 635 655 583 705 q 687 539 687 605 q 642 426 687 477 l 743 393 q 779 346 779 385 m 583 539 q 562 584 583 564 l 545 598 q 517 602 535 602 q 454 540 460 602 q 470 489 454 507 q 519 471 487 471 q 561 491 547 471 q 583 539 583 514 z "},"၇":{"ha":859,"x_min":68,"x_max":791,"o":"m 789 354 q 787 317 791 338 q 773 276 782 297 q 756 235 765 255 q 740 201 747 215 q 721 161 730 181 q 702 120 711 140 q 648 -22 672 50 q 607 -169 623 -94 q 595 -240 600 -204 q 592 -310 591 -275 q 603 -378 594 -345 q 629 -442 611 -412 l 629 -441 l 629 -441 q 666 -468 655 -450 q 672 -503 676 -486 q 651 -533 668 -521 q 608 -543 635 -545 q 558 -517 578 -538 q 527 -470 539 -496 q 506 -415 514 -443 q 493 -366 498 -387 q 488 -312 487 -338 q 490 -258 489 -285 q 506 -149 494 -203 q 533 -41 517 -94 q 569 64 549 12 q 610 164 589 115 q 630 207 619 186 q 651 248 641 227 q 671 290 661 269 q 686 332 680 311 q 629 518 696 442 q 450 600 561 594 q 268 534 349 606 q 180 359 186 462 q 256 156 172 218 l 279 138 q 307 85 309 121 q 263 39 294 38 l 247 41 l 233 47 l 207 63 l 192 77 q 77 366 68 180 q 197 612 85 513 q 456 703 309 711 q 703 583 603 694 q 789 354 791 486 z "},"၈":{"ha":852,"x_min":68,"x_max":785,"o":"m 785 334 q 600 -5 785 121 l 572 -14 q 522 42 525 -14 q 544 82 522 64 q 642 194 602 121 q 682 334 682 266 q 606 520 682 441 q 424 600 530 600 q 221 488 300 600 q 401 308 353 460 l 413 229 l 416 164 q 393 41 420 94 q 292 -12 365 -12 l 254 -6 q 68 334 68 106 q 170 593 68 486 q 424 700 273 700 q 677 590 570 700 q 785 334 785 480 m 315 208 q 178 398 315 353 l 171 361 l 171 334 q 297 85 171 172 q 307 141 299 87 q 315 208 315 189 z "},"၉":{"ha":850,"x_min":68,"x_max":782,"o":"m 782 -188 q 677 -444 782 -338 q 424 -549 573 -549 q 173 -444 278 -549 q 68 -188 68 -338 l 68 343 q 173 597 68 492 q 424 703 278 703 q 676 597 570 703 q 782 343 782 492 q 747 298 782 310 l 648 263 q 690 151 690 216 q 636 33 690 85 q 519 -18 583 -18 q 400 31 448 -18 q 353 151 353 81 q 401 272 353 220 l 441 298 l 497 319 l 677 381 q 591 532 666 465 q 424 598 516 598 q 246 524 321 598 q 171 343 171 449 l 171 -188 q 246 -368 171 -292 q 424 -444 321 -444 q 606 -371 534 -444 q 679 -188 679 -297 q 728 -142 679 -151 q 782 -188 782 -142 m 586 151 q 564 197 586 174 q 513 217 551 214 q 456 148 456 205 q 473 103 456 121 q 518 84 490 85 l 544 89 l 565 104 q 586 151 586 125 z "},"၊":{"ha":286,"x_min":81,"x_max":177,"o":"m 177 41 q 129 -14 177 -14 q 81 41 81 -14 l 81 646 q 129 696 81 691 q 164 685 152 695 q 177 646 177 674 l 177 41 z "},"။":{"ha":519,"x_min":76,"x_max":409,"o":"m 409 41 q 397 1 409 16 q 359 -14 386 -14 q 308 41 308 -14 l 308 646 q 359 696 308 695 q 394 683 379 696 q 409 646 409 670 l 409 41 m 180 41 q 126 -14 180 -14 q 76 41 76 -14 l 76 646 q 125 696 76 690 q 180 646 179 695 l 180 41 z "},"၌":{"ha":847,"x_min":33,"x_max":745,"o":"m 610 1109 q 555 1054 610 1054 q 509 1097 509 1054 q 459 1167 509 1140 q 368 1194 410 1194 q 243 1094 259 1194 q 317 927 243 981 l 370 890 l 483 829 q 511 785 511 814 q 456 727 511 737 l 432 736 l 347 782 q 168 964 208 854 q 140 1105 140 1032 q 219 1243 155 1189 q 368 1298 283 1298 q 525 1246 454 1298 q 610 1109 596 1194 m 745 339 q 640 84 745 189 q 388 -21 534 -21 q 138 65 220 -21 l 138 -19 l 162 -37 q 323 -102 232 -90 q 388 -106 349 -106 q 618 -6 507 -106 q 654 6 636 6 q 705 -44 705 6 l 705 -317 q 648 -493 705 -435 q 467 -556 585 -556 l 165 -556 q 71 -512 108 -556 q 35 -412 35 -468 q 37 -374 33 -382 q 148 -292 64 -292 q 219 -311 187 -292 q 245 -353 241 -330 q 222 -399 245 -378 q 193 -412 212 -407 l 168 -401 q 156 -397 157 -398 l 138 -399 l 137 -399 q 165 -452 137 -452 l 494 -452 q 573 -426 546 -452 q 600 -370 593 -402 l 603 -317 l 603 -150 q 388 -212 515 -212 q 101 -120 218 -212 l 57 -87 q 36 -44 36 -68 l 36 135 q 72 198 36 195 l 98 201 l 127 197 q 191 168 153 194 q 388 80 250 80 q 569 156 494 80 q 643 339 643 232 q 569 518 643 446 q 388 590 495 590 q 190 496 289 590 q 144 477 174 482 q 90 525 90 477 q 111 567 90 549 q 388 694 252 694 q 640 591 535 694 q 745 339 745 488 z "},"၍":{"ha":1078,"x_min":35,"x_max":975,"o":"m 972 -406 q 876 -537 966 -494 q 791 -556 835 -556 l 205 -555 q 89 -498 130 -555 q 54 -375 54 -446 l 54 -338 q 88 -246 58 -311 q 275 -142 146 -142 q 456 -208 375 -142 q 473 -245 468 -222 q 420 -300 473 -300 q 385 -286 407 -300 q 334 -256 367 -268 q 276 -246 316 -250 q 175 -296 206 -246 l 161 -332 l 154 -372 q 205 -452 154 -445 l 791 -452 q 857 -423 833 -452 q 869 -385 865 -413 l 873 -325 l 873 496 q 749 736 873 628 q 546 924 564 893 q 501 1070 501 999 q 566 1230 501 1159 q 734 1300 631 1300 q 962 1165 881 1300 l 970 1143 q 917 1090 970 1090 q 871 1116 886 1090 q 733 1196 827 1196 l 684 1191 q 643 1157 665 1185 q 604 1070 604 1109 q 633 979 604 1034 q 861 777 796 850 q 975 496 975 640 l 972 -406 m 741 -250 q 719 -296 741 -274 q 690 -303 710 -303 q 639 -250 639 -303 l 639 314 q 565 525 639 450 q 388 600 490 600 q 212 522 290 600 q 138 399 149 465 q 331 353 260 399 q 431 227 387 317 q 454 111 454 174 q 388 -14 454 -13 q 136 87 237 -17 q 35 346 35 192 q 138 598 35 495 q 388 702 241 702 q 652 584 547 702 q 741 314 741 484 l 741 -250 m 349 90 q 331 178 349 142 q 140 304 296 304 q 212 167 140 235 q 349 90 290 90 z "},"၎":{"ha":798,"x_min":33,"x_max":697,"o":"m 697 -496 q 682 -526 697 -511 q 651 -541 667 -541 q 601 -509 611 -541 q 596 -498 600 -504 l 596 41 q 388 -19 523 -19 q 137 88 241 -19 q 33 340 33 195 q 136 597 33 494 q 388 700 238 700 q 666 572 565 700 q 684 533 680 556 q 632 481 684 490 q 566 519 614 481 q 504 567 514 561 q 388 594 448 594 q 207 523 278 594 q 136 340 136 452 q 209 160 136 234 q 388 85 282 85 q 591 170 526 85 q 650 182 623 182 q 697 96 697 182 l 697 -496 z "},"၏":{"ha":1318,"x_min":20,"x_max":1215,"o":"m 242 123 q 307 248 248 193 q 504 316 374 313 q 707 220 630 314 q 708 142 724 190 q 593 36 687 94 q 389 -21 499 -21 q 130 84 240 -21 q 20 338 20 189 q 130 594 20 490 q 389 699 240 699 q 584 649 499 699 q 740 705 651 705 q 912 595 848 705 q 957 425 957 515 l 960 7 q 905 -48 960 -48 q 854 7 854 -48 l 854 425 q 819 536 854 473 q 723 602 783 602 l 724 604 q 672 585 699 604 q 709 544 697 566 q 709 462 727 495 q 504 363 642 369 q 294 452 372 367 q 245 557 256 507 q 123 340 123 474 q 242 123 123 204 m 1215 7 q 1162 -48 1215 -48 q 1112 7 1112 -48 l 1112 505 q 985 777 1112 698 q 761 983 808 886 q 742 1080 742 1033 q 780 1204 742 1145 q 880 1285 819 1264 l 916 1297 l 977 1303 q 1200 1168 1129 1303 l 1206 1151 q 1152 1095 1206 1107 q 1105 1125 1121 1095 q 975 1199 1076 1199 q 921 1192 937 1199 q 846 1086 842 1154 l 848 1050 q 859 1019 854 1031 q 963 903 871 954 q 1127 787 1088 833 q 1215 505 1215 691 l 1215 7 m 389 597 q 325 589 357 597 q 404 474 336 515 q 509 456 465 452 q 611 499 580 461 q 389 597 523 597 m 389 81 q 608 179 523 81 q 509 222 580 217 q 404 204 465 227 q 325 89 336 163 q 389 81 357 81 z "},"ၐ":{"ha":846,"x_min":32,"x_max":747,"o":"m 747 342 q 621 2 747 147 q 583 -14 608 -11 q 528 42 535 -14 q 541 75 528 56 q 644 342 644 177 q 574 521 644 463 q 387 597 499 597 q 215 530 282 597 q 154 435 174 498 q 135 342 135 382 q 241 76 135 178 q 255 43 254 62 q 237 3 255 20 q 199 -14 218 -14 q 162 1 184 -14 q 32 342 32 142 q 66 493 32 413 q 142 609 96 568 q 387 701 243 701 q 603 636 511 701 q 730 453 694 572 q 747 342 747 397 m 397 441 q 453 429 427 441 q 499 398 479 418 q 530 353 518 379 q 541 297 541 327 q 530 241 541 267 q 499 196 518 215 q 453 165 479 176 q 397 153 427 153 q 341 165 368 153 q 296 196 315 176 q 265 241 277 215 q 254 297 254 267 q 265 353 254 327 q 296 398 277 379 q 341 429 315 418 q 397 441 368 441 m 397 237 q 440 255 422 237 q 457 297 457 272 q 440 339 457 322 q 397 357 422 357 q 355 339 372 357 q 338 297 338 322 q 355 255 338 272 q 397 237 372 237 z "},"ၑ":{"ha":850,"x_min":33,"x_max":750,"o":"m 750 353 q 645 94 750 203 q 389 -14 539 -14 q 137 96 241 -14 q 33 353 33 205 q 84 543 33 452 q 217 694 136 633 l 243 701 q 296 647 292 701 q 271 607 296 623 q 173 499 210 569 q 136 353 136 429 q 211 168 136 246 q 389 89 287 89 q 573 167 499 89 q 647 353 647 245 q 610 499 647 429 q 510 606 573 569 q 487 645 490 617 q 536 701 486 692 l 558 694 q 699 549 648 642 q 750 353 750 456 m 398 523 q 454 511 428 523 q 499 480 480 500 q 530 435 519 461 q 542 379 542 409 q 530 323 542 349 q 499 278 519 297 q 454 247 480 258 q 398 235 428 235 q 342 247 368 235 q 297 278 316 258 q 266 323 277 297 q 254 379 254 349 q 266 435 254 409 q 297 480 277 461 q 342 511 316 500 q 398 523 368 523 m 398 319 q 440 337 423 319 q 458 379 458 354 q 440 421 458 404 q 398 439 423 439 q 356 421 373 439 q 338 379 338 404 q 356 337 338 354 q 398 319 373 319 z "},"ၒ":{"ha":849,"x_min":33,"x_max":747,"o":"m 33 356 q 216 694 33 582 l 239 700 q 290 645 290 692 q 266 605 290 619 q 136 356 136 530 q 214 168 136 247 q 399 89 292 89 q 555 149 477 89 q 646 284 633 210 l 646 294 l 638 323 l 612 355 l 582 365 q 505 408 546 376 q 433 539 433 465 q 459 628 433 591 q 561 694 515 693 l 597 697 q 696 661 652 699 q 747 568 740 623 q 697 516 747 516 q 646 567 646 516 q 591 594 646 594 l 572 591 q 542 567 549 576 q 535 544 535 557 q 574 483 543 503 l 673 437 l 685 427 q 711 398 707 408 q 739 339 734 374 q 743 255 743 304 q 617 63 729 144 q 399 -14 513 -14 q 140 93 246 -14 q 33 356 33 201 z "},"ၓ":{"ha":849,"x_min":39,"x_max":743,"o":"m 366 -14 q 169 63 246 5 q 43 256 58 144 q 45 340 39 305 q 75 399 52 374 q 102 429 79 410 l 114 439 l 212 485 q 251 545 243 505 q 244 569 251 559 q 214 593 238 578 l 195 596 q 140 569 140 596 q 90 517 140 517 q 39 570 39 517 q 90 663 46 625 q 190 699 134 701 l 226 696 q 328 629 273 695 q 354 541 354 593 q 282 410 354 467 q 205 366 241 377 l 173 355 l 148 324 l 140 295 l 140 285 q 232 149 154 210 q 392 89 309 89 q 548 149 471 89 q 640 285 626 210 l 640 295 l 631 324 l 606 355 l 574 366 q 498 410 538 377 q 425 541 425 467 q 452 629 425 593 q 554 696 507 695 l 590 699 q 689 663 646 701 q 741 570 733 625 q 690 517 741 517 q 640 569 640 517 q 585 596 640 596 l 566 593 q 535 569 542 578 q 528 545 528 559 q 568 485 536 505 l 666 439 l 678 429 q 705 399 701 410 q 735 339 728 374 q 737 256 743 304 q 610 63 722 144 q 392 -14 507 -14 l 366 -14 z "},"ၔ":{"ha":793,"x_min":37,"x_max":719,"o":"m 709 446 q 496 349 615 349 l 411 363 q 218 522 270 401 q 139 344 139 454 q 216 159 139 231 q 404 86 292 86 q 532 121 484 86 q 600 195 552 134 q 647 227 614 227 q 703 178 703 227 q 680 128 698 153 q 589 39 632 68 q 404 -14 509 -14 q 146 87 254 -14 q 37 338 37 189 q 138 594 37 488 q 386 700 238 700 q 540 667 467 700 q 658 588 613 633 l 692 542 l 719 497 l 709 446 m 604 490 q 581 518 598 501 q 386 597 503 597 q 304 579 342 597 q 351 510 317 541 q 497 456 415 456 q 604 490 581 456 z "},"ၕ":{"ha":881,"x_min":26,"x_max":958,"o":"m 593 490 q 570 519 587 501 q 374 597 492 597 q 292 580 331 597 q 340 510 305 541 q 486 456 404 456 q 593 490 570 456 m 399 -13 l 399 -14 q 134 88 243 -14 q 26 338 26 190 q 126 594 26 488 q 374 701 227 701 q 529 667 456 701 q 646 589 602 634 l 681 543 l 708 497 l 699 447 q 486 349 604 349 l 399 363 q 207 522 258 402 q 127 344 127 455 q 204 159 127 231 q 399 82 281 86 q 439 83 414 82 q 486 89 465 84 q 526 104 508 94 q 555 135 544 115 q 560 153 559 144 q 560 175 560 163 q 562 199 560 186 q 572 223 563 211 q 608 240 590 239 q 643 227 625 241 q 656 208 652 218 q 666 190 661 197 q 681 174 672 184 q 700 154 689 164 q 723 134 710 144 q 749 119 735 125 q 783 107 765 111 q 817 101 800 103 q 846 100 833 100 q 861 100 859 100 l 863 109 q 891 135 875 129 q 923 137 908 141 q 948 118 939 132 q 958 81 958 104 q 916 12 945 31 q 852 -8 887 -8 q 780 4 817 -9 q 712 31 743 16 q 672 60 692 41 q 639 87 652 78 q 597 33 625 54 q 537 2 570 12 q 468 -10 504 -7 q 397 -13 432 -12 l 399 -13 z "},"ၖ":{"ha":677,"x_min":-108,"x_max":573,"o":"m -19 254 q 39 168 3 203 q 224 89 117 89 q 381 149 303 89 q 471 285 458 210 l 471 294 l 464 323 l 439 355 l 408 365 q 330 409 371 376 q 258 540 258 466 q 285 629 258 592 q 386 695 340 694 l 422 698 q 522 662 477 699 q 573 568 566 624 q 523 517 573 517 q 471 568 471 517 q 417 595 471 595 l 397 591 q 367 568 374 577 q 361 545 361 558 q 399 484 368 504 l 498 438 l 510 428 q 537 399 533 409 q 565 339 560 374 q 569 255 569 304 q 444 63 554 144 q 224 -14 339 -14 q -35 93 72 -14 q -108 197 -79 138 l -19 254 z "},"ၗ":{"ha":1053,"x_min":-118,"x_max":979,"o":"m 332 251 q 366 266 349 265 q 396 258 383 267 q 415 232 409 249 q 415 199 420 216 q 444 168 426 184 q 630 89 522 89 q 787 150 709 89 q 878 285 865 210 l 878 295 l 870 324 l 845 355 l 813 366 q 736 410 777 377 q 664 541 664 467 q 690 629 664 593 q 792 696 746 695 l 828 699 q 928 663 884 701 q 979 570 972 625 q 928 517 979 517 q 878 569 878 517 q 823 596 878 596 l 804 593 q 773 569 780 578 q 767 545 767 559 q 806 485 774 505 l 905 439 l 916 429 q 943 399 939 410 q 971 340 966 374 q 975 256 975 305 q 850 63 960 144 q 630 -14 745 -14 q 370 93 477 -14 q 355 109 359 104 q 331 75 346 96 q 298 37 315 55 q 263 5 281 20 q 222 -15 244 -9 q 191 -25 207 -21 q 157 -31 174 -30 q 110 -27 136 -32 q 55 -14 83 -23 q -1 9 27 -5 q -54 41 -30 23 q -94 80 -77 58 q -116 130 -111 102 q -106 170 -118 155 q -78 190 -95 186 q -43 183 -60 193 q -19 149 -26 173 q -7 133 -16 141 q 8 118 1 125 q 51 92 30 102 q 102 75 73 83 q 156 71 132 66 q 199 87 179 75 q 236 119 219 100 q 269 161 253 139 q 300 207 284 183 q 332 251 315 231 z "},"ၘ":{"ha":1,"x_min":-733,"x_max":-191,"o":"m -733 -302 q -650 -128 -733 -198 q -455 -58 -568 -58 q -244 -144 -328 -58 l -217 -179 l -210 -193 q -191 -233 -191 -210 l -202 -292 q -382 -356 -287 -356 q -478 -338 -431 -356 q -604 -221 -559 -307 q -624 -255 -611 -228 l -631 -303 q -578 -409 -631 -371 q -455 -447 -526 -447 q -314 -391 -370 -447 l -292 -378 l -271 -373 q -235 -387 -251 -373 q -216 -422 -219 -400 q -242 -465 -216 -446 q -455 -549 -340 -549 q -650 -481 -568 -549 q -733 -302 -733 -413 m -523 -168 q -446 -241 -496 -222 q -382 -252 -412 -254 l -330 -251 q -296 -230 -318 -248 q -363 -180 -312 -203 q -454 -159 -414 -157 l -492 -161 q -523 -168 -514 -163 z "},"ၙ":{"ha":1,"x_min":-726,"x_max":60,"o":"m -726 -302 q -644 -128 -726 -198 q -448 -58 -561 -58 q -237 -144 -321 -58 l -210 -179 l -203 -193 q -184 -233 -184 -210 l -195 -292 q -376 -356 -280 -356 q -471 -338 -425 -356 q -597 -221 -552 -307 q -617 -255 -604 -228 l -624 -303 q -571 -409 -624 -371 q -448 -447 -519 -447 q -327 -409 -374 -447 q -320 -376 -328 -391 q -296 -355 -311 -361 q -265 -355 -281 -349 q -235 -378 -248 -361 l -233 -382 l -212 -408 q -166 -432 -194 -422 q -111 -442 -138 -441 q -62 -433 -83 -443 q -34 -402 -41 -424 q -6 -377 -23 -383 q 25 -375 10 -371 q 51 -394 41 -380 q 60 -431 60 -408 q 52 -456 55 -444 q 42 -481 48 -469 q 6 -516 29 -503 q -45 -534 -17 -528 q -105 -538 -74 -539 q -168 -531 -137 -537 q -227 -514 -199 -525 q -272 -492 -255 -504 q -448 -549 -351 -549 q -644 -481 -561 -549 q -726 -302 -726 -413 m -437 -241 q -376 -252 -405 -254 l -323 -251 q -290 -230 -311 -248 q -356 -180 -305 -203 q -448 -159 -408 -157 l -485 -161 q -513 -166 -507 -163 l -437 -241 z "},"ၚ":{"ha":821,"x_min":38,"x_max":709,"o":"m 703 166 l 690 138 l 676 117 q 394 -13 586 -13 q 144 93 250 -13 q 38 346 38 199 q 141 599 38 497 q 394 701 244 701 q 671 576 562 701 q 684 546 680 568 q 663 506 684 526 q 627 490 647 495 q 595 503 610 495 q 394 597 517 597 q 213 527 286 597 q 140 346 140 456 q 216 166 140 242 q 394 90 292 90 q 591 174 540 90 l 608 201 q 659 235 628 235 q 709 186 703 235 l 703 166 m 326 -222 q 343 -246 339 -233 q 343 -270 348 -258 q 327 -288 339 -281 q 295 -292 314 -294 q 263 -275 275 -286 q 239 -250 251 -264 q 200 -177 205 -213 q 210 -112 195 -142 q 253 -59 224 -82 q 316 -24 282 -37 q 384 -12 349 -12 q 444 -25 418 -11 q 513 -72 484 -48 q 554 -125 541 -96 q 561 -190 566 -154 q 528 -271 555 -225 q 509 -300 521 -283 q 485 -336 496 -317 q 463 -374 473 -355 q 449 -411 452 -393 q 450 -444 446 -428 q 470 -469 455 -459 q 510 -480 492 -469 q 533 -515 529 -491 q 522 -542 532 -532 q 499 -554 512 -551 q 465 -550 487 -557 q 424 -532 443 -544 q 391 -501 404 -519 q 371 -461 378 -483 q 362 -420 363 -439 q 372 -371 361 -396 q 398 -322 383 -346 q 429 -276 414 -298 q 454 -237 445 -254 q 466 -213 459 -227 q 477 -186 473 -199 q 481 -160 481 -172 q 473 -139 480 -147 q 445 -119 459 -130 q 417 -102 431 -109 q 387 -93 403 -95 q 351 -96 370 -90 q 310 -115 326 -104 q 286 -139 293 -126 q 282 -168 279 -153 q 302 -201 286 -184 q 313 -213 308 -207 q 326 -222 317 -219 z "},"ၛ":{"ha":906,"x_min":-53,"x_max":932,"o":"m 760 205 q 705 154 760 154 q 665 180 683 154 l 621 243 q 456 201 556 201 q 338 250 387 207 q 283 365 283 297 l 288 404 q 446 502 325 502 q 517 490 486 502 q 627 404 576 466 l 627 408 q 608 472 627 429 q 574 522 589 515 q 390 597 496 597 q 158 441 235 597 q 139 346 139 397 q 212 164 139 248 q 398 88 290 88 q 522 125 481 88 q 553 137 529 132 q 589 122 575 137 q 608 84 604 108 q 591 47 608 60 q 397 -14 508 -14 q 138 93 239 -14 q 37 343 37 200 q 138 595 37 494 q 390 696 239 696 q 643 602 533 696 q 720 415 720 514 l 713 374 q 690 319 710 345 l 751 231 l 760 205 m 557 323 l 538 347 q 485 394 515 380 q 448 399 472 399 q 387 368 393 399 l 384 360 q 412 323 384 343 q 460 303 440 303 l 530 305 q 557 323 542 307 m 932 -492 q 867 -541 932 -541 l 504 -448 q 467 -391 463 -434 l 467 -149 l 319 -410 q 201 -499 275 -480 q 132 -482 162 -499 q 68 -434 103 -469 l -45 -299 l -53 -269 q 2 -215 -53 -220 q 39 -231 22 -215 l 141 -361 q 173 -393 146 -370 l 191 -396 l 205 -389 q 231 -361 224 -370 l 460 18 q 515 41 484 41 q 570 -6 562 41 l 570 -359 l 827 -425 l 827 652 q 880 705 827 703 q 932 652 932 705 l 932 -492 z "},"ၜ":{"ha":849,"x_min":33,"x_max":749,"o":"m 749 346 q 643 92 749 198 q 389 -14 536 -14 q 136 92 239 -14 q 33 346 33 197 q 135 600 33 498 q 389 702 238 702 q 643 597 536 702 q 749 346 749 492 m 646 346 q 569 524 646 449 q 389 599 492 599 q 208 527 280 599 q 136 346 136 456 q 209 164 136 239 q 389 89 283 89 q 570 165 494 89 q 646 346 646 241 m 385 483 q 440 471 414 483 q 486 440 467 460 q 517 395 505 421 q 528 339 528 369 q 517 283 528 309 q 486 238 505 257 q 440 207 467 218 q 385 195 414 195 q 329 207 355 195 q 283 238 302 218 q 252 283 264 257 q 241 339 241 309 q 252 395 241 369 q 283 440 264 421 q 329 471 302 460 q 385 483 355 483 m 385 279 q 427 297 410 279 q 444 339 444 314 q 427 381 444 364 q 385 399 410 399 q 342 381 359 399 q 325 339 325 364 q 342 297 325 314 q 385 279 359 279 z "},"ၝ":{"ha":850,"x_min":33,"x_max":749,"o":"m 720 -309 q 662 -485 720 -421 q 510 -551 615 -537 q 442 -545 477 -549 q 373 -531 407 -541 q 310 -502 339 -520 q 259 -454 280 -484 q 235 -397 241 -427 q 233 -337 229 -368 q 250 -278 237 -307 q 284 -225 264 -249 q 329 -184 304 -201 q 385 -161 355 -168 q 437 -168 412 -155 q 480 -204 462 -180 q 507 -256 498 -227 q 513 -313 517 -285 q 488 -362 509 -340 q 425 -391 467 -384 q 390 -376 403 -389 q 376 -348 378 -363 q 384 -317 374 -332 q 412 -295 393 -302 l 413 -294 q 413 -295 414 -294 q 415 -292 412 -296 q 415 -278 418 -288 q 401 -260 412 -269 q 368 -285 385 -269 q 339 -321 352 -301 q 326 -363 324 -346 q 340 -394 328 -381 q 373 -417 352 -408 q 419 -433 395 -427 q 467 -443 443 -439 q 509 -446 491 -446 q 590 -414 561 -445 q 618 -309 618 -384 l 618 72 q 389 -13 528 -13 q 138 97 243 -13 q 33 357 33 208 q 218 694 33 570 l 243 700 q 296 646 292 700 q 271 607 296 623 q 173 499 211 569 q 136 357 136 429 l 142 304 l 155 263 q 389 378 237 378 q 631 267 549 378 q 646 357 646 304 q 509 607 646 516 q 486 644 490 617 q 536 700 485 692 l 557 694 q 698 550 647 642 q 749 357 749 458 q 718 208 749 277 l 720 -309 m 515 235 q 389 277 460 277 q 290 251 332 277 q 214 171 248 224 q 389 90 282 90 q 572 174 505 90 l 515 235 z "},"ၞ":{"ha":1,"x_min":-745,"x_max":-85,"o":"m -483 -45 q -467 -12 -480 -23 q -438 0 -453 0 q -405 -4 -423 1 q -380 -46 -387 -9 l -379 -152 q -306 -168 -346 -157 q -230 -196 -267 -179 q -162 -237 -194 -213 q -106 -294 -131 -261 q -95 -321 -98 -305 q -89 -347 -92 -336 q -96 -390 -85 -373 q -125 -410 -107 -406 q -160 -405 -142 -414 q -186 -370 -177 -395 q -188 -358 -187 -363 q -192 -347 -189 -352 q -222 -314 -201 -328 q -270 -287 -242 -299 q -329 -267 -298 -275 q -381 -255 -360 -259 q -380 -323 -380 -283 q -383 -399 -380 -363 q -391 -464 -386 -435 q -406 -505 -397 -492 q -451 -539 -422 -528 q -513 -552 -479 -551 q -583 -547 -547 -553 q -648 -526 -618 -540 q -702 -491 -679 -511 q -738 -445 -725 -471 q -743 -413 -741 -433 q -745 -373 -745 -393 q -714 -288 -741 -328 q -648 -216 -687 -248 q -564 -164 -610 -184 q -483 -140 -518 -144 l -483 -45 m -483 -238 q -496 -241 -486 -237 q -520 -251 -507 -244 q -544 -264 -532 -257 q -564 -278 -555 -272 q -591 -297 -577 -286 q -617 -321 -606 -308 q -637 -348 -629 -334 q -646 -378 -645 -362 q -638 -408 -646 -395 q -615 -431 -629 -421 q -584 -447 -602 -441 q -547 -455 -566 -453 q -511 -454 -528 -456 q -486 -446 -494 -451 q -484 -408 -485 -429 q -483 -362 -484 -387 q -483 -306 -483 -338 q -483 -238 -483 -275 z "},"ၟ":{"ha":1,"x_min":-736,"x_max":-18,"o":"m -317 -26 q -302 15 -316 0 q -270 30 -288 29 q -237 19 -252 31 q -218 -20 -222 7 q -215 -63 -216 -41 q -212 -108 -213 -85 q -212 -133 -212 -119 q -213 -159 -212 -148 q -232 -215 -216 -198 q -269 -236 -247 -232 q -318 -238 -291 -241 q -373 -235 -345 -235 q -431 -236 -402 -235 q -490 -239 -460 -236 q -512 -241 -496 -239 q -545 -246 -527 -243 q -579 -254 -562 -250 q -605 -263 -595 -258 q -624 -278 -617 -270 q -634 -296 -631 -286 q -638 -318 -637 -306 q -637 -345 -638 -331 q -632 -367 -634 -358 q -627 -383 -631 -376 q -618 -396 -624 -390 q -602 -410 -612 -402 q -530 -445 -571 -435 q -450 -454 -489 -454 q -392 -452 -422 -454 q -338 -439 -363 -449 q -295 -418 -316 -429 q -256 -392 -273 -406 q -209 -355 -231 -373 q -165 -320 -187 -336 q -118 -290 -142 -303 q -67 -267 -94 -276 q -44 -268 -56 -263 q -25 -283 -33 -273 q -18 -308 -18 -294 q -32 -339 -18 -322 q -115 -395 -75 -363 q -193 -458 -155 -428 q -217 -476 -201 -465 q -248 -497 -232 -486 q -281 -517 -264 -508 q -309 -530 -298 -526 q -376 -546 -342 -540 q -444 -553 -409 -552 q -524 -547 -484 -553 q -601 -525 -563 -541 q -695 -458 -661 -500 q -734 -350 -729 -415 q -732 -302 -736 -326 q -717 -254 -729 -277 q -695 -215 -707 -234 q -664 -182 -682 -197 q -610 -157 -643 -166 q -543 -143 -578 -148 q -473 -138 -507 -139 q -416 -136 -439 -136 q -374 -139 -395 -136 q -339 -141 -354 -141 q -318 -135 -325 -140 q -312 -115 -311 -130 q -314 -71 -313 -93 q -317 -26 -315 -49 z "},"ၠ":{"ha":1,"x_min":-608,"x_max":-174,"o":"m -174 -491 q -216 -543 -174 -542 l -524 -543 q -588 -518 -568 -536 q -608 -463 -608 -500 q -594 -410 -608 -436 l -389 -41 q -344 -12 -370 -12 q -314 -19 -332 -12 q -290 -55 -295 -25 q -302 -90 -289 -79 l -489 -444 l -226 -445 q -174 -491 -174 -446 z "},"ၡ":{"ha":822,"x_min":28,"x_max":720,"o":"m 720 -220 q 668 -273 720 -273 q 620 -220 620 -273 l 620 310 q 605 426 620 380 q 547 515 591 471 q 467 569 511 551 q 373 587 422 587 q 281 569 326 587 q 200 515 237 551 q 128 395 138 455 q 259 378 203 395 q 354 317 315 361 q 415 221 393 273 q 437 113 437 169 q 424 29 437 70 q 373 -12 410 -12 q 233 12 290 -12 q 125 91 177 36 q 51 207 73 145 q 28 341 28 269 q 128 589 28 482 q 373 690 236 690 q 621 589 513 690 q 699 462 677 530 q 720 310 720 393 l 720 -220 m 334 91 q 320 179 334 141 q 280 246 306 218 q 128 298 233 298 q 149 234 128 272 q 200 167 170 195 q 272 106 246 121 q 334 91 297 91 m 419 -490 q 366 -542 419 -542 l 201 -542 q 151 -490 151 -542 q 201 -441 151 -450 l 318 -441 l 318 -106 q 366 -54 319 -54 q 419 -106 419 -54 l 419 -490 z "},"ၢ":{"ha":332,"x_min":-27,"x_max":227,"o":"m 227 42 q 218 12 227 24 q 178 -7 202 -7 q 144 4 158 -7 q 130 42 130 16 l 130 579 l 20 579 q -27 627 -27 579 q 20 678 -27 678 l 178 678 q 227 627 227 678 l 227 42 z "},"ၣ":{"ha":799,"x_min":29,"x_max":701,"o":"m 29 -550 l 29 121 q 85 191 29 193 l 125 188 q 165 164 140 183 q 344 88 226 88 q 521 166 443 88 q 599 343 599 244 q 526 520 599 452 q 344 589 453 589 q 143 498 232 589 q 102 481 125 484 q 56 536 56 481 q 66 569 56 557 q 344 696 174 696 q 598 595 496 696 q 701 343 701 494 q 596 89 701 195 q 344 -17 492 -17 q 208 0 260 -17 q 134 44 170 14 l 134 -550 l 29 -550 z "},"ၤ":{"ha":449,"x_min":-31,"x_max":393,"o":"m 393 48 q 342 -3 393 -3 l 180 -3 q 131 48 131 -3 l 131 50 l 131 578 l 19 578 q -31 627 -31 578 q 19 680 -31 680 l 182 680 q 231 627 231 680 l 231 98 l 342 98 q 393 48 393 98 z "},"ၥ":{"ha":818,"x_min":34,"x_max":707,"o":"m 34 185 q 85 234 40 234 q 136 200 116 234 l 153 173 q 350 89 203 89 q 528 165 452 89 q 604 345 604 241 q 531 526 604 455 q 350 597 458 597 q 149 503 226 597 q 117 490 134 494 q 80 505 97 494 q 59 545 59 526 q 72 575 64 567 q 350 700 182 700 q 603 598 500 700 q 707 345 707 496 q 601 92 707 198 q 350 -14 494 -14 q 67 116 157 -14 l 53 136 l 40 165 l 34 185 z "},"ၦ":{"ha":852,"x_min":35,"x_max":751,"o":"m 618 -497 q 568 -549 618 -549 l 217 -549 q 169 -497 169 -549 q 217 -448 169 -448 l 519 -448 l 519 9 q 391 -13 465 -13 q 139 97 243 -13 q 35 354 35 206 q 86 543 35 452 q 219 694 138 633 l 245 700 q 298 646 294 700 q 273 607 298 623 q 175 499 213 569 q 138 354 138 429 q 213 169 138 247 q 391 90 289 90 q 574 168 500 90 q 648 354 648 245 q 611 499 648 429 q 511 606 574 569 q 488 644 492 617 q 538 700 487 692 l 559 694 q 700 549 648 642 q 751 354 751 456 q 646 96 751 203 q 618 69 631 80 l 618 -497 z "},"ၧ":{"ha":364,"x_min":-7,"x_max":265,"o":"m 218 701 q 242 696 234 701 q 265 650 265 682 l 265 131 q 238 43 265 81 q 129 -7 199 -7 q 31 34 70 -7 q -7 133 -7 75 q 31 230 -7 189 q 131 271 70 271 q 171 267 163 271 l 171 650 q 190 690 171 678 q 218 701 208 701 m 86 130 q 99 99 86 112 q 131 85 113 85 q 162 99 149 85 q 176 130 176 112 q 162 162 176 149 q 131 175 149 175 q 99 162 113 175 q 86 130 86 149 z "},"ၨ":{"ha":460,"x_min":-117,"x_max":405,"o":"m 347 199 q 272 39 345 103 q 104 -18 201 -18 q 3 -9 42 -20 q -76 37 -36 1 q -89 110 -117 64 l -65 127 q -21 123 -43 136 q 44 87 15 95 q 104 79 74 79 q 201 117 157 86 q 245 199 245 149 l 245 637 q 294 690 245 690 q 347 637 348 690 l 347 199 m 149 891 q 159 941 149 918 q 186 982 169 964 q 227 1009 203 999 q 277 1019 250 1019 q 327 1009 303 1019 q 367 982 350 999 q 395 941 385 964 q 405 891 405 918 q 395 841 405 865 q 367 801 385 818 q 327 773 350 783 q 277 763 303 763 q 227 773 250 763 q 186 801 203 783 q 159 841 169 818 q 149 891 149 865 m 233 891 q 246 860 233 873 q 277 848 258 848 q 308 860 295 848 q 320 891 320 873 q 308 922 320 909 q 277 935 295 935 q 246 922 258 935 q 233 891 233 909 z "},"ၩ":{"ha":360,"x_min":-7,"x_max":254,"o":"m 254 494 q 202 358 254 429 q 94 184 94 212 q 125 116 94 138 q 205 94 157 94 q 241 80 229 94 q 254 45 254 66 q 240 9 254 25 q 205 -7 227 -7 q 76 30 137 -7 q -7 181 -7 81 q 74 359 -7 266 q 155 492 155 452 q 124 561 155 538 q 43 583 92 583 q 7 596 20 583 q -5 631 -5 610 q 8 667 -5 651 q 43 684 22 684 q 172 651 117 684 q 254 494 254 602 z "},"ၪ":{"ha":467,"x_min":-96,"x_max":370,"o":"m 368 199 q 294 39 367 103 q 126 -18 223 -18 q 25 -9 64 -20 q -54 37 -14 1 q -67 110 -96 64 l -43 127 q 1 123 -21 136 q 66 87 37 95 q 125 79 96 79 q 223 117 179 86 q 267 199 267 149 l 267 637 q 315 690 267 690 q 369 637 370 690 l 368 199 z "},"ၫ":{"ha":478,"x_min":-81,"x_max":384,"o":"m 383 33 q 330 -20 384 -20 q 281 33 281 -20 l 281 471 q 237 553 281 522 q 140 591 193 584 q 80 583 110 591 q 15 547 51 575 q -29 543 -7 534 l -53 560 q -40 633 -81 606 q 39 680 0 669 q 140 688 78 690 q 308 631 237 688 q 382 471 381 567 l 383 33 z "},"ၬ":{"ha":435,"x_min":-22,"x_max":444,"o":"m -21 637 q 33 690 -22 690 q 81 637 81 690 l 81 199 q 125 117 81 149 q 222 79 169 86 q 282 87 252 79 q 347 123 311 95 q 391 127 369 136 l 415 110 q 402 37 444 64 q 323 -9 362 1 q 222 -18 284 -20 q 54 39 125 -18 q -20 199 -19 103 l -21 637 z "},"ၭ":{"ha":414,"x_min":-60,"x_max":339,"o":"m 339 558 q 300 461 339 502 q 201 420 262 420 q 161 425 169 420 l 161 120 q 127 25 161 59 q 35 -8 93 -8 l -9 -8 q -49 11 -37 -8 q -60 39 -60 29 q -55 63 -60 55 q -9 86 -41 86 l 35 86 q 57 96 47 86 q 66 118 66 106 l 66 560 q 94 648 66 610 q 203 699 132 699 q 300 657 262 699 q 339 558 339 616 m 158 562 q 171 531 158 544 q 203 517 184 517 q 234 531 221 517 q 248 562 248 544 q 234 594 248 581 q 203 607 221 607 q 171 594 184 607 q 158 562 158 581 z "},"ၮ":{"ha":1689,"x_min":30,"x_max":1586,"o":"m 747 338 q 576 -9 747 98 l 552 -17 q 500 36 500 -17 q 524 79 500 64 q 647 300 623 138 q 579 505 647 421 q 391 595 512 595 q 210 516 285 595 q 135 330 135 437 q 173 188 135 257 q 270 79 212 119 q 294 41 291 66 q 239 -17 294 -14 l 214 -9 q 30 330 30 117 q 135 588 30 480 q 391 696 240 696 q 576 642 490 696 q 625 606 606 624 q 810 633 707 671 q 925 534 920 592 q 972 592 935 556 q 1094 672 1031 646 q 1227 698 1157 698 q 1480 592 1375 698 q 1586 340 1586 486 q 1480 85 1586 192 q 1184 -22 1375 -22 q 1164 -20 1173 -24 l 1140 -11 q 1107 37 1112 4 q 1158 88 1107 88 l 1176 85 l 1203 80 q 1408 159 1328 80 q 1476 290 1457 209 q 1482 340 1482 313 q 1409 520 1482 446 q 1227 595 1335 595 q 1046 517 1124 595 q 970 337 991 464 q 799 -9 970 98 l 774 -17 q 724 36 724 -17 q 747 79 724 64 q 865 293 846 138 q 823 521 895 389 q 684 538 756 575 q 703 508 691 527 q 733 438 719 485 q 747 338 747 391 z "},"ၯ":{"ha":1461,"x_min":31,"x_max":1358,"o":"m 1265 -490 q 1215 -542 1265 -542 l 1050 -542 q 1003 -490 1003 -542 q 1050 -441 1003 -441 l 1165 -441 l 1165 23 q 958 -20 1088 -20 q 910 -4 928 -14 q 881 36 881 5 q 947 88 881 83 l 978 83 q 1180 161 1099 83 q 1246 288 1230 210 q 1253 339 1253 313 q 1179 521 1253 447 q 998 595 1105 595 q 819 518 901 595 q 751 398 763 467 q 745 283 751 359 q 732 227 744 270 q 646 81 706 140 q 381 -20 517 -20 q 85 138 177 -20 q 31 339 31 233 q 65 523 31 433 q 159 675 100 612 q 194 691 172 691 q 251 635 243 691 q 236 604 248 626 q 136 339 136 502 q 208 151 136 210 q 382 83 278 83 q 566 150 484 83 q 630 254 608 186 q 646 339 646 303 q 538 604 646 489 q 526 635 530 616 q 581 691 526 691 q 617 676 594 691 l 669 606 l 701 542 l 719 565 l 745 593 q 998 698 842 698 q 1253 591 1147 698 q 1358 339 1358 484 q 1265 100 1358 201 l 1265 -490 z "},"ၰ":{"ha":1463,"x_min":34,"x_max":1360,"o":"m 1360 343 q 1267 104 1360 205 l 1267 -490 q 1213 -542 1267 -542 l 1049 -542 q 999 -490 999 -542 q 1048 -441 999 -450 l 1166 -441 l 1166 25 q 1002 -14 1098 -14 q 750 95 864 -14 l 719 129 l 699 165 q 575 40 661 92 q 393 -12 490 -12 q 163 73 271 -12 q 46 286 46 165 q 60 379 46 330 q 121 436 74 414 q 224 484 202 469 q 255 541 247 499 q 231 581 257 559 q 186 594 214 591 q 136 571 142 591 q 118 535 136 551 q 80 519 100 519 q 34 573 34 519 q 184 696 47 694 q 332 625 280 694 q 359 536 359 589 q 288 405 359 459 q 178 353 250 378 q 153 330 159 346 l 144 295 q 222 160 144 231 q 393 88 300 88 q 579 177 505 88 q 648 375 648 258 q 526 604 648 524 q 509 672 492 635 q 578 690 530 707 q 700 564 654 646 q 746 392 746 481 l 749 355 q 825 168 763 231 q 1002 88 901 88 q 1182 167 1103 88 q 1249 294 1233 217 q 1256 343 1256 319 q 1182 522 1256 455 q 1082 588 1146 567 q 934 587 1018 608 q 884 637 884 587 q 915 685 884 669 q 1127 677 1032 715 q 1255 597 1202 649 q 1360 343 1360 492 z "},"ၱ":{"ha":1,"x_min":-763,"x_max":-154,"o":"m -763 946 q -751 1002 -763 976 q -721 1047 -740 1028 q -675 1078 -701 1067 q -619 1090 -649 1090 q -563 1078 -589 1090 q -518 1047 -537 1067 q -487 1002 -498 1028 q -475 946 -475 976 q -487 890 -475 916 q -518 845 -498 864 q -563 814 -537 825 q -619 802 -589 802 q -675 814 -649 802 q -721 845 -701 825 q -751 890 -740 864 q -763 946 -763 916 m -679 946 q -662 904 -679 921 q -619 886 -644 886 q -577 904 -594 886 q -559 946 -559 921 q -577 988 -559 971 q -619 1006 -594 1006 q -662 988 -644 1006 q -679 946 -679 971 m -441 945 q -430 1001 -441 975 q -399 1047 -418 1027 q -354 1078 -380 1066 q -298 1089 -328 1089 q -242 1078 -268 1089 q -196 1047 -216 1066 q -165 1001 -177 1027 q -154 945 -154 975 q -165 889 -154 916 q -196 844 -177 863 q -242 813 -216 825 q -298 802 -268 802 q -354 813 -328 802 q -399 844 -380 825 q -430 889 -418 863 q -441 945 -441 916 m -357 945 q -340 903 -357 920 q -298 886 -323 886 q -255 903 -273 886 q -238 945 -238 920 q -255 988 -238 970 q -298 1005 -273 1005 q -340 988 -323 1005 q -357 945 -357 970 z "},"ၲ":{"ha":1,"x_min":-713,"x_max":-189,"o":"m -446 734 q -638 819 -564 734 q -713 1014 -713 903 q -639 1210 -713 1128 q -446 1293 -565 1293 q -201 1147 -293 1293 l -192 1122 q -250 1070 -192 1080 q -290 1097 -273 1070 q -446 1190 -351 1190 q -563 1137 -519 1190 q -606 1014 -606 1084 q -565 889 -606 941 q -446 837 -524 837 q -292 928 -350 837 q -250 956 -282 956 q -189 907 -198 956 l -197 884 q -446 734 -281 734 z "},"ၳ":{"ha":1,"x_min":-764,"x_max":-153,"o":"m -494 1141 q -422 1141 -458 1177 l -189 909 q -190 838 -153 874 q -260 837 -226 802 l -458 1033 l -658 834 q -727 834 -692 800 q -728 906 -764 871 l -494 1141 z "},"ၴ":{"ha":1,"x_min":-758,"x_max":-146,"o":"m -722 1070 q -720 1142 -758 1105 q -651 1142 -686 1177 l -451 943 l -254 1139 q -183 1138 -219 1174 q -182 1067 -146 1102 l -415 836 q -487 836 -451 800 l -722 1070 z "},"ၵ":{"ha":849,"x_min":33,"x_max":747,"o":"m 747 330 q 564 -8 747 104 l 541 -14 q 491 41 491 -6 q 515 81 491 66 q 644 330 644 156 q 567 518 644 439 q 381 597 490 597 q 226 536 303 597 q 135 401 149 476 l 135 392 l 142 363 l 168 331 l 199 321 q 276 277 235 310 q 348 146 348 220 q 322 58 348 95 q 220 -9 267 -7 l 184 -12 q 85 25 129 -13 q 33 118 41 64 q 84 170 33 170 q 135 119 135 170 q 189 92 135 92 l 208 95 q 239 119 232 109 q 245 142 245 128 q 206 203 237 182 l 109 248 l 96 258 q 69 288 73 277 q 42 347 47 312 q 37 431 37 382 q 163 623 52 542 q 381 700 267 700 q 641 592 534 700 q 747 330 747 485 z "},"ၶ":{"ha":834,"x_min":19,"x_max":749,"o":"m 411 698 q 437 698 423 698 q 460 695 450 699 q 646 598 568 677 q 749 342 749 495 q 645 91 749 197 q 391 -14 540 -14 q 118 113 226 -14 l 86 159 q 50 241 71 183 q 62 297 50 275 q 292 397 169 397 q 405 374 349 397 q 587 185 528 323 q 646 342 646 249 q 574 526 646 455 q 402 597 505 593 q 331 562 368 583 q 257 523 294 541 q 180 497 219 505 q 100 501 141 490 q 53 531 72 509 q 27 579 35 553 q 21 635 19 606 q 36 690 23 665 q 72 735 48 716 q 130 760 95 754 q 169 749 155 762 q 185 718 183 736 q 176 684 187 701 q 141 663 165 668 q 130 659 135 663 q 123 651 125 654 q 124 634 124 644 q 126 617 125 625 q 129 604 127 609 q 136 596 131 598 q 160 597 143 593 q 201 611 177 602 q 251 633 224 620 q 305 660 278 646 q 323 668 316 665 q 335 674 330 671 q 348 680 340 677 q 367 688 355 683 l 411 698 m 507 125 q 372 278 477 224 q 288 292 327 292 q 154 238 210 292 q 172 213 156 233 l 196 182 q 391 89 269 89 q 507 125 451 89 z "},"ၷ":{"ha":847,"x_min":31,"x_max":745,"o":"m 745 330 q 562 -8 745 104 l 539 -14 q 519 -10 528 -13 q 504 -11 513 -12 q 483 -3 494 -10 q 439 39 454 14 q 420 94 424 64 q 421 153 416 123 q 438 213 426 184 q 470 266 451 241 q 512 305 489 290 q 547 318 528 316 q 583 316 566 319 q 618 304 601 312 q 641 294 636 297 q 642 330 642 305 q 565 518 642 439 q 379 597 488 597 q 224 536 301 597 q 133 401 146 476 l 133 392 l 140 363 l 166 331 l 197 321 q 274 277 233 310 q 346 146 346 220 q 320 58 346 95 q 218 -9 264 -7 l 182 -12 q 83 25 127 -13 q 31 118 39 64 q 82 170 31 170 q 133 119 133 170 q 187 92 133 92 l 206 95 q 237 119 230 109 q 243 142 243 128 q 204 203 235 182 l 106 248 l 94 258 q 67 288 71 277 q 40 347 45 312 q 35 431 35 382 q 161 623 50 542 q 379 700 265 700 q 639 592 532 700 q 745 330 745 485 m 615 197 q 606 202 614 197 q 589 211 597 208 q 573 216 581 215 q 556 215 565 218 q 533 193 543 211 q 519 154 523 176 q 517 113 515 133 q 524 90 519 93 l 615 197 z "},"ၸ":{"ha":1474,"x_min":34,"x_max":1371,"o":"m 34 343 q 142 596 34 492 q 398 699 250 699 q 613 630 516 699 q 703 526 681 578 q 1010 696 798 696 q 1267 597 1164 696 q 1371 346 1371 498 q 1266 91 1371 197 q 1010 -14 1160 -14 q 764 81 869 -14 q 658 315 658 177 q 631 432 644 394 q 576 522 609 494 q 398 597 510 597 q 214 525 289 597 q 139 343 139 452 q 190 195 139 258 q 324 104 241 132 q 430 88 374 88 q 486 36 486 88 q 431 -14 486 -14 q 141 93 249 -14 q 34 343 34 201 m 756 360 q 831 171 756 253 q 1010 88 906 88 q 1192 164 1115 88 q 1269 346 1269 239 q 1196 527 1269 456 q 1010 597 1122 597 q 831 528 907 597 q 756 360 756 459 z "},"ၹ":{"ha":1474,"x_min":34,"x_max":1371,"o":"m 460 -14 q 434 -14 445 -16 l 431 -14 q 141 93 249 -14 q 34 343 34 201 q 142 596 34 492 q 398 699 250 699 q 613 630 516 699 q 703 526 681 578 q 1010 696 798 696 q 1267 597 1164 696 q 1371 346 1371 498 q 1266 91 1371 197 q 1010 -14 1160 -14 q 764 81 869 -14 q 658 315 658 177 q 631 432 644 394 q 576 522 609 494 q 398 597 510 597 q 214 525 289 597 q 139 343 139 452 q 164 235 139 279 l 166 236 q 243 274 200 265 q 328 275 286 283 q 407 243 370 267 q 467 180 444 219 q 480 155 473 171 q 494 119 488 138 q 504 80 500 100 q 505 40 507 59 q 493 6 503 22 q 460 -14 482 -9 m 756 360 q 831 171 756 253 q 1010 88 906 88 q 1192 164 1115 88 q 1269 346 1269 239 q 1196 527 1269 456 q 1010 597 1122 597 q 831 528 907 597 q 756 360 756 459 m 399 90 q 376 134 395 109 q 332 172 357 159 q 279 183 307 185 q 223 157 251 180 l 225 157 q 324 105 262 125 l 399 90 z "},"ၺ":{"ha":1428,"x_min":24,"x_max":1338,"o":"m 870 -488 q 817 -543 870 -539 l 677 -543 q 626 -489 626 -543 l 626 313 l 626 319 q 554 522 623 451 q 378 595 483 595 q 217 537 286 595 q 130 395 149 479 q 354 317 283 395 q 444 110 444 221 q 427 20 444 66 q 378 -17 420 -17 q 128 89 231 -17 q 24 342 24 195 q 129 594 24 488 q 378 699 233 699 q 625 596 520 699 q 730 313 730 492 l 730 300 q 803 165 747 218 q 981 87 886 87 q 1214 244 1134 87 q 1233 343 1233 297 q 1159 523 1233 448 q 962 597 1086 597 l 932 593 l 913 587 q 863 637 863 587 q 948 699 863 685 q 1220 604 1109 699 q 1338 343 1338 502 q 1230 95 1338 203 q 981 -14 1122 -14 q 729 92 839 -14 l 730 91 l 730 -439 l 817 -439 q 870 -488 865 -439 m 337 87 q 323 176 337 140 q 281 248 310 212 q 129 297 239 297 q 201 163 144 224 q 337 87 271 87 z "},"ၻ":{"ha":1476,"x_min":36,"x_max":1373,"o":"m 947 -14 q 915 6 925 -9 q 902 40 904 22 q 903 80 900 59 q 913 119 907 100 q 927 155 920 138 q 940 180 934 171 q 1000 243 963 219 q 1080 275 1038 267 q 1164 274 1122 283 q 1241 236 1207 265 l 1243 235 q 1268 343 1268 279 q 1193 525 1268 452 q 1009 597 1118 597 q 831 522 897 597 q 777 432 798 494 q 749 315 764 394 q 644 81 749 177 q 397 -14 538 -14 q 141 91 247 -14 q 36 346 36 197 q 140 597 36 498 q 397 696 243 696 q 704 526 609 696 q 794 630 726 578 q 1009 699 891 699 q 1265 596 1158 699 q 1373 343 1373 492 q 1266 93 1373 201 q 977 -14 1158 -14 l 973 -14 q 947 -14 962 -16 m 651 360 q 576 528 651 459 q 397 597 500 597 q 212 527 285 597 q 138 346 138 456 q 215 164 138 239 q 397 88 292 88 q 576 171 501 88 q 651 360 651 253 m 1083 105 q 1182 157 1145 125 l 1184 157 q 1128 183 1156 180 q 1075 172 1100 185 q 1031 134 1050 159 q 1008 90 1013 109 l 1083 105 z "},"ၼ":{"ha":1381,"x_min":43,"x_max":1262,"o":"m 602 338 q 602 380 606 360 q 532 524 591 465 q 351 597 461 597 q 151 505 229 597 q 109 476 144 479 q 56 525 56 476 q 191 661 56 591 q 351 699 265 699 q 602 595 498 699 q 653 531 637 559 q 703 595 669 559 q 956 699 808 699 q 1115 661 1042 699 q 1251 525 1251 591 q 1197 476 1251 476 q 1156 505 1162 479 q 956 597 1078 597 q 774 524 846 597 q 704 381 714 465 q 701 336 703 359 q 773 335 725 336 q 877 332 822 335 q 989 323 932 329 q 1097 306 1046 317 q 1186 278 1147 295 q 1244 236 1225 261 q 1258 201 1253 215 q 1261 173 1262 186 q 1254 146 1261 159 q 1236 115 1248 132 q 956 -14 1141 -14 q 703 91 808 -14 q 653 154 669 126 q 602 91 637 126 q 351 -14 498 -14 q 71 112 166 -14 q 47 169 52 138 q 62 236 43 200 q 124 280 84 262 q 213 309 163 298 q 318 327 263 321 q 427 335 374 332 q 527 338 480 338 q 602 338 574 338 m 1158 181 q 1111 202 1146 191 q 1031 221 1076 214 q 937 234 987 229 q 840 242 886 239 q 753 247 793 245 q 695 248 713 248 l 695 257 l 778 165 q 956 88 854 88 q 1154 175 1097 88 l 1158 181 m 565 211 l 581 242 q 531 241 569 242 q 449 238 492 241 q 358 232 405 236 q 269 220 311 227 q 194 202 227 212 q 148 181 160 191 l 153 175 q 351 88 210 88 q 528 165 452 88 l 565 211 z "},"ၽ":{"ha":1280,"x_min":33,"x_max":1179,"o":"m 328 105 q 383 112 361 109 q 422 118 404 115 q 457 127 439 122 q 499 142 474 133 q 534 155 515 147 q 564 168 553 163 q 519 343 519 243 q 622 595 519 494 q 873 696 724 696 q 1150 572 1041 696 q 1163 543 1158 564 q 1143 503 1163 523 q 1105 487 1125 492 q 1075 500 1088 492 q 873 594 997 594 q 694 523 767 594 q 621 343 621 452 q 660 208 621 264 q 724 234 689 220 q 794 258 760 248 q 863 276 829 269 q 926 286 896 283 q 978 287 955 288 q 1024 281 1002 286 q 1068 267 1046 276 q 1117 245 1090 258 l 1152 221 q 1175 172 1179 190 q 1155 115 1175 148 q 873 -14 1065 -14 q 629 87 730 -14 q 584 69 608 79 q 535 50 559 59 q 487 34 507 41 q 449 23 467 27 q 415 15 431 18 q 379 9 399 12 q 162 62 267 -15 q 37 254 52 143 q 42 337 37 302 q 69 396 46 372 q 96 425 73 406 l 107 435 l 205 481 q 244 541 237 500 q 237 564 244 555 q 208 588 231 574 l 189 591 q 134 564 134 591 q 83 513 134 513 q 33 565 33 513 q 84 657 41 620 q 183 694 128 695 l 219 691 q 320 625 264 690 q 347 536 347 589 q 275 406 347 463 q 198 363 234 374 l 167 353 l 142 321 l 134 292 l 134 283 q 224 148 147 208 q 328 105 277 108 m 1030 125 l 1060 160 q 1028 175 1043 168 q 1000 185 1013 182 q 970 189 987 189 q 923 186 953 189 q 821 164 871 180 q 733 132 771 148 q 873 88 789 88 l 970 98 l 1030 125 z "},"ၾ":{"ha":1274,"x_min":31,"x_max":1177,"o":"m 326 105 q 380 112 359 109 q 419 118 401 115 q 454 127 437 122 q 496 142 471 133 q 531 155 513 147 q 562 168 550 163 q 516 343 516 243 q 619 595 516 494 q 871 696 722 696 q 1147 572 1038 696 q 1160 543 1156 564 q 1140 503 1160 523 q 1103 487 1122 492 q 1072 500 1086 492 q 871 594 994 594 q 691 523 764 594 q 618 343 618 452 q 657 208 618 264 q 722 234 686 220 q 792 258 757 248 q 860 276 827 269 q 923 286 893 283 q 976 287 952 288 q 1021 281 999 286 q 1065 267 1043 276 q 1114 245 1087 258 l 1149 221 q 1172 172 1177 190 q 1152 115 1172 148 q 871 -14 1063 -14 q 627 87 728 -14 q 581 69 606 79 q 532 50 556 59 q 484 34 504 41 q 446 23 464 27 q 412 15 429 18 q 376 9 396 12 q 159 62 264 -15 q 35 254 49 143 q 39 337 35 302 q 66 396 43 372 q 93 425 71 406 l 104 435 l 202 481 q 241 541 234 500 q 235 564 241 555 q 205 588 228 574 l 186 591 q 132 564 132 591 q 81 513 132 513 q 31 565 31 513 q 82 657 38 620 q 180 694 125 695 l 216 691 q 317 625 262 690 q 344 536 344 589 q 272 406 344 463 q 195 363 231 374 l 164 353 l 139 321 l 132 292 l 132 283 q 222 148 144 208 q 326 105 274 108 m 1027 125 l 1057 160 q 1025 175 1040 168 q 997 185 1010 182 q 967 189 984 189 q 920 186 950 189 q 818 164 868 180 q 730 132 768 148 q 870 88 786 88 l 968 98 l 1027 125 m 638 -503 q 576 -540 625 -553 l 416 -500 q 383 -438 372 -488 q 441 -402 396 -391 l 553 -431 l 641 -85 q 701 -47 653 -38 q 738 -110 750 -59 l 638 -503 z "},"ၿ":{"ha":850,"x_min":35,"x_max":748,"o":"m 35 354 q 92 558 35 465 q 250 699 149 652 q 284 685 266 699 q 380 469 383 591 l 377 420 l 369 378 q 296 258 351 310 q 189 196 249 214 q 393 88 260 88 q 572 168 498 88 q 646 354 646 248 q 609 494 646 426 q 513 604 572 563 q 488 643 488 620 q 540 696 492 696 l 566 690 q 748 354 748 563 q 643 96 748 205 q 393 -14 538 -14 q 139 96 244 -14 q 35 354 35 205 m 137 354 q 145 292 137 323 q 271 409 241 317 q 275 469 275 429 q 242 575 275 529 q 137 354 137 488 z "},"ႀ":{"ha":1320,"x_min":12,"x_max":1239,"o":"m 19 182 q 23 219 12 200 q 50 253 33 237 q 85 279 66 268 q 116 292 104 290 q 210 307 162 304 q 305 308 258 309 q 385 301 349 307 q 452 284 420 295 q 511 260 483 274 q 561 233 539 245 q 585 343 585 279 q 513 523 585 452 q 333 594 440 594 q 132 500 210 594 q 101 487 117 492 q 64 503 81 492 q 43 543 43 523 q 56 572 48 564 q 333 696 165 696 q 585 595 482 696 q 688 343 688 494 q 647 176 688 248 q 678 157 659 168 q 719 133 698 146 q 882 83 793 83 q 1061 160 986 83 q 1135 342 1135 237 q 1062 521 1135 448 q 861 594 988 594 l 827 590 q 763 638 772 590 q 784 685 763 672 l 823 692 l 842 694 l 842 696 l 887 698 q 1135 593 1021 705 q 1239 339 1239 490 q 1133 89 1239 195 q 882 -18 1027 -18 q 699 33 783 -18 q 692 36 694 33 q 633 68 660 52 q 587 96 606 85 l 581 91 q 333 -14 477 -14 q 52 115 141 -14 l 37 136 l 24 164 l 19 182 m 333 88 q 500 153 433 88 q 444 183 475 168 q 374 205 412 197 q 285 213 335 213 q 166 202 235 212 q 142 194 152 200 q 127 185 132 189 l 136 172 q 333 88 187 88 z "},"ႁ":{"ha":847,"x_min":5,"x_max":749,"o":"m 749 283 q 696 232 749 232 q 647 283 647 232 l 647 311 q 574 520 647 445 q 393 595 502 595 q 232 534 309 595 q 144 398 156 474 q 372 321 301 398 q 460 109 460 226 q 393 -17 460 -16 q 144 85 245 -20 q 42 342 42 190 q 145 596 42 494 q 393 699 248 699 q 647 593 541 699 q 726 463 701 544 q 749 311 749 395 l 749 283 m 357 87 q 339 176 357 140 q 144 300 304 300 q 168 230 144 267 q 292 104 210 155 q 357 87 316 87 m 272 -503 q 210 -540 259 -553 l 50 -500 q 17 -438 5 -488 q 75 -402 30 -391 l 187 -431 l 275 -85 q 334 -47 287 -38 q 372 -110 384 -59 l 272 -503 z "},"ႂ":{"ha":1,"x_min":-720,"x_max":-111,"o":"m -365 -517 q -598 -484 -516 -546 q -699 -326 -680 -422 q -667 -148 -720 -229 q -505 -48 -614 -66 q -294 -99 -368 -26 q -302 -158 -265 -136 q -366 -157 -334 -178 q -488 -138 -404 -125 q -584 -200 -554 -148 q -602 -310 -614 -252 q -543 -411 -589 -373 q -385 -427 -497 -449 q -214 -319 -269 -383 q -143 -300 -188 -286 q -130 -359 -111 -322 q -365 -517 -189 -460 z "},"ႃ":{"ha":431,"x_min":-7,"x_max":417,"o":"m 155 604 l 40 604 q -7 652 -7 604 q 40 705 -7 705 l 204 705 q 254 652 254 705 l 254 -345 l 369 -345 q 417 -393 417 -345 q 369 -446 417 -446 l 205 -446 q 155 -393 155 -446 l 155 604 z "},"ႄ":{"ha":750,"x_min":32,"x_max":650,"o":"m 37 515 q 156 661 55 609 q 345 700 237 700 q 469 689 417 700 q 650 514 631 651 q 596 453 645 453 q 549 496 555 453 q 473 585 529 564 q 345 600 437 600 q 139 493 161 600 l 135 477 q 231 395 135 411 l 298 395 q 346 342 346 395 q 298 292 346 292 l 241 292 l 233 294 q 169 257 199 288 q 139 193 139 226 q 345 89 163 89 q 469 109 427 89 q 549 198 519 132 q 593 227 562 227 q 650 179 650 227 l 646 161 q 345 -14 578 -14 q 37 172 74 -14 q 103 340 37 297 q 32 478 32 389 l 37 515 z "},"ႅ":{"ha":1,"x_min":-705,"x_max":-210,"o":"m -450 734 q -633 821 -562 734 q -581 1011 -705 907 q -634 1208 -705 1124 q -450 1293 -563 1293 q -218 1185 -307 1293 l -210 1161 q -264 1109 -210 1119 q -303 1136 -288 1109 q -450 1190 -359 1190 q -547 1154 -519 1190 q -554 1091 -575 1117 q -410 1002 -523 1055 q -559 886 -596 935 q -450 837 -523 837 q -309 886 -359 837 q -269 913 -300 913 q -212 863 -220 913 l -220 841 q -450 734 -294 734 z "},"ႆ":{"ha":1,"x_min":-631,"x_max":-317,"o":"m -327 1059 q -345 977 -332 1034 q -378 877 -359 939 q -411 836 -397 852 q -441 806 -424 820 q -485 779 -458 792 q -631 729 -512 766 q -511 800 -531 783 q -477 837 -490 817 q -456 884 -465 858 q -441 944 -448 910 q -460 969 -448 967 q -531 1020 -506 979 q -547 1103 -556 1061 q -498 1174 -537 1150 q -415 1188 -460 1198 q -343 1142 -369 1179 q -327 1059 -317 1105 m -399 1079 q -410 1104 -399 1093 q -436 1115 -421 1115 q -461 1104 -450 1115 q -471 1079 -471 1094 q -461 1054 -471 1064 q -436 1043 -450 1043 q -410 1054 -421 1043 q -399 1079 -399 1065 z "},"ႇ":{"ha":338,"x_min":-138,"x_max":242,"o":"m 230 109 q 207 5 222 76 q 163 -123 189 -45 q 123 -175 140 -154 q 84 -213 106 -195 q 28 -247 62 -231 q -138 -306 -5 -262 q -2 -223 -28 -245 q 41 -176 24 -202 q 68 -116 58 -149 q 88 -39 79 -83 q 62 -4 78 -7 q -27 59 4 7 q -47 165 -58 111 q 14 253 -35 223 q 119 271 62 283 q 210 213 178 258 q 230 109 242 167 m 153 134 q 135 176 153 159 q 93 193 118 193 q 51 176 68 193 q 33 134 33 159 q 51 91 33 109 q 93 74 68 74 q 135 91 118 74 q 153 134 153 109 z "},"ႈ":{"ha":387,"x_min":-56,"x_max":323,"o":"m 22 562 q 34 617 22 591 q 65 663 45 644 q 110 694 84 682 q 166 705 136 705 q 222 694 196 705 q 268 663 248 682 q 298 617 287 644 q 310 562 310 591 q 298 506 310 532 q 268 460 287 479 q 222 429 248 441 q 166 418 196 418 q 110 429 136 418 q 65 460 84 441 q 34 506 45 479 q 22 562 22 532 m 106 562 q 124 519 106 536 q 166 502 141 502 q 209 519 191 502 q 226 562 226 536 q 209 604 226 587 q 166 621 191 621 q 124 604 141 621 q 106 562 106 587 m 110 134 q 127 91 110 109 q 170 74 144 74 q 212 91 195 74 q 229 134 229 109 q 212 176 229 159 q 170 193 195 193 q 127 176 144 193 q 110 134 110 159 m 311 109 q 288 5 304 76 q 245 -123 270 -45 q 204 -175 221 -154 q 166 -213 188 -195 q 110 -247 144 -231 q -56 -306 76 -262 q 80 -223 54 -245 q 123 -176 106 -202 q 150 -116 140 -149 q 170 -39 160 -83 q 143 -4 159 -7 q 54 59 85 7 q 35 165 23 111 q 95 253 47 223 q 200 271 144 283 q 291 213 259 258 q 311 109 323 167 z "},"ႉ":{"ha":275,"x_min":-56,"x_max":196,"o":"m -56 126 q -46 175 -56 152 q -19 215 -37 198 q 21 242 -2 233 q 70 252 44 252 q 119 242 96 252 q 159 215 142 233 q 186 175 176 198 q 196 126 196 152 q 186 77 196 100 q 159 37 176 54 q 119 10 142 20 q 70 0 96 0 q 21 10 44 0 q -19 37 -2 20 q -46 77 -37 54 q -56 126 -56 100 m 19 126 q 34 90 19 105 q 70 75 49 75 q 106 90 91 75 q 121 126 121 105 q 106 162 121 147 q 70 177 91 177 q 34 162 49 177 q 19 126 19 147 z "},"ႊ":{"ha":674,"x_min":17,"x_max":624,"o":"m 169 589 q 146 588 157 591 q 125 578 134 585 q 111 561 116 571 q 103 538 105 550 q 105 514 102 526 q 115 493 109 503 q 132 478 122 484 q 155 471 142 473 q 178 473 167 469 q 199 483 190 476 q 214 500 208 490 q 221 523 220 510 q 220 547 223 535 q 210 567 216 558 q 192 582 203 576 q 169 589 182 587 m 169 387 q 69 419 110 382 q 22 517 28 457 q 53 618 17 574 q 148 667 88 663 q 250 635 203 672 q 302 540 298 597 q 333 509 304 522 q 413 519 378 513 q 475 538 447 525 q 528 575 503 552 q 624 696 552 599 q 548 543 568 574 q 507 491 528 511 q 464 458 486 471 q 408 425 441 444 q 276 397 327 408 q 169 387 203 389 m 169 210 q 146 208 157 212 q 125 198 134 205 q 111 181 116 191 q 103 158 105 170 q 105 134 102 146 q 115 114 109 123 q 132 99 122 104 q 155 92 142 93 q 178 93 167 90 q 199 103 190 96 q 214 120 208 110 q 221 143 220 130 q 220 167 223 155 q 210 188 216 178 q 192 202 203 197 q 169 210 182 208 m 169 7 q 69 40 110 2 q 22 137 28 77 q 53 238 17 194 q 148 288 88 283 q 250 255 203 292 q 302 160 298 218 q 333 129 304 142 q 413 139 378 133 q 475 159 447 145 q 528 196 503 172 q 624 317 552 219 q 548 163 568 195 q 507 111 528 131 q 464 78 486 92 q 408 45 441 64 q 276 17 327 28 q 169 7 203 9 z "},"ႋ":{"ha":311,"x_min":-29,"x_max":223,"o":"m -29 323 q -19 372 -29 349 q 8 412 -9 395 q 48 439 25 429 q 97 449 71 449 q 146 439 123 449 q 186 412 169 429 q 213 372 203 395 q 223 323 223 349 q 213 274 223 297 q 186 234 203 251 q 146 207 169 216 q 97 197 123 197 q 48 207 71 197 q 8 234 25 216 q -19 274 -9 251 q -29 323 -29 297 m 46 323 q 61 287 46 302 q 97 272 76 272 q 133 287 118 272 q 148 323 148 302 q 133 359 148 344 q 97 374 118 374 q 61 359 76 374 q 46 323 46 344 z "},"ႌ":{"ha":617,"x_min":-2,"x_max":532,"o":"m -2 115 q 8 164 -2 141 q 36 204 18 187 q 76 232 53 222 q 125 242 99 242 q 174 232 151 242 q 214 204 197 222 q 241 164 231 187 q 252 115 252 141 q 241 66 252 90 q 214 26 231 43 q 174 -1 197 9 q 125 -12 151 -12 q 76 -1 99 -12 q 36 26 53 9 q 8 66 18 43 q -2 115 -2 90 m 73 115 q 89 79 73 94 q 125 64 104 64 q 161 79 146 64 q 176 115 176 94 q 161 151 176 136 q 125 166 146 166 q 88 151 103 166 q 73 115 73 136 m 279 115 q 289 163 279 140 q 316 204 299 186 q 357 231 334 221 q 406 241 380 241 q 454 231 431 241 q 495 204 477 221 q 522 163 512 186 q 532 115 532 140 q 522 66 532 89 q 495 25 512 43 q 454 -2 477 8 q 406 -12 431 -12 q 357 -2 380 -12 q 316 25 334 8 q 289 66 299 43 q 279 115 279 89 m 355 115 q 370 78 355 93 q 406 63 385 63 q 442 78 427 63 q 457 115 457 94 q 442 151 457 136 q 406 166 427 166 q 370 151 385 166 q 355 115 355 136 z "},"ႍ":{"ha":1,"x_min":-767,"x_max":-156,"o":"m -767 -222 l -156 -222 l -156 -323 l -767 -323 l -767 -222 z "},"ႎ":{"ha":848,"x_min":34,"x_max":747,"o":"m 747 340 q 641 90 747 195 q 388 -14 535 -14 q 136 87 239 -14 q 34 340 34 189 q 137 593 34 488 q 388 699 240 699 q 641 593 535 699 q 747 340 747 487 m 644 340 q 616 450 644 406 q 387 347 535 347 q 162 450 241 347 q 143 404 148 428 l 136 339 q 208 159 136 231 q 388 88 280 88 q 568 163 492 88 q 644 340 644 237 m 549 532 q 388 596 485 596 q 231 534 293 596 q 387 449 285 449 q 549 532 489 449 z "},"ႏ":{"ha":403,"x_min":20,"x_max":400,"o":"m 33 109 q 53 213 20 167 q 144 271 85 258 q 249 253 200 283 q 309 165 297 223 q 290 59 321 111 q 201 -4 258 7 q 174 -39 184 -7 q 194 -116 184 -83 q 221 -176 204 -149 q 264 -223 238 -202 q 400 -306 290 -245 q 234 -247 268 -262 q 178 -213 200 -231 q 139 -175 156 -195 q 99 -123 123 -154 q 56 5 74 -45 q 33 109 40 76 m 110 134 q 127 91 110 109 q 170 74 144 74 q 212 91 195 74 q 229 134 229 109 q 212 176 229 159 q 170 193 195 193 q 127 176 144 193 q 110 134 110 159 m 22 562 q 34 617 22 591 q 65 663 45 644 q 110 694 84 682 q 166 705 136 705 q 222 694 196 705 q 268 663 248 682 q 298 617 287 644 q 310 562 310 591 q 298 506 310 532 q 268 460 287 479 q 222 429 248 441 q 166 418 196 418 q 110 429 136 418 q 65 460 84 441 q 34 506 45 479 q 22 562 22 532 m 106 562 q 124 519 106 536 q 166 502 141 502 q 209 519 191 502 q 226 562 226 536 q 209 604 226 587 q 166 621 191 621 q 124 604 141 621 q 106 562 106 587 z "},"႐":{"ha":580,"x_min":34,"x_max":502,"o":"m 502 214 q 483 124 501 166 q 432 51 464 82 q 358 1 401 20 q 268 -17 316 -17 q 178 1 220 -17 q 104 51 136 20 q 54 124 73 82 q 34 214 35 166 l 35 690 q 54 779 35 737 q 105 852 73 821 q 178 901 136 883 q 268 919 220 919 q 358 901 315 919 q 432 851 400 882 q 482 778 463 820 q 502 689 501 736 l 502 214 m 142 214 q 153 166 142 189 q 180 126 163 143 q 219 100 197 110 q 268 91 242 91 q 316 100 294 91 q 356 126 339 110 q 384 165 374 143 q 394 214 393 188 l 394 690 q 383 737 393 714 q 356 776 373 760 q 316 802 339 792 q 268 811 294 811 q 219 802 242 811 q 180 775 197 792 q 153 736 163 759 q 142 689 142 714 l 142 214 z "},"႑":{"ha":581,"x_min":-41,"x_max":547,"o":"m 183 -8 l 183 740 l -41 740 l -41 816 q 133 855 89 840 q 215 894 178 871 l 312 894 l 312 104 l 524 155 l 547 50 l 307 -7 l 183 -8 z "},"႒":{"ha":638,"x_min":28,"x_max":579,"o":"m 131 956 l 130 859 q 153 872 136 862 q 307 910 217 910 q 507 837 434 910 q 579 642 579 763 q 552 514 579 578 q 476 381 525 450 q 362 240 428 313 q 218 87 296 167 l 218 -7 l 90 -7 l 91 96 q 225 257 155 180 q 347 402 294 334 q 427 527 399 471 q 454 636 454 584 q 414 756 454 710 q 293 802 374 802 q 194 772 239 802 q 130 720 159 749 l 130 693 l 28 694 l 28 956 l 131 956 z "},"႓":{"ha":569,"x_min":-73,"x_max":549,"o":"m 278 968 l 406 967 l 275 592 q 366 600 311 604 q 513 520 477 593 q 520 314 549 446 l 448 -8 l 319 -8 l 388 309 q 389 444 408 403 q 307 489 370 484 q 237 480 269 492 l 54 -9 l -73 -5 l 278 968 z "},"႔":{"ha":733,"x_min":-52,"x_max":701,"o":"m 277 894 l 458 894 l 458 104 l 677 155 l 701 50 l 460 -7 l 336 -8 l 336 694 l 75 -9 l -52 -5 l 277 894 z "},"႕":{"ha":847,"x_min":16,"x_max":815,"o":"m 16 284 q 41 404 16 347 q 107 502 65 460 q 204 568 149 543 q 324 592 260 592 l 514 592 l 514 904 l 630 904 l 630 588 l 815 588 l 815 474 l 631 474 l 632 284 q 608 164 632 220 q 542 67 583 109 q 444 1 500 25 q 324 -24 387 -24 q 204 1 260 -24 q 107 67 149 25 q 41 164 65 109 q 16 284 16 220 m 134 284 q 149 210 134 245 q 189 149 163 175 q 250 109 215 123 q 324 94 285 94 q 398 109 363 94 q 459 149 433 123 q 500 210 485 175 q 515 284 515 245 l 515 473 l 324 475 q 250 460 285 475 q 189 419 215 445 q 149 358 163 393 q 134 284 134 323 z "},"႖":{"ha":859,"x_min":18,"x_max":817,"o":"m 18 596 q 43 715 18 659 q 109 813 67 772 q 207 880 151 855 q 326 904 262 904 q 446 880 389 904 q 544 813 502 855 q 610 715 585 772 q 634 596 634 659 l 633 406 l 817 406 l 817 292 l 632 292 l 632 -24 l 516 -24 l 516 288 l 326 288 q 207 313 262 288 q 109 379 151 337 q 43 476 67 420 q 18 596 18 532 m 136 596 q 151 522 136 557 q 191 461 165 487 q 252 420 217 435 q 326 406 287 406 l 517 407 l 517 596 q 502 670 517 635 q 461 731 487 705 q 400 772 435 757 q 326 787 366 787 q 252 772 287 787 q 191 731 217 757 q 151 670 165 705 q 136 596 136 635 z "},"႗":{"ha":696,"x_min":1,"x_max":623,"o":"m 1 69 l 461 783 l 43 783 l 43 892 l 623 892 l 623 817 l 161 103 l 607 103 l 607 -7 l 1 -7 l 1 69 z "},"႘":{"ha":547,"x_min":20,"x_max":488,"o":"m 488 894 l 488 819 q 463 715 488 762 q 404 642 438 668 q 463 569 438 616 q 488 467 487 522 l 488 208 q 469 119 488 161 q 419 45 450 77 q 345 -4 387 14 q 254 -22 302 -22 q 164 -4 207 -22 q 91 45 122 14 q 40 119 59 77 q 20 208 21 161 l 21 467 q 47 570 22 523 q 104 642 71 616 q 46 715 71 668 q 20 819 21 762 l 20 894 l 128 894 l 128 819 q 138 772 129 794 q 163 734 147 751 q 200 708 179 718 q 244 696 220 698 l 264 696 q 309 708 288 698 q 346 734 330 718 q 371 772 361 751 q 380 819 380 794 l 380 894 l 488 894 m 128 208 q 139 160 129 183 q 166 121 149 138 q 206 95 183 104 q 254 85 229 85 q 303 95 280 85 q 343 121 326 104 q 370 160 360 138 q 380 208 380 182 l 380 467 q 371 512 380 491 q 346 550 361 534 q 309 576 330 566 q 264 588 288 586 l 244 588 q 200 576 220 586 q 163 550 179 566 q 138 512 147 534 q 128 467 129 491 l 128 208 z "},"႙":{"ha":553,"x_min":22,"x_max":490,"o":"m 382 -219 l 382 -144 q 373 -98 382 -119 q 348 -60 363 -76 q 311 -33 332 -43 q 267 -21 290 -23 l 246 -21 q 202 -33 222 -23 q 165 -60 181 -43 q 140 -98 149 -76 q 130 -144 131 -119 l 130 -219 l 22 -219 l 22 -144 q 48 -40 23 -87 q 106 33 73 7 q 49 105 73 58 q 23 208 24 152 l 22 467 q 42 556 23 514 q 93 629 61 598 q 166 679 124 661 q 256 697 209 697 q 347 679 304 697 q 421 629 389 661 q 471 556 452 598 q 490 467 490 514 l 490 208 q 465 105 489 153 q 406 33 440 58 q 465 -40 440 7 q 490 -144 490 -87 l 490 -219 l 382 -219 m 130 208 q 140 162 131 184 q 165 125 149 141 q 202 99 181 109 q 246 87 222 89 l 267 87 q 311 99 290 89 q 348 125 332 109 q 373 162 363 141 q 382 208 382 183 l 382 467 q 372 515 382 492 q 345 554 362 537 q 305 580 328 570 q 256 589 282 589 q 208 580 231 589 q 168 554 185 570 q 141 514 151 537 q 130 467 131 492 l 130 208 z "},"ႚ":{"ha":269,"x_min":-42,"x_max":206,"o":"m -42 770 q -32 818 -42 795 q -5 857 -22 840 q 34 884 12 874 q 82 894 56 894 q 130 884 108 894 q 170 857 153 874 q 196 818 186 840 q 206 770 206 795 q 196 722 206 744 q 170 682 186 699 q 130 655 153 665 q 82 646 108 646 q 34 655 56 646 q -5 682 12 665 q -32 722 -22 699 q -42 770 -42 744 m 32 770 q 47 734 32 749 q 82 720 62 720 q 117 734 102 720 q 132 770 132 749 q 117 805 132 790 q 82 820 102 820 q 47 805 62 820 q 32 770 32 790 z "},"ႛ":{"ha":264,"x_min":-138,"x_max":177,"o":"m 167 757 q 149 675 161 731 q 115 574 135 636 q 83 534 96 550 q 53 504 70 517 q 8 477 35 490 q -138 427 -18 464 q -17 497 -37 481 q 16 535 3 514 q 37 582 29 555 q 53 642 45 608 q 34 667 45 665 q -37 717 -12 676 q -54 801 -62 758 q -5 872 -43 848 q 79 886 34 896 q 151 840 125 876 q 167 757 177 803 m 94 777 q 83 802 94 791 q 58 812 73 812 q 33 802 43 812 q 22 777 22 791 q 33 751 22 762 q 58 741 43 741 q 83 751 73 741 q 94 777 94 762 z "},"ႜ":{"ha":680,"x_min":17,"x_max":624,"o":"m 169 85 q 192 92 182 87 q 210 107 203 98 q 220 127 216 116 q 221 151 223 139 q 214 174 220 164 q 199 191 208 184 q 178 201 190 198 q 155 203 167 205 q 132 196 142 201 q 115 181 122 190 q 105 160 109 172 q 103 136 102 149 q 111 114 105 124 q 125 96 116 103 q 146 86 134 90 q 169 85 157 83 m 169 288 q 276 277 203 285 q 408 250 327 267 q 464 216 441 230 q 507 183 486 203 q 548 132 528 163 q 624 -22 568 100 q 528 99 552 75 q 475 136 503 122 q 413 155 447 149 q 333 165 378 161 q 302 134 304 152 q 250 39 298 77 q 148 7 203 2 q 53 56 88 12 q 22 157 17 100 q 69 255 28 217 q 169 288 110 292 m 169 465 q 192 472 182 467 q 210 487 203 477 q 220 507 216 496 q 221 531 223 519 q 214 554 220 544 q 199 571 208 564 q 178 581 190 578 q 155 583 167 585 q 132 575 142 581 q 115 561 122 570 q 105 540 109 551 q 103 516 102 528 q 111 493 105 504 q 125 476 116 483 q 146 466 134 469 q 169 465 157 463 m 169 667 q 276 657 203 665 q 408 629 327 646 q 464 596 441 610 q 507 563 486 583 q 548 511 528 543 q 624 357 568 479 q 528 478 552 455 q 475 515 503 502 q 413 535 447 529 q 333 545 378 541 q 302 514 304 532 q 250 419 298 456 q 148 387 203 382 q 53 436 88 391 q 22 537 17 480 q 69 634 28 597 q 169 667 110 672 z "},"ႝ":{"ha":7,"x_min":-621,"x_max":-133,"o":"m -133 745 q -187 692 -133 692 q -235 745 -235 692 l -235 1007 q -279 1088 -235 1057 q -376 1120 -323 1120 q -471 1084 -422 1120 q -520 1007 -520 1049 q -540 967 -520 981 l -568 957 q -621 1007 -621 957 q -542 1164 -621 1099 q -376 1223 -472 1223 q -209 1167 -279 1223 q -135 1007 -136 1103 l -133 745 z "},"႞":{"ha":408,"x_min":-7,"x_max":417,"o":"m 9 865 q 19 914 9 891 q 46 955 29 937 q 87 982 64 972 q 136 991 110 991 q 184 982 161 991 q 225 955 208 972 q 252 914 242 937 q 262 865 262 891 q 252 817 262 840 q 225 776 242 793 q 184 749 208 759 q 136 739 161 739 q 87 749 110 739 q 46 776 64 759 q 19 817 29 793 q 9 865 9 840 m 85 865 q 100 829 85 844 q 136 814 115 814 q 172 829 157 814 q 186 865 186 844 q 172 901 186 886 q 136 916 157 916 q 100 901 115 916 q 85 865 85 886 m 155 604 l 40 604 q -7 652 -7 604 q 40 705 -7 705 l 204 705 q 254 652 254 705 l 254 -345 l 369 -345 q 417 -393 417 -345 q 369 -446 417 -446 l 205 -446 q 155 -393 155 -446 l 155 604 z "},"႟":{"ha":1069,"x_min":26,"x_max":967,"o":"m 340 90 q 322 178 340 142 q 131 304 288 304 q 203 167 131 235 q 340 90 281 90 m 732 314 l 732 -314 q 736 -366 734 -359 q 745 -375 739 -373 q 770 -390 757 -387 q 800 -394 783 -392 q 843 -388 833 -393 q 858 -371 852 -382 q 864 -345 863 -360 q 865 -313 866 -330 l 865 524 q 740 763 865 655 q 537 951 555 920 q 492 1097 492 1026 q 557 1257 492 1186 q 725 1327 623 1327 q 953 1192 872 1327 l 962 1170 q 908 1118 962 1118 q 863 1143 878 1118 q 724 1223 818 1223 l 675 1218 q 634 1184 656 1212 q 595 1097 595 1137 q 624 1006 595 1061 q 852 804 787 878 q 966 524 966 667 l 966 -313 q 967 -364 967 -342 q 961 -409 966 -385 q 939 -445 955 -433 q 840 -488 904 -484 q 713 -473 776 -492 q 675 -449 692 -463 q 649 -414 658 -435 q 632 -367 635 -395 q 630 -314 629 -339 l 630 314 q 556 525 630 450 q 379 600 481 600 q 203 522 281 600 q 130 399 140 465 q 322 353 252 399 q 422 227 378 317 q 445 111 445 174 q 379 -14 445 -13 q 127 87 229 -17 q 26 346 26 192 q 129 598 26 495 q 379 702 233 702 q 643 584 538 702 q 732 314 732 484 z "},"ꩠ":{"ha":1465,"x_min":31,"x_max":1367,"o":"m 1367 341 q 1260 85 1367 193 q 970 -22 1154 -22 q 947 -17 956 -21 l 933 -14 q 899 2 914 -14 q 885 46 884 18 l 889 57 l 891 64 q 945 190 916 135 q 1017 284 975 245 q 1117 342 1059 322 q 1259 366 1175 363 l 1261 366 q 1188 522 1256 452 q 1007 596 1114 596 q 826 518 903 596 q 749 338 770 465 q 577 -9 749 98 l 553 -17 q 503 36 503 -17 q 526 79 503 64 q 649 300 625 138 q 581 505 649 422 q 393 596 513 596 q 211 517 286 596 q 136 330 136 439 q 174 188 136 258 q 271 79 212 119 q 296 41 292 66 q 240 -17 296 -14 l 214 -9 q 31 330 31 117 q 136 589 31 481 q 393 698 241 698 q 577 644 492 698 q 698 522 662 591 q 751 593 713 557 q 873 673 810 647 q 1007 699 936 699 q 1260 593 1154 699 q 1367 341 1367 487 m 1188 159 q 1249 264 1232 204 l 1257 264 q 1159 248 1200 261 q 1089 211 1118 235 q 1040 152 1060 187 q 1006 81 1019 117 q 1188 159 1112 85 z "},"ꩡ":{"ha":1470,"x_min":37,"x_max":1361,"o":"m 1361 345 q 1255 92 1361 197 q 1002 -14 1149 -14 q 750 91 853 -14 q 709 139 722 119 q 568 -8 670 54 l 545 -14 q 495 41 495 -6 q 519 81 495 66 q 648 323 646 154 l 647 345 q 570 515 640 445 q 386 594 494 594 q 231 534 308 594 q 140 400 153 474 l 148 361 l 173 330 l 204 319 q 281 276 241 309 q 353 146 353 219 q 326 58 353 94 q 189 -14 269 -14 q 91 25 134 -13 q 39 117 47 62 q 90 169 39 169 q 140 118 140 169 q 195 91 140 91 q 242 111 233 94 q 250 141 250 127 q 212 201 243 182 l 102 256 q 75 286 79 276 q 45 346 52 311 q 43 429 37 382 q 168 620 58 539 q 386 696 272 696 q 644 589 538 696 q 694 528 677 555 q 749 598 711 561 q 1002 700 852 700 q 1255 595 1149 700 q 1361 345 1361 491 m 1258 345 q 1182 522 1258 448 q 1002 597 1105 597 q 822 526 894 597 q 750 345 750 454 q 823 164 750 239 q 1002 89 897 89 q 1183 165 1107 89 q 1258 345 1258 241 z "},"ꩢ":{"ha":1234,"x_min":29,"x_max":1117,"o":"m 522 73 q 522 76 523 75 q 516 81 520 77 q 508 87 512 84 q 502 93 504 91 q 474 131 488 111 q 450 172 461 151 q 429 215 438 194 q 415 256 420 237 q 408 270 412 262 q 399 285 404 277 q 389 303 395 293 q 376 325 383 314 q 361 345 369 336 q 347 361 354 354 q 341 365 345 363 q 337 366 338 366 q 336 365 338 367 q 332 359 334 362 q 313 314 320 340 q 299 265 305 288 q 286 207 292 237 q 272 149 280 178 q 253 91 264 119 q 223 37 242 62 q 212 25 218 29 q 210 21 211 24 q 207 16 208 18 q 196 1 203 6 q 182 -9 189 -5 q 136 -30 161 -28 q 87 -21 110 -31 q 47 9 64 -11 q 30 57 31 30 q 33 98 29 78 q 43 138 37 119 q 53 177 48 158 q 60 216 58 196 q 67 345 68 280 q 65 473 66 409 q 64 538 65 506 q 63 602 64 570 q 62 627 63 614 q 63 653 62 640 q 68 679 64 666 q 84 703 73 692 q 119 715 102 715 q 148 706 136 715 q 165 682 160 697 q 165 649 170 666 q 165 629 165 640 q 165 608 165 618 l 168 479 q 169 342 169 411 q 162 206 170 274 q 150 146 159 175 q 139 111 140 117 q 133 102 126 98 q 159 127 152 110 q 172 167 166 144 q 179 197 176 182 q 186 227 182 212 l 200 292 q 209 322 203 304 q 220 358 214 339 q 236 396 227 377 q 256 431 244 415 q 282 457 267 446 q 316 470 297 468 q 347 472 330 472 q 378 463 363 472 q 400 449 386 458 q 422 429 414 439 q 461 380 444 406 q 494 326 479 355 q 516 278 505 302 q 537 231 528 254 q 557 201 548 216 q 576 170 567 186 q 585 159 580 165 q 596 150 591 153 q 665 104 630 119 q 760 87 710 87 q 939 164 860 87 q 1006 294 989 212 q 1013 343 1013 319 q 939 522 1013 455 q 736 601 870 601 l 705 597 q 641 646 651 597 q 664 690 641 676 l 701 699 l 716 701 l 716 702 q 1002 603 886 702 q 1117 343 1117 504 q 1011 93 1117 199 q 760 -14 905 -14 q 522 73 617 -14 z "},"ꩣ":{"ha":1470,"x_min":37,"x_max":1361,"o":"m 1361 345 q 1255 92 1361 197 q 1002 -14 1149 -14 q 750 92 853 -14 l 709 140 q 566 -8 668 54 l 530 -18 q 509 -15 520 -20 q 487 -3 497 -9 q 443 39 458 14 q 424 94 428 64 q 425 153 420 123 q 443 213 430 184 q 474 266 455 241 q 516 305 493 290 q 551 318 532 316 q 587 316 570 319 q 623 304 605 312 q 645 294 640 297 q 646 330 646 305 q 615 456 646 399 q 570 515 598 488 q 386 594 494 594 q 231 534 308 594 q 140 400 153 474 l 148 361 l 173 330 l 204 319 q 281 276 241 309 q 353 146 353 219 q 326 58 353 94 q 189 -14 269 -14 q 91 25 134 -13 q 39 117 47 62 q 90 169 39 169 q 140 118 140 169 q 195 91 140 91 q 242 111 233 94 q 250 141 250 127 q 212 201 243 182 l 102 256 q 75 286 79 276 q 45 346 52 311 q 43 429 37 382 q 168 620 58 539 q 386 696 272 696 q 644 589 538 696 q 694 527 667 566 q 749 598 711 561 q 1002 700 852 700 q 1255 595 1149 700 q 1361 345 1361 491 m 1258 345 q 1182 522 1258 448 q 1002 597 1105 597 q 822 526 894 597 q 750 345 750 454 q 823 164 750 239 q 1002 89 897 89 q 1183 165 1107 89 q 1258 345 1258 241 m 618 197 q 610 202 618 197 q 593 211 602 208 q 577 216 585 215 q 560 215 569 218 q 537 193 547 211 q 523 154 527 176 q 521 113 519 133 q 528 90 523 93 l 618 197 z "},"ꩤ":{"ha":1468,"x_min":36,"x_max":1364,"o":"m 1364 347 q 1258 94 1364 199 q 1005 -12 1152 -12 q 753 92 857 -12 q 700 161 717 130 q 646 93 683 131 q 391 -14 541 -14 q 140 95 243 -14 q 36 353 36 205 q 87 542 36 451 q 220 692 138 632 l 246 699 q 299 646 294 699 q 273 606 299 622 q 176 497 214 567 q 138 353 138 427 q 214 167 138 245 q 391 88 289 88 q 575 166 501 88 q 649 353 649 244 q 611 497 649 427 q 511 605 574 567 q 489 643 492 616 q 538 699 488 690 l 560 692 q 701 547 650 641 q 705 539 706 537 q 753 599 720 566 q 1005 701 855 701 q 1258 596 1152 701 q 1364 347 1364 492 m 1261 347 q 1185 524 1261 449 q 1005 598 1109 598 q 825 527 897 598 q 753 347 753 456 q 827 165 753 240 q 1005 90 900 90 q 1186 166 1111 90 q 1261 347 1261 242 z "},"ꩥ":{"ha":1445,"x_min":43,"x_max":1335,"o":"m 756 351 q 692 142 756 232 l 692 -496 q 641 -547 692 -547 l 219 -547 q 172 -496 172 -547 q 219 -447 172 -447 l 592 -447 l 592 43 q 397 -14 514 -14 q 146 95 250 -14 q 43 351 43 204 q 94 540 43 450 q 227 688 144 631 l 253 694 q 306 642 300 694 q 280 602 306 618 q 182 496 220 566 q 145 351 145 426 q 220 166 145 245 q 397 88 295 88 q 580 166 507 88 q 654 351 654 243 q 616 496 654 426 q 519 601 579 566 q 496 639 499 612 q 545 694 494 686 l 567 688 q 698 559 653 640 q 729 597 708 576 q 981 701 835 701 q 1230 595 1125 701 q 1335 342 1335 489 q 1229 91 1335 196 q 986 -15 1124 -15 l 949 -11 l 947 -11 l 917 -3 l 892 4 q 860 50 860 18 q 913 100 869 100 l 960 90 q 1152 158 1077 90 q 1230 342 1230 228 q 1159 526 1230 452 q 981 600 1089 600 q 890 581 941 600 q 747 430 787 538 q 756 351 756 393 z "},"ꩦ":{"ha":1474,"x_min":34,"x_max":1371,"o":"m 1371 343 q 1263 93 1371 201 q 975 -14 1156 -14 q 919 36 919 -14 q 975 88 919 88 q 1081 104 1031 88 q 1215 195 1164 132 q 1266 343 1266 258 q 1191 525 1266 452 q 1006 597 1116 597 q 829 522 895 597 q 774 432 796 494 q 747 315 762 394 q 642 81 747 177 q 395 -14 536 -14 q 139 91 245 -14 q 34 346 34 197 q 138 597 34 498 q 395 696 241 696 q 702 526 606 696 q 792 630 724 578 q 1006 699 888 699 q 1263 596 1155 699 q 1371 343 1371 492 m 649 360 q 574 528 649 459 q 395 597 498 597 q 210 527 283 597 q 136 346 136 456 q 213 164 136 239 q 395 88 290 88 q 574 171 499 88 q 649 360 649 253 m 392 486 q 448 475 422 486 q 493 444 474 463 q 524 398 513 425 q 536 342 536 372 q 524 287 536 313 q 493 241 513 260 q 448 210 474 222 q 392 199 422 199 q 336 210 362 199 q 291 241 310 222 q 260 287 271 260 q 248 342 248 313 q 260 398 248 372 q 291 444 271 425 q 336 475 310 463 q 392 486 362 486 m 392 283 q 434 300 417 283 q 452 342 452 317 q 434 385 452 368 q 392 402 417 402 q 350 385 367 402 q 332 342 332 368 q 350 300 332 317 q 392 283 367 283 z "},"ꩧ":{"ha":1455,"x_min":31,"x_max":1356,"o":"m 1356 345 q 1251 92 1356 197 q 995 -14 1145 -14 q 695 157 789 -14 q 387 -14 598 -14 q 135 91 239 -14 q 31 345 31 196 q 134 598 31 496 q 387 700 237 700 q 694 532 591 700 q 995 700 782 700 q 1249 595 1141 700 q 1356 345 1356 491 m 1251 345 q 1178 524 1251 452 q 995 597 1104 597 q 820 532 890 597 q 748 371 740 458 l 749 345 l 748 323 q 823 159 748 229 q 995 89 898 89 q 1176 165 1101 89 q 1251 345 1251 241 m 645 320 l 645 372 q 558 532 633 467 q 387 597 484 597 q 209 526 281 597 q 137 345 137 454 q 210 164 137 239 q 387 89 282 89 q 560 156 487 89 q 645 320 633 223 m 392 486 q 448 475 422 486 q 493 444 474 463 q 524 398 513 425 q 536 342 536 372 q 524 287 536 313 q 493 241 513 260 q 448 210 474 222 q 392 199 422 199 q 336 210 362 199 q 291 241 310 222 q 260 287 271 260 q 248 342 248 313 q 260 398 248 372 q 291 444 271 425 q 336 475 310 463 q 392 486 362 486 m 392 283 q 434 300 417 283 q 452 342 452 317 q 434 385 452 368 q 392 402 417 402 q 350 385 367 402 q 332 342 332 368 q 350 300 332 317 q 392 283 367 283 z "},"ꩨ":{"ha":1474,"x_min":34,"x_max":1371,"o":"m 945 -14 q 912 6 923 -9 q 900 40 902 22 q 901 80 898 59 q 911 119 905 100 q 925 155 918 138 q 938 180 932 171 q 998 243 961 219 q 1078 275 1036 267 q 1162 274 1120 283 q 1239 236 1205 265 l 1241 235 q 1266 343 1266 279 q 1191 525 1266 452 q 1007 597 1116 597 q 829 522 895 597 q 774 432 796 494 q 747 315 762 394 q 642 81 747 177 q 395 -14 536 -14 q 139 91 245 -14 q 34 346 34 197 q 138 597 34 498 q 395 696 241 696 q 702 526 607 696 q 792 630 724 578 q 1007 699 889 699 q 1263 596 1156 699 q 1371 343 1371 492 q 1264 93 1371 201 q 975 -14 1156 -14 l 971 -14 q 945 -14 960 -16 m 649 360 q 574 528 649 459 q 395 597 498 597 q 210 527 283 597 q 136 346 136 456 q 213 164 136 239 q 395 88 290 88 q 574 171 499 88 q 649 360 649 253 m 1081 105 q 1180 157 1143 125 l 1182 157 q 1126 183 1154 180 q 1073 172 1098 185 q 1029 134 1048 159 q 1006 90 1010 109 l 1081 105 m 392 486 q 448 475 422 486 q 493 444 474 463 q 524 398 513 425 q 536 342 536 372 q 524 287 536 313 q 493 241 513 260 q 448 210 474 222 q 392 199 422 199 q 336 210 362 199 q 291 241 310 222 q 260 287 271 260 q 248 342 248 313 q 260 398 248 372 q 291 444 271 425 q 336 475 310 463 q 392 486 362 486 m 392 283 q 434 300 417 283 q 452 342 452 317 q 434 385 452 368 q 392 402 417 402 q 350 385 367 402 q 332 342 332 368 q 350 300 332 317 q 392 283 367 283 z "},"ꩩ":{"ha":1459,"x_min":35,"x_max":1360,"o":"m 648 320 l 648 372 q 562 532 637 467 q 391 597 487 597 q 212 526 284 597 q 140 345 140 454 q 213 164 140 239 q 391 89 286 89 q 564 156 490 89 q 648 320 637 223 m 1360 345 q 1254 92 1360 197 q 998 -14 1148 -14 q 699 157 792 -14 q 391 -14 602 -14 q 138 91 242 -14 q 35 345 35 196 q 138 598 35 496 q 391 700 241 700 q 698 532 595 700 q 998 700 785 700 q 1252 595 1145 700 q 1360 345 1360 491 m 1255 345 q 1181 524 1255 452 q 998 597 1107 597 q 823 532 893 597 q 751 372 743 458 q 790 367 768 370 q 839 357 812 363 q 907 332 873 346 q 974 300 942 319 q 1035 259 1006 282 q 1086 205 1063 235 q 1096 191 1090 199 q 1107 173 1101 182 q 1117 154 1113 163 q 1124 138 1121 145 q 1126 125 1125 132 q 1126 123 1127 119 q 1179 164 1150 136 q 1255 345 1255 241 m 826 158 q 998 89 901 89 q 1029 90 1017 89 q 1027 94 1029 89 q 1025 105 1026 100 q 982 171 1011 142 q 914 218 953 199 q 831 250 875 238 q 758 266 788 261 q 826 158 770 211 m 395 486 q 451 475 425 486 q 497 444 477 463 q 528 398 516 425 q 539 342 539 372 q 528 287 539 313 q 497 241 516 260 q 451 210 477 222 q 395 199 425 199 q 339 210 366 199 q 294 241 313 222 q 263 287 275 260 q 252 342 252 313 q 263 398 252 372 q 294 444 275 425 q 339 475 313 463 q 395 486 366 486 m 395 283 q 438 300 420 283 q 455 342 455 317 q 438 385 455 368 q 395 402 420 402 q 353 385 370 402 q 336 342 336 368 q 353 300 336 317 q 395 283 370 283 z "},"ꩪ":{"ha":1457,"x_min":33,"x_max":1358,"o":"m 647 320 l 647 372 q 561 532 635 467 q 389 597 486 597 q 211 526 283 597 q 139 345 139 454 q 212 164 139 239 q 389 89 284 89 q 562 156 489 89 q 647 320 635 223 m 1358 345 q 1253 92 1358 197 q 997 -14 1147 -14 q 697 157 791 -14 q 389 -14 600 -14 q 137 91 241 -14 q 33 345 33 196 q 136 598 33 496 q 389 700 239 700 q 696 532 593 700 q 997 700 784 700 q 1251 595 1143 700 q 1358 345 1358 491 m 1253 345 q 1180 524 1253 452 q 997 597 1106 597 q 822 532 892 597 q 749 372 742 458 q 789 367 767 370 q 838 357 810 363 q 906 332 871 346 q 973 300 941 319 q 1034 259 1005 282 q 1084 205 1062 235 q 1094 191 1088 199 q 1106 173 1100 182 q 1116 154 1112 163 q 1122 138 1120 145 q 1125 125 1124 132 q 1125 123 1126 119 q 1177 164 1149 136 q 1253 345 1253 241 m 825 158 q 997 89 900 89 q 1027 90 1016 89 q 1026 94 1027 89 q 1023 105 1025 100 q 981 171 1010 142 q 912 218 951 199 q 830 250 873 238 q 757 266 787 261 q 825 158 769 211 z "},"ꩫ":{"ha":857,"x_min":-75,"x_max":813,"o":"m -75 755 q -28 808 -68 804 q 22 759 12 811 q 26 629 21 644 q 40 607 31 614 q 66 593 50 599 q 108 578 82 588 q 142 563 127 572 q 166 548 158 554 q 201 590 179 567 q 454 696 304 696 q 706 587 600 696 q 813 332 813 478 q 629 -5 813 120 l 602 -14 q 551 42 555 -14 q 574 81 551 65 q 671 193 631 121 q 711 332 711 264 q 635 518 711 439 q 454 597 559 597 q 252 486 331 597 q 431 307 384 458 l 444 227 l 446 163 q 423 41 451 94 q 323 -12 395 -12 l 285 -6 q 100 332 100 106 q 119 458 100 402 q 109 465 116 460 q 56 490 83 481 q 4 509 29 498 q -42 540 -22 520 q -72 600 -62 559 q -75 755 -75 616 m 345 207 q 210 396 345 351 l 202 359 l 202 332 q 328 85 202 171 q 343 137 330 87 q 345 207 345 188 z "},"ꩬ":{"ha":1624,"x_min":36,"x_max":1522,"o":"m 860 157 l 841 199 q 806 341 806 271 l 814 422 q 840 492 821 465 l 840 522 q 817 572 836 552 q 779 593 798 593 q 719 522 722 593 l 716 486 q 751 340 751 420 q 735 249 751 289 l 715 202 l 684 144 q 592 55 665 104 q 490 3 530 17 q 385 -10 449 -10 q 223 28 300 -10 q 36 338 36 126 q 75 499 36 423 q 195 627 113 575 q 379 692 291 692 l 445 688 l 496 676 q 524 631 524 663 q 457 583 515 583 q 400 593 432 593 q 246 543 321 593 q 141 338 141 460 q 208 158 141 226 q 387 91 275 91 q 536 140 492 91 l 583 180 l 611 218 q 647 340 647 288 q 618 453 647 399 l 614 475 l 614 522 q 661 643 614 594 q 779 692 708 692 q 898 643 851 692 q 944 522 944 593 l 944 477 l 938 453 l 913 401 q 911 340 911 387 q 943 218 911 262 l 972 175 l 1023 137 q 1167 91 1080 91 q 1286 115 1232 91 q 1419 342 1419 181 q 1391 460 1419 404 q 1170 594 1320 594 q 1096 583 1129 594 q 1033 630 1033 583 q 1067 678 1038 671 l 1116 692 q 1170 696 1131 696 q 1260 682 1220 696 q 1366 631 1330 654 q 1522 342 1522 526 q 1457 139 1522 229 q 1167 -14 1348 -14 q 962 55 1069 -14 l 890 110 l 860 157 z "},"ꩭ":{"ha":1256,"x_min":-184,"x_max":1160,"o":"m 1160 342 q 1006 51 1160 151 q 793 -18 900 -18 q 711 -7 751 -18 l 684 2 l 659 16 q 617 67 617 29 q 632 99 617 82 q 666 116 648 116 q 688 111 684 116 l 744 89 q 791 84 759 84 q 978 159 899 84 q 1056 342 1056 234 q 1013 489 1056 426 q 924 562 982 533 q 809 590 865 590 q 673 547 734 590 q 564 466 610 513 l 477 380 q 430 343 457 361 q 405 327 416 334 q 382 314 393 319 l 382 -232 q 308 -452 382 -359 q 100 -549 227 -549 q -81 -495 7 -549 q -184 -331 -184 -430 q -130 -284 -178 -284 q -81 -332 -90 -284 q -12 -412 -81 -374 q 100 -448 55 -448 q 233 -380 182 -448 q 281 -232 281 -319 l 281 284 q 257 283 273 283 q 228 284 242 283 q 197 288 213 286 q 161 294 180 291 q 118 311 139 299 q 81 339 97 323 q 43 397 56 363 q 33 466 31 431 q 54 530 35 500 q 109 576 72 561 q 150 587 127 584 q 191 585 172 591 q 232 573 211 580 q 271 555 253 567 q 339 494 313 530 q 373 424 365 458 q 400 445 383 431 q 434 475 417 460 l 493 539 q 627 643 551 597 q 810 694 704 688 q 1093 543 989 694 q 1160 342 1160 446 m 149 480 q 133 464 134 475 q 138 438 131 452 q 159 411 146 424 q 184 394 172 399 q 233 386 209 387 q 275 387 258 385 q 261 424 272 401 q 235 462 251 447 q 197 483 218 477 q 149 480 176 489 z "},"ꩮ":{"ha":1457,"x_min":36,"x_max":1355,"o":"m 1355 343 q 1247 95 1355 203 q 998 -14 1139 -14 q 746 92 856 -14 q 643 319 643 193 q 627 420 643 371 q 481 581 587 538 q 389 601 429 601 q 211 526 281 601 q 164 458 178 492 q 183 455 169 458 q 294 412 243 441 q 382 339 344 382 q 449 245 421 297 q 493 137 477 194 q 502 79 500 109 q 509 44 507 68 q 478 5 511 19 l 454 -2 l 478 5 l 565 5 l 385 -14 q 141 91 247 -14 q 36 343 36 197 q 141 596 36 490 q 389 702 245 702 q 642 597 536 702 q 737 397 711 528 q 820 166 737 245 q 998 87 903 87 q 1231 245 1151 87 q 1250 343 1250 297 q 1176 523 1250 448 q 979 597 1103 597 l 949 593 l 930 587 q 880 637 880 587 q 958 697 880 685 l 958 699 q 1237 604 1126 699 q 1355 343 1355 502 m 141 343 q 219 159 141 229 q 396 91 291 93 q 393 114 396 98 q 363 196 385 157 q 311 268 342 235 q 241 323 279 300 q 159 355 202 346 q 146 357 153 356 q 141 357 140 357 q 141 343 141 355 z "},"ꩯ":{"ha":1117,"x_min":37,"x_max":1002,"o":"m 1002 342 q 897 90 1002 195 q 645 -16 791 -16 q 394 90 497 -16 q 292 342 292 195 q 323 495 292 429 q 327 492 326 492 l 139 573 l 139 -4 q 81 -55 127 -56 q 37 -5 56 -55 l 37 684 q 121 698 70 726 l 377 576 q 393 593 383 583 q 645 695 496 695 q 897 591 791 695 q 1002 342 1002 487 m 900 342 q 824 518 900 444 q 645 593 748 593 q 466 522 537 593 q 394 342 394 451 q 467 161 394 236 q 645 87 540 87 q 825 162 750 87 q 900 342 900 238 z "},"ꩰ":{"ha":737,"x_min":43,"x_max":694,"o":"m 633 1028 q 575 1080 605 1059 q 485 1118 538 1105 q 368 1131 433 1131 q 251 1117 303 1131 q 161 1078 199 1103 q 109 1028 132 1059 l 43 1061 q 102 1141 68 1108 q 216 1211 149 1185 q 369 1238 283 1238 q 521 1212 454 1238 q 635 1142 589 1186 q 694 1069 667 1112 l 633 1028 m 633 804 q 575 856 605 836 q 485 894 538 881 q 368 907 433 907 q 251 893 303 907 q 161 854 199 880 q 109 804 132 836 l 43 838 q 102 917 68 884 q 216 987 149 961 q 369 1014 283 1014 q 521 988 454 1015 q 635 918 589 962 q 694 845 667 888 l 633 804 z "},"ꩱ":{"ha":1463,"x_min":32,"x_max":1360,"o":"m 1360 339 q 1255 84 1360 191 q 960 -22 1149 -22 l 960 -20 q 943 -17 951 -20 l 916 -11 q 883 37 888 4 q 933 88 883 88 l 951 85 l 979 80 q 1183 159 1103 80 q 1250 288 1232 208 q 1257 339 1257 312 q 1183 518 1257 444 q 1003 593 1109 593 q 823 515 900 593 q 747 336 767 462 q 576 -9 747 98 l 552 -17 q 501 36 501 -17 q 524 79 501 64 q 647 298 623 137 q 579 503 647 420 q 392 593 512 593 q 211 514 286 593 q 193 493 199 501 q 249 432 221 471 q 295 349 276 393 q 323 259 313 305 q 332 170 332 212 q 327 126 332 144 q 315 85 321 109 l 300 37 q 252 -19 291 -9 l 215 -9 q 32 328 32 117 q 137 586 32 478 q 392 694 241 694 q 575 641 490 694 q 696 519 660 587 q 749 590 711 554 q 870 669 808 644 q 1003 695 932 695 q 1255 590 1149 695 q 1360 339 1360 484 m 137 328 q 175 186 137 256 q 215 129 195 150 q 218 133 214 127 q 225 144 222 139 q 226 183 227 160 q 220 232 225 207 q 208 284 216 258 q 190 334 201 311 q 166 377 179 358 q 146 401 153 395 q 137 328 137 372 z "},"ꩲ":{"ha":1567,"x_min":-65,"x_max":1485,"o":"m 229 561 q 293 627 253 590 q 511 696 397 696 q 768 589 663 696 q 821 524 804 554 q 876 595 838 557 q 1128 696 979 696 q 1380 592 1274 696 q 1485 343 1485 488 q 1380 91 1485 197 q 1128 -14 1274 -14 q 877 90 980 -14 q 835 142 848 120 q 692 -8 796 54 l 669 -14 q 620 41 620 -6 q 645 81 620 67 q 772 328 772 155 q 695 516 772 437 q 511 594 618 594 q 355 534 433 594 q 321 503 336 519 l 255 433 l 239 387 l 232 326 l 243 294 q 254 208 256 258 q 193 71 252 115 q 107 39 151 40 q -7 81 21 44 l -31 108 q -61 209 -65 151 q -18 305 -57 267 q 54 296 23 336 q 43 224 83 255 q 54 165 21 208 l 68 152 q 105 142 94 141 q 127 151 117 142 q 153 218 156 181 l 138 295 l 131 338 q 139 378 133 368 q 156 452 144 408 q 217 548 168 496 l 229 561 m 1383 343 q 1307 520 1383 446 q 1128 594 1231 594 q 948 523 1020 594 q 877 343 877 452 q 950 163 877 237 q 1128 88 1023 88 q 1308 164 1233 88 q 1383 343 1383 239 z "},"ꩳ":{"ha":1107,"x_min":22,"x_max":1005,"o":"m 22 649 q 57 697 25 689 q 118 684 89 705 q 118 685 118 685 q 124 680 119 684 q 141 662 129 675 q 165 635 154 649 q 187 606 177 621 q 206 578 197 591 q 235 535 217 561 q 270 485 252 510 q 304 437 288 459 q 327 405 319 415 q 355 364 341 385 q 381 322 368 344 q 405 277 393 300 q 425 231 416 254 q 452 190 436 216 q 484 149 469 165 q 553 104 518 119 q 648 87 598 87 q 827 164 748 87 q 895 294 877 212 q 901 343 901 319 q 827 522 901 455 q 625 601 758 601 l 593 597 q 529 646 539 597 q 552 690 529 676 l 589 699 l 604 702 q 890 603 774 702 q 1005 343 1005 504 q 899 93 1005 199 q 648 -14 793 -14 q 410 73 505 -14 q 400 83 410 74 q 352 156 391 92 q 308 239 314 220 q 276 299 294 270 q 238 357 258 329 q 196 414 218 386 q 157 469 175 442 l 142 490 q 143 446 142 480 q 145 377 144 411 q 149 198 149 287 q 151 18 150 109 q 133 -18 146 -5 q 103 -32 119 -31 q 72 -22 87 -33 q 49 12 57 -12 q 47 193 48 104 q 43 371 46 281 q 41 444 41 407 q 39 518 41 481 q 33 591 37 555 q 22 649 28 627 z "},"ꩴ":{"ha":1072,"x_min":35,"x_max":962,"o":"m 861 524 q 736 763 861 655 q 533 951 589 894 q 488 1097 488 1026 q 553 1257 488 1186 q 721 1327 618 1327 q 949 1192 868 1327 l 958 1170 q 904 1118 958 1118 q 859 1143 873 1118 q 720 1223 814 1223 l 671 1218 q 630 1184 652 1212 q 591 1097 591 1137 q 620 1006 591 1061 q 848 804 764 876 q 962 524 962 667 l 962 -340 l 960 -401 q 950 -434 957 -420 q 933 -458 944 -449 q 887 -483 911 -473 q 836 -494 863 -492 q 798 -495 818 -496 q 760 -491 778 -494 q 678 -463 738 -487 q 582 -414 664 -458 l 569 -406 q 538 -456 561 -428 q 497 -488 525 -473 q 434 -513 469 -503 q 356 -515 392 -528 q 295 -475 321 -503 q 253 -410 269 -447 q 233 -337 237 -373 q 245 -266 231 -303 q 296 -210 269 -227 q 355 -192 323 -193 q 419 -203 386 -191 q 486 -237 452 -215 l 494 -241 q 494 1 494 -249 q 390 -14 450 -14 q 139 95 242 -14 q 35 351 35 204 q 86 540 35 450 q 218 690 137 630 l 245 696 q 298 644 292 696 q 272 604 298 620 q 175 496 212 566 q 138 351 138 426 q 213 166 138 245 q 390 88 288 88 q 494 109 450 88 l 494 618 q 487 641 488 626 q 536 696 486 688 l 558 690 q 698 546 647 639 q 749 351 749 454 q 644 93 749 201 q 591 43 619 68 l 593 -302 l 633 -328 q 703 -363 665 -345 q 775 -389 740 -382 q 815 -394 800 -395 q 843 -393 830 -394 q 861 -375 857 -391 q 861 -340 864 -369 l 861 524 m 646 351 q 608 496 646 426 q 595 521 597 519 l 595 191 q 646 351 646 250 m 346 -302 q 334 -329 336 -311 q 338 -366 333 -346 q 356 -398 344 -386 q 382 -415 368 -411 q 411 -413 395 -418 q 438 -403 427 -408 q 468 -378 457 -393 q 483 -349 479 -362 q 443 -325 465 -337 q 394 -301 421 -312 q 346 -302 367 -290 z "},"ꩵ":{"ha":1690,"x_min":32,"x_max":1569,"o":"m 954 -307 q 942 -333 943 -315 q 946 -370 941 -350 q 964 -402 951 -390 q 990 -419 976 -415 q 1019 -417 1003 -422 q 1046 -407 1034 -412 q 1076 -382 1065 -397 q 1090 -353 1086 -366 q 1051 -329 1073 -341 q 1002 -305 1029 -316 q 954 -307 975 -294 m 1358 357 q 1253 102 1358 208 q 1199 59 1227 77 l 1200 -307 l 1241 -332 q 1310 -368 1273 -349 q 1383 -393 1348 -386 q 1422 -398 1407 -399 q 1451 -397 1438 -398 q 1469 -379 1464 -395 q 1468 -345 1472 -373 l 1468 519 q 1343 759 1468 651 q 1141 947 1199 895 q 1096 1093 1096 1022 q 1161 1253 1096 1182 q 1329 1323 1226 1323 q 1556 1188 1476 1323 l 1565 1166 q 1512 1114 1565 1114 q 1466 1139 1481 1114 q 1328 1219 1421 1219 l 1278 1214 q 1238 1180 1259 1208 q 1198 1093 1198 1133 q 1227 1002 1198 1057 q 1456 800 1371 874 q 1569 519 1569 663 l 1569 -345 l 1567 -405 q 1558 -438 1565 -424 q 1541 -462 1552 -453 q 1495 -487 1519 -477 q 1444 -498 1470 -496 q 1406 -499 1426 -500 q 1367 -495 1385 -498 q 1286 -467 1345 -491 q 1190 -418 1272 -462 l 1177 -410 q 1146 -460 1168 -432 q 1105 -492 1133 -477 q 1042 -517 1077 -507 q 964 -519 1000 -532 q 902 -479 928 -507 q 860 -414 876 -451 q 840 -341 844 -377 q 853 -270 838 -307 q 904 -214 876 -231 q 962 -196 931 -197 q 1026 -207 994 -195 q 1094 -241 1059 -219 l 1101 -245 l 1101 14 q 913 15 1021 -12 q 882 62 882 31 q 932 113 882 113 q 1080 112 1016 92 q 1180 178 1144 133 q 1254 357 1254 245 q 1247 406 1254 381 q 1180 533 1231 483 q 1000 612 1101 612 q 823 532 899 612 q 747 345 761 469 l 744 308 q 698 136 744 218 q 576 9 652 54 q 507 28 528 -7 q 524 96 490 64 q 646 325 646 176 q 577 523 646 441 q 391 612 503 612 q 220 540 298 612 q 142 405 142 469 l 151 370 q 176 347 157 354 q 286 295 248 321 q 357 163 357 241 q 330 75 357 111 q 182 3 278 6 q 32 127 45 6 q 78 181 32 181 q 116 165 98 181 q 134 129 134 149 q 184 106 140 109 q 229 119 212 109 q 253 159 255 140 q 222 216 245 201 q 119 264 200 231 q 58 321 72 286 q 44 414 44 370 q 161 627 44 535 q 391 711 269 711 q 573 660 488 711 q 696 535 659 608 l 717 571 l 748 605 q 1000 714 862 714 q 1252 609 1147 714 q 1358 357 1358 503 z "},"ꩶ":{"ha":1519,"x_min":-93,"x_max":1404,"o":"m 788 -307 q 777 -333 778 -315 q 781 -370 775 -350 q 798 -402 786 -390 q 825 -419 810 -415 q 853 -417 838 -422 q 880 -407 869 -412 q 910 -382 899 -397 q 925 -353 921 -366 q 885 -329 907 -341 q 836 -305 863 -316 q 788 -307 809 -294 m 926 100 q 1012 157 976 121 q 1079 287 1061 207 q 1086 338 1086 311 q 1012 517 1086 443 q 832 591 939 591 q 652 514 729 591 q 576 334 596 460 q 575 304 576 318 l 578 -263 q 521 -439 578 -376 q 340 -503 464 -503 l 55 -501 q -57 -438 -16 -501 q -93 -313 -93 -387 q 8 -121 -93 -176 q 119 -90 60 -90 q 287 -155 213 -90 q 301 -193 300 -168 q 250 -246 301 -246 q 214 -229 229 -246 q 119 -192 174 -192 q 18 -249 48 -192 q 9 -300 9 -267 q 55 -399 9 -399 l 366 -399 q 448 -369 420 -399 q 477 -263 477 -338 l 477 247 q 470 364 470 363 q 408 501 458 441 q 221 591 341 591 q 53 525 127 591 l -15 604 q 221 692 89 692 q 404 639 319 692 q 525 518 489 586 q 578 589 540 553 q 699 668 637 642 q 832 694 762 694 q 1084 588 979 694 q 1190 338 1190 483 q 1084 83 1190 190 q 1032 38 1061 60 l 1035 -307 l 1076 -332 q 1145 -368 1107 -349 q 1217 -393 1182 -386 q 1257 -398 1242 -399 q 1285 -397 1272 -398 q 1303 -379 1299 -395 q 1303 -345 1306 -373 l 1303 519 q 1178 759 1303 651 q 975 947 1036 892 q 930 1093 930 1022 q 996 1253 930 1182 q 1163 1323 1061 1323 q 1391 1188 1310 1323 l 1400 1166 q 1346 1114 1400 1114 q 1301 1139 1316 1114 q 1162 1219 1256 1219 l 1113 1214 q 1072 1180 1094 1208 q 1033 1093 1033 1133 q 1062 1002 1033 1057 q 1291 800 1191 885 q 1404 519 1404 663 l 1404 -345 l 1402 -405 q 1393 -438 1399 -424 q 1375 -462 1386 -453 q 1329 -487 1354 -477 q 1278 -498 1305 -496 q 1240 -499 1260 -500 q 1202 -495 1220 -498 q 1120 -467 1180 -491 q 1024 -418 1106 -462 l 1011 -410 q 981 -460 1003 -432 q 939 -492 967 -477 q 876 -517 911 -507 q 799 -519 834 -532 q 737 -479 763 -507 q 695 -414 711 -451 q 675 -341 679 -377 q 688 -270 673 -307 q 738 -214 711 -231 q 797 -196 766 -197 q 861 -207 828 -195 q 928 -241 894 -219 l 936 -245 l 936 -5 l 931 -6 l 926 100 z "},"꩷":{"ha":1125,"x_min":33,"x_max":1084,"o":"m 640 365 q 564 515 627 450 q 379 594 487 594 q 224 534 301 594 q 134 400 146 474 l 141 361 l 166 330 l 197 319 q 274 276 234 309 q 346 146 346 219 q 319 58 346 94 q 218 -9 264 -7 l 182 -12 q 84 25 127 -13 q 33 117 40 62 q 83 169 33 169 q 134 118 134 169 q 188 91 134 91 l 207 94 q 237 118 231 109 q 243 141 243 127 q 205 201 236 182 l 106 247 l 69 285 q 39 343 45 311 q 37 429 33 376 q 161 620 52 539 q 379 696 265 696 q 637 589 531 696 q 743 366 729 496 l 745 299 q 739 230 744 262 q 723 165 733 197 q 699 103 713 134 q 668 40 685 73 l 665 35 l 887 -200 l 995 -81 q 1037 -64 1016 -63 q 1070 -78 1057 -65 q 1084 -111 1083 -91 q 1067 -151 1084 -132 l 923 -309 q 892 -319 905 -319 q 861 -311 880 -319 l 621 -68 l 621 -50 l 621 -444 l 717 -444 q 758 -462 744 -446 q 771 -496 772 -478 q 757 -530 771 -514 q 715 -546 743 -545 l 548 -546 q 524 -526 530 -537 q 520 -492 517 -515 l 520 -31 q 537 13 525 -8 q 558 52 549 34 q 597 126 578 89 q 630 203 617 163 q 641 256 638 231 q 644 309 643 281 l 640 365 m 388 734 q 195 819 270 734 q 121 1014 121 903 q 195 1210 121 1128 q 388 1293 269 1293 q 633 1147 541 1293 l 642 1122 q 584 1070 642 1080 q 543 1097 560 1070 q 388 1190 482 1190 q 271 1137 315 1190 q 227 1014 227 1084 q 269 889 227 941 q 388 837 310 837 q 541 928 484 837 q 583 956 551 956 q 644 907 635 956 l 636 884 q 388 734 552 734 z "},"꩸":{"ha":1200,"x_min":13,"x_max":1166,"o":"m 13 140 q 121 252 90 179 q 140 386 153 319 q 94 477 132 433 q 22 535 64 512 l 60 623 q 228 402 199 553 q 209 214 245 298 q 59 56 159 104 l 13 140 m 272 653 q 352 547 300 584 q 447 504 391 515 q 548 509 503 492 q 659 589 614 530 q 699 673 686 626 l 791 648 q 733 530 773 585 q 577 424 676 458 q 296 471 421 374 q 189 614 221 528 l 272 653 m 1134 793 q 1040 798 1084 810 q 977 747 994 787 l 733 144 q 686 122 717 103 q 642 160 663 137 q 574 214 615 192 q 441 241 509 250 q 347 203 393 237 q 278 125 300 170 q 249 -5 247 70 l 158 -5 q 195 170 151 87 q 432 331 269 311 q 618 298 536 340 q 680 257 657 277 l 894 781 q 1007 889 925 859 q 1166 879 1080 911 l 1134 793 z "},"꩹":{"ha":848,"x_min":20,"x_max":760,"o":"m 627 365 q 551 515 615 450 q 367 594 475 594 q 212 534 289 594 q 121 400 134 474 l 129 361 l 154 330 l 185 319 q 262 276 222 309 q 334 146 334 219 q 307 58 334 94 q 206 -9 252 -7 l 170 -12 q 72 25 115 -13 q 20 117 28 62 q 71 169 20 169 q 121 118 121 169 q 176 91 121 91 l 195 94 q 225 118 218 109 q 231 141 231 127 q 193 201 224 182 l 94 247 l 57 285 q 27 343 33 311 q 24 429 20 376 q 149 620 39 539 q 367 696 253 696 q 625 589 519 696 q 730 366 717 496 l 733 299 q 726 230 732 262 q 711 165 721 197 q 687 103 701 134 q 656 40 673 73 l 650 30 q 624 -18 632 -4 q 609 -51 615 -33 l 609 -50 l 608 -444 l 705 -444 q 746 -462 732 -446 q 759 -496 760 -478 q 745 -530 759 -514 q 703 -546 730 -545 l 536 -546 q 511 -526 517 -537 q 508 -492 505 -515 l 508 -31 q 525 13 513 -8 q 546 52 536 34 q 585 126 566 89 q 618 203 605 163 q 628 256 626 231 q 631 309 631 281 l 627 365 z "},"ꩺ":{"ha":1642,"x_min":37,"x_max":1578,"o":"m 959 987 q 948 959 957 970 q 929 941 940 947 q 906 937 918 936 q 885 943 894 937 l 338 943 q 193 888 246 943 q 140 728 140 833 l 139 -232 q 201 -387 139 -330 q 267 -436 245 -427 q 341 -445 288 -445 l 659 -445 q 815 -382 764 -445 q 869 -239 869 -328 l 869 279 q 869 321 869 298 q 850 420 865 368 q 704 581 810 538 q 612 601 652 601 q 434 527 505 601 q 364 343 364 453 q 442 159 364 229 q 634 91 517 91 l 681 100 q 734 51 724 100 q 701 5 734 19 l 677 -2 l 647 -10 l 645 -10 l 608 -14 q 365 91 470 -14 q 259 343 259 197 q 364 596 259 490 q 612 702 469 702 q 865 597 759 702 q 960 397 935 528 q 964 336 964 363 q 972 291 965 322 q 1044 166 992 215 q 1221 87 1126 87 q 1454 245 1374 87 q 1473 343 1473 297 q 1399 523 1473 448 q 1202 597 1326 597 l 1172 593 l 1153 587 q 1103 637 1103 587 q 1181 697 1103 685 l 1181 699 q 1460 604 1350 699 q 1578 343 1578 502 q 1470 95 1578 203 q 1221 -14 1362 -14 q 969 92 1079 -14 l 972 89 l 972 -239 q 953 -357 972 -308 q 891 -452 934 -406 q 798 -524 849 -499 q 659 -549 741 -549 l 341 -549 q 126 -458 216 -549 q 37 -232 37 -367 l 37 728 q 111 951 37 882 q 338 1047 191 1047 l 856 1047 l 854 1227 q 868 1269 854 1253 q 900 1286 882 1284 q 935 1275 918 1287 q 956 1235 951 1262 q 958 1111 958 1173 q 959 987 958 1050 z "},"ꩻ":{"ha":407,"x_min":20,"x_max":400,"o":"m 33 109 q 53 213 20 167 q 144 271 85 258 q 249 253 200 283 q 309 165 297 223 q 290 59 321 111 q 201 -4 258 7 q 174 -39 184 -7 q 194 -116 184 -83 q 221 -176 204 -149 q 264 -223 238 -202 q 400 -306 290 -245 q 234 -247 268 -262 q 178 -213 200 -231 q 139 -175 156 -195 q 99 -123 123 -154 q 56 5 74 -45 q 33 109 40 76 m 110 134 q 127 91 110 109 q 170 74 144 74 q 212 91 195 74 q 229 134 229 109 q 212 176 229 159 q 170 193 195 193 q 127 176 144 193 q 110 134 110 159 z "},"ꩼ":{"ha":7,"x_min":-725,"x_max":-132,"o":"m -725 849 l -132 849 l -132 755 l -725 755 l -725 849 z "},"ꩽ":{"ha":684,"x_min":15,"x_max":635,"o":"m 15 396 l 635 396 l 635 302 l 15 302 l 15 396 z "},"ꩾ":{"ha":987,"x_min":19,"x_max":907,"o":"m 715 340 q 610 91 715 195 q 358 -14 506 -14 q 87 112 194 -14 l 55 159 q 19 239 41 182 q 31 295 19 273 q 260 395 138 395 q 372 372 317 395 q 553 184 492 338 q 612 340 612 248 q 540 523 612 452 q 358 594 469 594 q 160 502 239 594 q 102 464 142 464 q 54 513 54 464 q 83 569 54 540 q 358 696 186 696 q 613 594 511 696 q 715 340 715 492 m 474 124 q 427 213 464 173 q 339 277 390 254 q 256 290 294 290 q 123 237 178 290 q 141 212 125 232 l 165 181 q 358 88 237 88 q 474 124 418 88 m 907 -492 q 844 -541 907 -549 l 433 -434 q 414 -374 401 -416 q 466 -336 426 -340 l 806 -425 l 806 652 q 857 705 808 699 q 907 652 907 701 l 907 -492 m 412 -490 q 359 -542 412 -542 l 195 -542 q 144 -490 144 -542 q 194 -441 144 -450 l 311 -441 l 311 -31 q 359 21 312 21 q 412 -31 412 21 l 412 -490 z "},"ꩿ":{"ha":1594,"x_min":31,"x_max":1531,"o":"m 1333 343 q 1228 91 1333 195 q 973 -14 1122 -14 q 673 160 763 -14 q 549 37 634 87 q 369 -14 465 -14 q 94 112 206 -14 l 63 157 q 37 198 40 182 l 31 216 q 47 260 31 241 q 255 348 146 353 l 304 347 q 355 332 328 347 q 530 155 486 292 q 626 332 626 218 l 626 359 q 550 527 626 459 q 369 594 473 594 q 169 501 241 594 q 98 464 130 464 q 58 505 58 464 q 116 595 58 544 q 202 657 158 634 q 369 696 281 696 q 673 532 577 696 q 973 696 762 699 q 1227 594 1120 699 q 1333 343 1333 490 m 1230 343 q 1154 523 1230 450 q 973 597 1079 597 q 809 539 878 597 q 724 390 741 481 l 727 343 l 724 311 l 724 302 q 807 150 739 212 q 973 88 876 88 q 1153 164 1076 88 q 1230 343 1230 239 m 441 102 q 322 235 417 197 q 251 245 290 245 q 195 237 216 245 q 148 209 174 229 l 173 181 q 369 88 254 88 q 441 102 411 88 m 1531 -492 q 1468 -541 1531 -549 l 1057 -434 q 1038 -374 1025 -416 q 1090 -336 1050 -340 l 1430 -425 l 1430 652 q 1480 705 1432 699 q 1531 652 1531 701 l 1531 -492 m 1023 -490 q 969 -542 1023 -542 l 805 -542 q 755 -490 755 -542 q 804 -441 755 -450 l 922 -441 l 922 -31 q 969 21 922 21 q 1023 -31 1023 21 l 1023 -490 z "},"ꧠ":{"ha":832,"x_min":35,"x_max":730,"o":"m 730 343 q 625 92 730 197 q 372 -13 520 -13 q 100 114 208 -13 l 68 161 q 35 217 54 183 q 47 274 35 252 q 261 319 146 326 q 372 300 313 318 q 547 165 464 273 q 627 343 627 250 q 555 526 627 455 q 372 597 483 597 q 319 593 336 597 q 334 576 311 598 q 357 493 357 553 q 317 392 357 433 q 216 351 278 351 q 119 394 160 351 q 77 493 77 437 q 96 572 77 535 q 372 700 199 700 q 627 597 525 700 q 730 343 730 495 m 471 115 q 418 169 442 149 q 349 203 394 189 q 250 223 289 220 q 142 216 178 231 l 164 186 q 372 90 250 90 q 471 115 432 90 m 257 493 q 218 531 257 531 q 180 494 180 530 q 218 453 180 453 q 253 463 245 454 q 257 493 260 473 z "},"ꧡ":{"ha":1394,"x_min":32,"x_max":1295,"o":"m 1295 345 q 1188 93 1295 201 q 935 -14 1081 -14 q 680 93 795 -14 l 650 130 l 631 164 q 326 -12 529 -12 q 43 117 136 -12 q 32 143 35 127 q 50 182 32 165 q 87 200 60 195 q 129 178 108 200 q 326 89 200 89 q 502 166 424 89 q 581 362 581 243 q 549 481 581 435 q 374 391 473 410 q 59 488 185 356 q 50 499 57 491 q 32 536 43 507 q 45 574 32 548 q 326 700 156 700 q 560 616 462 700 q 678 397 659 532 l 681 334 q 756 168 684 241 q 935 87 834 87 q 1116 165 1041 87 q 1190 348 1190 243 q 1117 528 1190 454 q 914 595 1043 601 l 880 591 q 816 640 825 591 q 838 687 816 674 l 876 694 l 803 684 l 903 699 l 940 700 q 1190 600 1089 700 q 1295 345 1295 496 m 326 597 q 159 539 218 597 q 160 538 155 541 q 355 494 249 473 q 480 551 434 508 q 326 597 418 597 z "},"ꧢ":{"ha":1394,"x_min":32,"x_max":1295,"o":"m 1295 345 q 1188 93 1295 201 q 935 -14 1081 -14 q 680 93 795 -14 l 650 130 l 631 164 q 326 -12 529 -12 q 43 117 136 -12 q 32 143 35 127 q 50 182 32 165 q 87 200 60 195 q 129 178 108 200 q 326 89 200 89 q 502 166 424 89 q 581 362 581 243 q 506 531 581 465 q 326 597 432 597 q 126 503 196 597 q 86 486 111 490 q 32 538 32 486 q 45 574 32 548 q 326 700 156 700 q 560 616 462 700 q 678 397 659 532 l 681 334 q 756 168 684 241 q 935 87 834 87 q 1116 165 1041 87 q 1183 287 1171 223 q 997 342 1095 281 q 854 500 896 404 q 820 625 825 564 q 816 640 817 631 q 838 687 816 674 l 876 694 l 803 684 l 903 699 l 940 700 q 1190 600 1089 700 q 1295 345 1295 496 m 1116 528 q 930 595 1045 598 q 948 542 935 572 q 1048 424 983 465 q 1160 393 1095 396 q 1187 393 1178 393 q 1116 528 1177 468 z "}}}
